<?xml version="1.0" encoding="utf-8"?>
<!-- Generator: Adobe Illustrator 26.0.2, SVG Export Plug-In . SVG Version: 6.00 Build 0)  -->
<svg version="1.1" id="Layer_1" xmlns="http://www.w3.org/2000/svg" xmlns:xlink="http://www.w3.org/1999/xlink" x="0px" y="0px"
	 viewBox="0 0 125 125" style="enable-background:new 0 0 125 125;" xml:space="preserve">
<style type="text/css">
	.st0{fill:#ECF0F1;}
	.st1{fill:#C6DCE2;}
	.st2{fill:#A4C9D2;}
	.st3{fill:#F0C7B1;}
	.st4{opacity:0.65;fill:#D19271;enable-background:new    ;}
	.st5{fill:#D19271;}
	.st6{fill:#C27B55;}
	.st7{fill:#1F7306;}
	.st8{fill:#D6D6D6;}
	.st9{fill:#135400;}
	.st10{fill:#E1AC8F;}
	.st11{fill:#F8D5C3;}
	.st12{fill:#DA7C87;}
	.st13{fill:#FFFFFF;}
	.st14{fill:#693D04;}
	.st15{fill:#4A2A00;}
	.st16{fill:#2A232B;}
	.st17{fill:#3A353A;}
	.st18{fill:#1B141C;}
	.st19{fill:#221B23;}
	.st20{fill:url(#SvgjsPath15340_00000088107339051722550360000012330237008399472009_);}
	.st21{fill:url(#SvgjsPath15348_00000166646967663480283400000000199971302019149469_);}
	.st22{fill:#26120B;}
	.st23{fill:#070201;}
	.st24{display:none;opacity:0.5;fill:#ECF0F1;enable-background:new    ;}
	.st25{fill:#333333;}
	.st26{font-family:'AvenirNext-Regular';}
	.st27{font-size:6.2469px;}
</style>
<g id="svga-group-wrapper">
	<g id="svga-group-backs-single">
		<path id="SvgjsPath15559" class="st0" d="M0.3,0.1h124.9V125H0.3V0.1z"/>
		<path id="SvgjsPath15560" class="st1" d="M98,82l-10.5-0.2l-10.6,0.4c-0.4,0-5.5-0.2-5.9-0.1c-6.1,0.7-9.3,0.4-13,0L51.2,82
			c-0.9,0-2.2-1-2.2-2.2l0.1-3.5c0.6-3.4-0.1-5.9-0.1-9.2l0.1-2.2c0-0.9,1.4-1.4,3.2-1.5l4.7,0.1c2.3-0.1,6,0.5,7.5,0.2l6.9-0.3
			c2.4-0.1,6.7-0.5,12.8-0.3c0,0,6.4,0,12.1,0.1l3.5-0.1c0.9,0,2,0.7,2,1.7v3.1c-0.1,2.1,0.1,3.7,0.1,6.3l0.1,3.4l-0.2,2.1
			C101.5,81.3,99.2,82.3,98,82L98,82z M70.9,61.2l-10.5-0.2l-10.6,0.4c-0.4,0-5.5-0.2-5.9-0.1c-6.1,0.7-9.3,0.4-13,0l-6.8-0.1
			c-0.9,0-2.2-1-2.2-2.2v-3.5c0.6-3.4-0.1-5.9-0.1-9.2l0.1-2.2c0-0.9,1.4-1.4,3.2-1.5l4.7,0.1c2.3-0.1,6,0.5,7.5,0.2l6.9-0.3
			c2.4-0.1,6.7-0.5,12.8-0.3c0,0,6.4,0,12.1,0.1l3.5-0.1c0.9,0,2,0.7,2,1.7V47c-0.1,2.1,0.1,3.7,0.1,6.3l0.1,3.4l-0.2,2.1
			C74.4,60.4,72.2,61.4,70.9,61.2L70.9,61.2z M98,40.9l-10.5-0.2l-10.6,0.4c-0.4,0-5.5-0.2-5.9-0.1c-6.1,0.7-9.3,0.4-13,0l-6.8-0.1
			c-0.9,0-2.2-1-2.2-2.2l0.1-3.5c0.6-3.4-0.1-5.9-0.1-9.2l0.1-2.2c0-0.9,1.4-1.4,3.2-1.5l4.7,0.1c2.3-0.1,6,0.5,7.5,0.2l6.9-0.3
			c2.4-0.1,6.7-0.5,12.8-0.3c0,0,6.4,0,12.1,0.1l3.5-0.1c0.9,0,2,0.7,2,1.7v3.1c-0.1,2.1,0.1,3.7,0.1,6.3l0.1,3.4l-0.2,2.1
			C101.5,40.2,99.2,41.2,98,40.9L98,40.9z M70.9,20.1l-10.5-0.2l-10.6,0.4c-0.4,0-5.5-0.2-5.9-0.1c-6.1,0.7-9.3,0.4-13,0l-6.8-0.1
			c-0.9,0-2.2-1-2.2-2.2v-3.5c0.6-3.4-0.1-5.9-0.1-9.2l0.1-2.2c0-0.9,1.4-1.4,3.2-1.5l4.7,0.1c2.3-0.1,6,0.5,7.5,0.2l6.9-0.3
			c2.4-0.1,6.7-0.5,12.8-0.3c0,0,6.4,0,12.1,0.1l3.5-0.1c0.9,0,2,0.7,2,1.7V6c-0.1,2.1,0.1,3.7,0.1,6.3l0.1,3.4l-0.2,2.1
			C74.4,19.4,72.2,20.3,70.9,20.1L70.9,20.1z M98,124l-10.5-0.2l-10.6,0.4c-0.4,0-5.5-0.2-5.9-0.1c-6.1,0.7-9.3,0.4-13,0l-6.8-0.1
			c-0.9,0-2.2-1-2.2-2.2l0.1-3.5c0.6-3.4-0.1-5.9-0.1-9.2l0.1-2.2c0-0.9,1.4-1.4,3.2-1.5l4.7,0.1c2.3-0.1,6,0.5,7.5,0.2l6.9-0.3
			c2.4-0.1,6.7-0.5,12.8-0.3c0,0,6.4,0,12.1,0.1l3.5-0.1c0.9,0,2,0.7,2,1.7v3.1c-0.1,2.1,0.1,3.7,0.1,6.3l0.1,3.4l-0.2,2.1
			C101.5,123.2,99.2,124.2,98,124L98,124z M70.9,103.2l-10.5-0.2l-10.6,0.4c-0.4,0-5.5-0.2-5.9-0.1c-6.1,0.7-9.3,0.4-13,0l-6.8-0.1
			c-0.9,0-2.2-1-2.2-2.2v-3.5c0.6-3.4-0.1-5.9-0.1-9.2l0.1-2.2c0-0.9,1.4-1.4,3.2-1.5l4.7,0.1c2.3-0.1,6,0.5,7.5,0.2l6.9-0.2
			c2.4-0.1,6.7-0.5,12.8-0.3c0,0,6.4,0,12.1,0.1l3.5-0.1c0.9,0,2,0.7,2,1.7V89c-0.1,2.1,0.1,3.7,0.1,6.3l0.1,3.4l-0.2,2.1
			C74.4,102.4,72.2,103.4,70.9,103.2z M16.4,61.2c1.3,0.2,3.6-0.7,3.6-2.3l0.2-2.1l-0.1-3.4c0.1-2.6-0.1-4.2-0.1-6.3v-3.1
			c0-0.9-1.1-1.7-2-1.7l-3.5,0.1c-5.6-0.1-12.1-0.1-12.1-0.1H0.4v19.1L5.9,61L16.4,61.2L16.4,61.2z M20,85.8c0-0.9-1.1-1.7-2-1.7
			l-3.5,0.1c-5.6-0.1-12.1-0.1-12.1-0.1c-0.7,0-1.4-0.1-2.1-0.1v19.1l5.5-0.2l10.5,0.2c1.3,0.2,3.6-0.7,3.6-2.3l0.2-2.1l-0.1-3.4
			C20.1,92.7,20,91,20,89L20,85.8L20,85.8z M9.7,22.5c-1.5,0.2-5.2-0.2-7.5-0.2l-1.8-0.1v18.7L3.2,41c3.7,0.4,6.9,0.7,13,0
			c0.4-0.1,5.5,0.1,5.9,0.1l10.6-0.4L43.3,41c1.3,0.2,3.6-0.7,3.6-2.3l0.2-2.1l-0.1-3.4c0.1-2.6-0.1-4.2-0.1-6.3v-3.1
			c0-0.9-1.1-1.7-2-1.7l-3.5,0.1c-5.6-0.1-12.1-0.1-12.1-0.1c-6.1-0.2-10.4,0.2-12.8,0.3L9.7,22.5L9.7,22.5z M46.9,67.9v-3.1
			c0-0.9-1.1-1.7-2-1.7l-3.5,0.1C35.8,63,29.3,63,29.3,63c-6.1-0.2-10.4,0.2-12.8,0.3l-6.9,0.3c-1.5,0.2-5.2-0.2-7.5-0.2l-1.8-0.1
			V82l2.9,0.1c3.7,0.4,6.9,0.7,13,0c0.4-0.1,5.5,0.1,5.9,0.1l10.6-0.4l10.5,0.2c1.3,0.2,3.6-0.7,3.6-2.3l0.2-2.1l-0.1-3.4
			C46.9,71.6,46.8,70,46.9,67.9L46.9,67.9z M46.9,109.8v-3.1c0-0.9-1.1-1.7-2-1.7l-3.5,0.1c-5.6-0.1-12.1-0.1-12.1-0.1
			c-6.1-0.2-10.4,0.2-12.8,0.3l-6.9,0.3c-1.5,0.2-5.2-0.2-7.5-0.2l-1.8-0.1V124l2.9,0.1c3.7,0.4,6.9,0.7,13,0
			c0.4-0.1,5.5,0.1,5.9,0.1l10.6-0.4l10.5,0.2c1.3,0.2,3.6-0.7,3.6-2.3l0.2-2.1l-0.1-3.4C46.9,113.5,46.8,111.9,46.9,109.8
			L46.9,109.8z M0.3,20.1l5.5-0.2l10.5,0.2c1.3,0.2,3.6-0.7,3.6-2.3l0.2-2.1L20,12.3C20.1,9.6,20,8,20,6V2.8c0-0.9-1.1-1.7-2-1.7
			l-3.5,0.1C8.8,1.1,2.4,1.1,2.4,1.1C1.7,1.1,1,1,0.3,1C0.3,1,0.3,20.1,0.3,20.1z M106.2,40.9l6.8,0.1c3.6,0.4,6.5,0.4,12.3-0.3
			V22.2l-5.6-0.2c-1.5,0.2-4.9-0.1-7.2,0l-5.2,0.2c-1.7,0-3.2,0.6-3.2,1.5l-0.1,2.2c0,3.3-0.6,6.4,0.1,9.2l-0.1,3.5
			C104,39.9,105.2,40.9,106.2,40.9L106.2,40.9z M106.2,82L113,82c3.6,0.4,6.5,0.3,12.3-0.4V63.2l-5.7-0.2c-1.5,0.2-4.9-0.1-7.2,0
			l-5.2,0.2c-1.7,0.1-3.2,0.6-3.2,1.5l-0.1,2.2c0,3.3-0.6,6.4,0.1,9.2l-0.1,3.5C104,80.9,105.2,82,106.2,82L106.2,82z M76.6,14.3
			l-0.1,3.5c0,1.2,1.2,2.2,2.2,2.2l6.8,0.1c3.7,0.4,6.9,0.7,13,0c0.4-0.1,5.5,0.1,5.9,0.1l10.6-0.4l10.2,0.2V1.2h-1.6
			c-5.6-0.1-12.1-0.1-12.1-0.1c-6.1-0.2-10.4,0.2-12.8,0.3l-6.9,0.3c-1.5,0.2-5.2-0.2-7.5-0.2l-4.7-0.2c-1.7,0-3.2,0.6-3.2,1.5
			l-0.1,2.2C76.5,8.5,77.2,10.8,76.6,14.3L76.6,14.3z M76.6,55.4l-0.1,3.5c0,1.2,1.2,2.2,2.2,2.2l6.8,0.1c3.7,0.4,6.9,0.7,13,0
			c0.4-0.1,5.5,0.1,5.9,0.1l10.6-0.4l10.2,0.2V42.2l-1.6,0.1c-5.6-0.1-12.1-0.1-12.1-0.1c-6.1-0.2-10.4,0.2-12.8,0.3l-6.9,0.3
			c-1.5,0.2-5.2-0.2-7.5-0.2l-4.7-0.1c-1.7,0.1-3.2,0.6-3.2,1.5l-0.1,2.2C76.5,49.5,77.2,51.9,76.6,55.4L76.6,55.4z M125.3,105.2
			l-5.7-0.2c-1.5,0.2-4.9-0.1-7.2,0l-5.2,0.2c-1.7,0.1-3.2,0.6-3.2,1.5l-0.1,2.2c0,3.3-0.6,6.4,0.1,9.2l-0.1,3.5
			c0,1.2,1.2,2.2,2.2,2.2l6.8,0.1c3.6,0.4,6.5,0.3,12.3-0.4L125.3,105.2L125.3,105.2z M115,102.9l10.2,0.2V84.2l-1.6,0.1
			c-5.6-0.1-12.1-0.1-12.1-0.1c-6.1-0.2-10.4,0.2-12.8,0.3l-6.9,0.3c-1.5,0.2-5.2-0.2-7.5-0.2l-4.7-0.1C78,84.5,76.6,85,76.6,86
			l-0.1,2.2c0,3.3,0.7,5.7,0.1,9.2l-0.1,3.5c0,1.2,1.2,2.2,2.2,2.2l6.8,0.1c3.7,0.4,6.9,0.7,13,0c0.4-0.1,5.5,0.1,5.9,0.1L115,102.9
			L115,102.9z"/>
		<path id="SvgjsPath15561" class="st2" d="M21.9,14.3v3.5c0,1.2,1.2,2.2,2.2,2.2l6.8,0.1c3.7,0.4,6.9,0.7,13,0
			c0.4-0.1,5.5,0.1,5.9,0.1l10.6-0.4l10.5,0.2c0.8,0.1,2.1-0.2,2.8-0.9c-0.5,0-1.1-0.2-1.6-0.2c-0.9,0-3.9-0.7-5.8-1
			c-0.8-0.7-1.8-1.2-2.9-1.1c-0.8,0.1-1.4,0.5-2.4,0.6c-1.3,0.2-2.6-0.1-3.9-0.3c-1.4-0.2-2.6-0.5-4-0.5c-0.1,0-0.1,0.1,0,0.1
			c2.6,0.1,4.9,1.1,7.4,1.2c0.9,0,1.7-0.3,2.5-0.3c0.6,0,1,0.1,1.4,0.2c-4,0-13.9,0.6-15.3,1c-1.7,0.4-7.9,0.4-9.9-0.4
			c-2.1-0.9-12.7,0-13.6-0.1c-0.9-0.1-1.1-1.7-0.6-4.4c0.1-0.7,0.1-1.6,0.1-2.6c0.3,0.1,0.6,0.2,0.9,0.2c0.9,0,1.9-0.6,2.6-0.9
			c1.4-0.7,2.7-1.4,4.1-2.2c0.1-0.1,0-0.1-0.1-0.1c-1.6,0.8-3.1,1.5-4.8,2c-0.8,0.2-1.7,0.7-2.6,0.3c-0.1,0-0.1-0.1-0.2-0.1
			C24.8,8,24.2,5.1,24,3.7C24,3.3,24,2.8,24,2.5c2.4-0.9,5.1,0.6,7.6,0.9c2,0.2,3.9,0.1,5.9-0.2c0.1,0,0.1-0.2,0-0.2
			C36,3.1,34.4,3.2,32.8,3c-1.7-0.2-3.2-0.8-4.9-1.1c-1.2-0.2-2.4-0.4-3.6,0c0.1-0.2,0.1-0.4,0.2-0.5C23,1.5,21.9,2,21.9,2.8
			l-0.1,2.2C21.8,8.5,22.5,10.8,21.9,14.3z M66.4,39c-1.2-0.6-5.2,0.2-6.7,0.6c-1.4,0.4-5.5-0.4-7.2-1.1c1.4-0.1,2.9-0.3,4-1.1
			c0.1-0.1,0.1-0.2-0.1-0.2c-1.6,0.2-3.1,0.7-4.7,0.8c-0.9-1.1-0.7-4.5-0.6-6.2c0.2-1.8-0.8-4.6-1-6.6c-0.1-1.1-0.1-2.1,0.1-2.7
			c-0.7,0.2-1.1,0.6-1.1,1.1l-0.1,2.2c0,3.3,0.7,5.7,0.1,9.2l-0.1,3.5c0,1.2,1.2,2.2,2.2,2.2l6.8,0.1c3.7,0.4,6.9,0.7,13,0
			c0.4-0.1,5.5,0.1,5.9,0.1l10.6-0.4l10.5,0.2c0.9,0.2,2.4-0.3,3.1-1.2h-0.3c-1.4,0-2.2-0.6-3.4-1c-0.4-0.1-1.4-0.1-2.6,0.1
			c-1.1-1-2.6-1.4-4-1.2c-1.2,0.1-2.2,0.8-3.4,0.9c-1.2,0-2.1-0.4-3.4-0.2c-0.1,0-0.1,0.1,0,0.1c1.6,0,3.1,0.6,4.6,0.2
			c2.1-0.5,3.5-0.6,5.4,0.2c-2.3,0.4-5.1,0.9-6,0.7c-1.6-0.2-2.6,0.2-4.4,0.2c-1.8,0-12.4-0.2-13.7-0.4C68.6,39.4,67.6,39.6,66.4,39
			L66.4,39z M65.6,59.6c-0.2-0.1-0.8-0.1-1.6-0.1c0.1-0.3-0.1-0.7-0.3-0.9c-0.3-0.2-1-0.4-1.2,0.1c-0.1,0.1,0,0.3,0.2,0.3
			s0.4-0.1,0.6-0.1c0.2,0.1,0.4,0.3,0.3,0.6c-4.4-0.1-14.3,0.3-15.9,0.3c-1.9,0-10.4-0.2-15.4,0.4c-4.9,0.6-7.8-1.4-8.1-2.1
			c-0.1-0.1-0.1-0.2-0.1-0.5c0.9-0.2,1.8-0.2,2.7-0.1c1.3,0.1,2.6-0.3,3.9-0.2c0.5,0.1,0.9,0.4,1.4,0.2c0.6-0.1,1.2-0.7,1.7-1.1
			c0,0,0-0.1-0.1-0.1c-0.8,0.7-1.1,0.9-2.1,0.7c-0.2-0.1-0.3-0.3-0.5-0.3c-1.4-0.2-2.7,0.1-4.2-0.1c-1.1-0.1-2.1-0.2-2.9,0.1
			c-0.1-1.3-0.1-3.2-0.1-4.5c0-0.2,0-0.6-0.1-0.9c1.8,0.2,3.6-1.5,5.4-1.2c0.1,0,0.1-0.1,0-0.1c-1.1-0.3-2.1,0.1-3,0.4
			c0-0.1-0.1-0.1-0.1-0.1c-0.9-0.1-1.7,0-2.5-0.2c-0.2-1.6-0.7-3.5-0.7-4.8c0-1.1-0.4-1.7-0.8-2.2c-0.2,0.2-0.3,0.4-0.3,0.7
			l-0.1,2.2c0,3.3,0.7,5.7,0.1,9.2v3.5c0,1.2,1.2,2.2,2.2,2.2l6.8,0.1c3.7,0.4,6.9,0.7,13,0c0.4-0.1,5.5,0.1,5.9,0.1l10.6-0.4
			L70.8,61c1,0.2,2.6-0.4,3.2-1.3c-0.7,0.2-1.7,0.4-2.3,0.4C70.8,60.3,67.2,59.9,65.6,59.6L65.6,59.6z M74.2,81.4
			c-2.7-0.2-4.6-0.2-6.7-2c-0.1-0.1-0.2-0.1-0.2-0.2c0.6-0.1,1.3-0.1,2,0.1c0.6,0.2,1.2,0.5,1.9,0.6c1.7,0.2,3.5-0.3,5-1.1
			c0.2-0.1,0.1-0.5-0.2-0.4c-1.1,0.2-2.2,0.6-3.4,0.7c-1.4,0.2-2.2-0.3-3.4-0.7c0.4,0.1,0.7,0.2,1.1,0.3c0.1,0.1,0.4-0.1,0.2-0.2
			c-1.6-1.5-4.9-0.4-6.7,0.1c-3.4-0.1-7.7,0.7-8.7,1c-1.4,0.4-2.2,0.2-4.2-0.7c-2-0.9-0.4-2.6,0-5.9c0.1-0.4,0.1-0.6,0.1-0.9
			c1.9,1.8,4.5,2.5,7.1,1.9c1.2-0.3,2.1-0.9,3.5-0.9c1.2,0,2.2,0.5,3.4,0.8c1.6,0.5,2.7,0.7,4.3,0.4c0.1,0,0.1-0.1,0-0.1
			c-2.9,0.3-5.2-1.6-8.1-1.6c-1.1,0-2.1,0.4-3.2,0.6c-2.6,0.5-4.9-0.4-6.9-1.9c-0.1-1.5-0.6-1.4-1.2-3.2c-0.3-0.9-0.6-1.8-0.7-2.6
			l-0.1,1.5c0,3.3,0.7,5.7,0.1,9.2L49,79.6c0,1.2,1.2,2.2,2.2,2.2l6.8,0.1c3.7,0.4,6.9,0.7,13,0c0.4-0.1,5.5,0.1,5.9,0.1l10.6-0.4
			L98,81.9c0.7,0.1,1.6-0.1,2.4-0.6c-1.2-0.7-3.4-1.8-4.9-2.2c-2.2-0.6-4.2,0.4-7.1,0.6C85.4,80,77,81.5,74.2,81.4L74.2,81.4z
			 M65.4,78.6c0.7-0.1,1.3-0.2,2-0.3c-0.4,0.1-0.7,0.3-1.1,0.5L65.4,78.6z M73.5,102.5c-0.4-0.1-0.9-0.1-1.2-0.1
			c-0.9,0-2.2,0-4.1-0.4c-1.9-0.4-5.9-0.6-8.3-0.7c-2.4-0.1-10.2,0.9-11.6,0.8c-1.4-0.1-3.8-0.6-7.1-0.9c-3.2-0.4-10.9,0.6-12.2,0.8
			c-0.9,0.2-2.5-0.2-3.6-1.1c0.7,0.1,1.5,0.1,2.2,0c0.2,0,0.2-0.2,0.1-0.3c-0.9-0.3-1.9-0.3-2.9-0.2c-0.2-0.3-0.4-0.7-0.6-1.1
			c-0.4-1.9-0.1-2.8,0-4.9c1.1,1,2.6,1,4.2,0.9c2.2-0.1,3.7,0.7,5.6,1.4c1.8,0.7,3.6-0.2,5.4,0.4c0.1,0.1,0.2-0.2,0.1-0.2
			c-0.7-0.2-1-0.2-1.8-0.2c-1.2,0-2.2,0.4-3.5-0.2c-0.7-0.3-1.2-1-1.9-1.4c-2.4-1.2-6.4,0.9-8.1-1.8c-0.1-2.2-0.7-3.8-1.2-5.7
			c-0.2-1-0.4-1.9-0.4-2.7c-0.4,0.2-0.7,0.6-0.7,1l-0.1,2.2c0,3.3,0.7,5.7,0.1,9.2v3.5c0,1.2,1.2,2.2,2.2,2.2l6.8,0.1
			c3.7,0.4,6.9,0.7,13,0c0.4-0.1,5.5,0.1,5.9,0.1l10.6-0.4l10.5,0.2C71.6,103.3,72.7,103,73.5,102.5L73.5,102.5z M97.9,123
			c-1.4-0.1-6.1,0.3-9,0s-7.3-0.8-10.2-1s-11.1,0.4-11.1,0.4s-1.6-0.2-4.1-0.6c-2.5-0.3-10.7,0.4-11.8-1.2c-0.7-1-0.6-1.9-0.4-2.9
			l0.7,0.4c0.7,0.2,1.4,0.2,2.1,0.3c1.1,0.1,2,0.4,3,0.7c0.1,0.1,0.2-0.2,0.1-0.2c-0.8-0.6-1.6-0.9-2.6-1.1
			c-1.1-0.2-2.4-0.1-3.2-0.7c0.1-0.6,0.2-1.1,0.2-1.9c0.1-0.7,0-1.3-0.1-2c0.5,0.1,1.1,0.2,1.6,0.1c0.2,0,0.2-0.2,0.1-0.3
			c-0.5-0.1-1.1-0.2-1.7-0.2c-0.3-1.6-0.9-3.2-1.4-5.2c-0.2-0.8-0.3-1.4-0.4-1.8c-0.4,0.2-0.7,0.6-0.7,1l-0.1,2.2
			c0,3.3,0.7,5.7,0.1,9.2l-0.1,3.5c0,1.2,1.2,2.2,2.2,2.2l6.8,0.1c3.7,0.4,6.9,0.7,13,0c0.4-0.1,5.5,0.1,5.9,0.1l10.6-0.4l10.5,0.2
			c0.9,0.1,2.2-0.2,3-1C100.1,122.9,98.9,123.1,97.9,123L97.9,123z M124.2,18.9c-1.1-0.6-4.8-0.1-6.9,0c-2.1,0.1-10.4-0.1-11.7,0
			c-1.3,0.1-6.9-0.4-8.7-0.7c-1.8-0.3-8.9,0.1-11,0.4c-2.1,0.3-6.4-0.4-6.6-1.7c-0.1-1.2-0.1-2.2,0.1-4.8c0.1-0.3,0.1-0.6,0.1-0.9
			c0.6,0.4,1.6,0.3,2.1,0.2c0.6-0.1,1.2-0.2,1.8-0.4c2.1-0.4,3.2-0.1,5.1,0.4c3.5,0.9,7,0.9,10.6,0.6c0.1,0,0.1-0.1,0-0.1
			c-4.1,0.1-7.6-0.1-11.6-1.3c-2.8-0.9-5.2,0.3-8.1-0.2c-0.1-1.6-0.6-2.8-0.8-4.5c-0.2-1.6,0-3.4,0.4-4.6c-1.4,0.1-2.4,0.6-2.4,1.4
			l-0.1,2.2c0,3.3,0.7,5.7,0.1,9.2l-0.1,3.5c0,1.2,1.2,2.2,2.2,2.2l6.8,0.1c3.7,0.4,6.9,0.7,13,0c0.4-0.1,5.5,0.1,5.9,0.1l10.6-0.4
			l10.2,0.2v-0.8C124.9,19.3,124.5,19.1,124.2,18.9L124.2,18.9z M117.5,39c-1.2-0.5-5.9-0.1-8.2-0.3c0.3-0.1,0.6-0.1,0.9-0.2
			c0.7-0.2,1.7-0.4,2.2-1c0.1-0.1,0.1-0.3-0.1-0.3c-0.7,0.1-1.4,0.5-2.1,0.6c-0.8,0.2-1.6,0.2-2.4,0.4c-1.1-0.6-1.7-1.8-2.4-3.5
			c-0.6-1.3-0.2-2.1,0.1-3.1c1.1-0.1,2.3,0.4,3.4,0.3c1.7,0,3.2-0.4,4.9,0.3c0.1,0,0.1-0.1,0.1-0.1c-1.5-0.8-3-0.5-4.6-0.6
			c-1.3-0.1-2.4-0.6-3.6-0.5c0.1-0.4,0.1-0.7,0.1-1.2c-0.2-2-0.6-5.4-0.2-6.6c0.1-0.4,0.1-0.7,0-1.1c-0.9,0.2-1.4,0.7-1.4,1.2
			l-0.1,2.2c0,3.3-0.6,6.4,0.1,9.2l-0.1,3.5c0,1.2,1.2,2.2,2.2,2.2l6.8,0.1c3.6,0.6,6.5,0.6,12.3-0.1v-1.7c-1.1,0-1.6,0.6-2.6,0.7
			C121.5,39.7,118.9,39.6,117.5,39L117.5,39z M122.3,59.2c0-0.5-13.2,0.2-15.2,0s-2.8-0.2-4.1-0.5s-16.8,0.5-19.1,0.9
			c-2.3,0.4-4.8-0.9-5.3-1.9c-0.5-0.9,0.2-3.4,0.2-5.4c0.2,0.1,0.4,0.2,0.6,0.3c0.4,0.1,0.8,0.2,1.2,0.1c1.1-0.1,2.1-0.8,3.2-0.9
			c0.1,0,0.1-0.1,0-0.1c-1.1-0.1-2.1,0.2-3.2,0.4c-0.7,0.1-1.2-0.2-1.9-0.5v-0.1c-0.2-2.1-0.7-4.4-1.2-6.2c-0.2-0.8-0.4-1.5-0.7-2
			c-0.1,0.2-0.2,0.4-0.2,0.6l-0.1,2.2c0,3.3,0.7,5.7,0.1,9.2l-0.1,3.5c0,1.2,1.2,2.2,2.2,2.2l6.8,0.1c3.7,0.4,6.9,0.7,13,0
			c0.4-0.1,5.5,0.1,5.9,0.1l10.6-0.4l10.2,0.2V60H125C123.8,60.3,122.3,59.8,122.3,59.2L122.3,59.2z M122.4,79.4
			c-0.5-0.3-1.3-0.1-1.7,0.3c-0.1,0.1-0.1,0.2,0.1,0.2c-4.2,0.3-9.3,0.9-10.1,0.8c-1.3-0.2-4-1.8-4-4v-0.4c0.7,0.1,1.4,0.5,2,0.6
			c0.4,0.1,0.7,0.1,1.1-0.1c0.6-0.2,1.2-0.9,2.1-0.5c0.1,0.1,0.2-0.1,0.2-0.2c-0.7-1.2-2.1,0.1-3.1,0.1c-0.9,0.1-1.6-0.3-2.4-0.4
			c-0.2-1.4-1.1-1.7-1.7-3.6c-0.7-2.2,0.2-3.1,0.2-5.7c0-1.4-0.3-2.1-0.7-2.6c-0.2,0.2-0.4,0.4-0.4,0.7l-0.1,2.2
			c0,3.3-0.6,6.4,0.1,9.2l-0.1,3.5c0,1.2,1.2,2.2,2.2,2.2l6.8,0.1c3.6,0.4,6.5,0.3,12.3-0.4v-1.9c-0.6,0-1.5,0-2.4,0.1
			C122.7,79.7,122.6,79.5,122.4,79.4L122.4,79.4z M121.1,80c0.3-0.1,0.6-0.2,0.9-0.2c0.1,0,0.2,0.1,0.4,0.1
			C121.9,79.9,121.5,79.9,121.1,80L121.1,80z M115.3,101.7c-0.4-0.1-1.6-0.2-3.1-0.2c0-0.5,0-0.9-0.1-1.4c0-0.1-0.1-0.2-0.2-0.2
			c-1.6-0.3-3.7,0-4.9,1c-0.1,0.1,0,0.2,0.1,0.2c0.9-0.2,1.8-0.6,2.7-0.7c0.4-0.1,0.9-0.1,1.3,0c0.3-0.1,0.5,0.1,0.6,0.4
			c0.1,0.2,0.1,0.4,0.1,0.7c-3.6-0.1-8.7-0.1-9.6,0.1c-0.2,0.1-0.8,0.1-1.5,0.1c-0.5-0.1-1.1-0.1-1.5,0.1h-0.1
			c-2.8,0.1-6.6,0.2-7.3,0.1c-1.1-0.1-1.6-0.6-3.8-1.1c-2.2-0.5-7.5,0.2-8.7,0c-1.2-0.2-0.9-1.7-0.9-3.7c0-1.4,0.2-2.1,0.6-3.1
			c0.4,0.3,0.9,0.5,1.3,0.6s1.1,0,1.6-0.2c0.2,0.1,0.5,0.1,0.7,0.1c1.2,0.1,2.4-0.2,3.6-0.2c1.7,0.1,3.3,0.4,5,0.6
			c0.2,0,0.2-0.3,0.1-0.3c-2.1-0.6-4.2-1.1-6.4-0.9c-1.7,0.1-2.4,0.4-4.2-0.7c-0.4-0.2-0.8-0.6-1.2-0.9c0.1-1.8-0.9-2.8-1.3-4.1
			c-0.3-1.1-0.7-2-0.5-3.1c-0.7,0.2-1.2,0.6-1.2,1.2l-0.1,2.2c0,3.3,0.7,5.7,0.1,9.2l-0.1,3.5c0,1.2,1.2,2.2,2.2,2.2l6.8,0.1
			c3.7,0.4,6.9,0.7,13,0c0.4-0.1,5.5,0.1,5.9,0.1l10.6-0.4l10.2,0.3v-0.6c-0.4-0.1-0.8-0.2-1.1-0.3
			C123.1,101.7,116.7,102.1,115.3,101.7L115.3,101.7z M79.4,92.7c0.6,0.6,1.2,1.2,1.9,1.5c-0.3,0.1-0.6-0.1-0.9-0.1
			c-0.5-0.1-0.8-0.4-1.2-0.7C79.3,93.2,79.4,93,79.4,92.7L79.4,92.7z M120.9,122c-0.4-0.1-0.9-0.1-1.4-0.2c-0.6-0.1-1.1-0.4-1.5-0.7
			c-0.2-0.2-0.5,0.1-0.3,0.3c0.1,0.1,0.3,0.2,0.5,0.4c-2,0-4.3,0.7-5.9,0.8c-0.9,0.1-2.1-0.3-3-0.9c0.2-0.1,0.4-0.1,0.5-0.1
			c0.2-0.1,0.2-0.4-0.1-0.4c-0.4,0-0.7,0-1.1,0.1c-0.8-0.7-1.4-1.5-1.6-2.4c-0.4-2.1-0.9-1.2-1.6-3.8c-0.7-2.6-0.3-2.7,0.1-5.9
			c0.3-2.2-0.2-2.7-0.9-3.4c-0.4,0.2-0.7,0.6-0.7,1l-0.1,2.2c0,3.3-0.6,6.4,0.1,9.2l-0.1,3.5c0,1.2,1.2,2.2,2.2,2.2l6.8,0.1
			c3.6,0.4,6.5,0.3,12.3-0.4v-1c-1.6-0.1-3.1-0.2-4.2-0.4C121,122.1,121,122,120.9,122L120.9,122z M16.4,61.2
			c0.6,0.1,1.4-0.1,2.2-0.4c-1.1-0.1-2.5-0.4-3.9-0.6c0-0.1-0.1-0.1-0.1-0.1c-0.7-0.4-1.1-0.4-1.9-0.4c-1.6,0-2.7-0.8-4.1-1.2
			c-1.9-0.6-4-0.1-6-0.1c-0.2,0-0.3,0.4-0.1,0.4C4.8,59.1,7,58.3,9,59.3c0.3,0.2,0.6,0.4,1,0.6c-2.3,0.1-6.2,0.2-9.7,0.3v1L5.8,61
			L16.4,61.2L16.4,61.2z M16.2,82c0.4-0.1,5.5,0.1,5.9,0.1l10.6-0.4L43.2,82c0.7,0.1,1.7-0.1,2.4-0.6c-0.9-0.2-2.1-0.6-2.4-0.7
			c-0.4-0.1-2.7-0.6-4.8-0.7c-0.7-0.6-1.6-0.9-2.8-0.9c-2.5,0.1-4.6-1-7.2-0.8c-0.2,0-0.2,0.2,0,0.2c1.1,0.1,2.2,0.1,3.3,0.4
			c0.6,0.2,1.4,0.6,2.1,0.7c0.7,0.1,1.4-0.1,2.1,0c0.3,0,0.7,0.1,1,0.1c-0.6,0.1-1.2,0.2-1.6,0.4c-1.6,1.1-2.9,0.2-5.5,0.2
			s-9.5-0.4-9.5-0.4s-7.1,0.2-9.9,0.6c-0.7,0.1-1.7,0.1-3,0.2c0.2-0.2,0.3-0.4,0.5-0.5c1.6-1.4,2.8-1.5,4.9-1.4
			c3.1,0.2,5.6-1,8.7-1.3c0.1,0,0.1-0.1,0-0.1c-1.7,0.1-3.2,0.4-4.9,0.8c-2,0.6-3.9-0.1-5.9-0.1c-2.7,0-2.4,1-3.9,2.6
			c-2.1,0.1-4.6,0-6.6-0.1v1.1l2.9,0.1C6.9,82.4,10.1,82.8,16.2,82L16.2,82z M16.4,103.2c0.7,0.1,1.8-0.1,2.6-0.7
			c-0.9-0.1-2.6,0.2-3.4-0.1c-1.1-0.4-3.2-0.4-5.2-0.1c-1.2,0.2-6-0.1-10-0.4v1.3l5.5-0.2L16.4,103.2z M30.6,122.4
			c-0.4-0.1-0.9-0.1-1.6-0.1c-0.2-0.9-0.6-2-1.4-2.2c-0.3-0.1-0.6,0.1-0.9,0.1c-0.6,0.1-1.2,0-1.7-0.1c-0.8-0.2-1.6-0.4-2.4-0.4
			c-0.1,0-0.1,0.2,0,0.2c1.2,0.2,2.2,0.9,3.4,1c0.3,0.1,0.7-0.1,0.9-0.1c0.9,0.2,1.3,0.7,1.5,1.5c-3.6-0.2-9.6-0.5-12.2-0.5
			c-3.2,0-13,0.2-15.9,0.2v2l2.9,0.1c3.7,0.4,6.9,0.7,13,0c0.4-0.1,5.5,0.1,5.9,0.1l10.6-0.4l10.5,0.2c0.7,0.1,1.7-0.1,2.4-0.6
			c-1.2-0.1-3-0.1-3.8-0.1C40.6,123.3,33,122.6,30.6,122.4L30.6,122.4z M16.4,20.1c0.8,0.1,2-0.2,2.8-0.8c-0.9-0.2-2.1-0.4-3-0.6
			c-2.1-3.5-7.9-2.5-11.3-3.4c-0.1,0-0.1,0.1-0.1,0.1C6.4,16,8,15.9,9.7,16.3c1.7,0.4,4.4,0.8,5.7,2.2c-1.4-0.1-4.1,0.4-5.9-0.2
			C8.1,18,3.5,18,0.3,17.9v2.2l5.5-0.2L16.4,20.1L16.4,20.1z M16.2,40.9c0.4-0.1,5.5,0.1,5.9,0.1l10.6-0.4l10.5,0.2
			c0.6,0.1,1.2,0,1.9-0.3c-1.2-0.1-2.7-0.4-3.7-0.5c-1.6-0.2-4.6-0.8-6.7-1.2c-0.2-0.1-0.6-0.1-1.1-0.1c0.7-0.2,1.4-0.1,2.1-0.2
			c0.2,0,0.3-0.3,0.1-0.4c-0.6-0.2-1.3-0.2-1.9-0.1c-0.3,0.1-0.6,0.2-0.9,0.3c-0.2,0.1-0.4,0.2-0.6,0.4c-4.1,0.2-11.2,1.1-12.4,1.2
			c-1.6,0.2-11.6-0.2-13.6-0.8C5.5,39.1,4,39,2.3,38.9c2.7-1.2,6.1-0.1,9.1-0.2c2.6-0.1,5.2-0.5,7.7-1.4c0.1,0,0.1-0.2-0.1-0.1
			c-4.3,1.1-8.1,1.1-12.6,0.6c-2-0.2-3.4-0.2-5,1c-0.4,0.1-0.8,0-1.2,0v2.1L3.2,41C6.9,41.3,10.1,41.7,16.2,40.9L16.2,40.9z
			 M97.5,18.2c2.2-0.6,4.2-0.9,6.5-0.5c1.4,0.3,2.7,0.6,4.1,0.4c0.1,0,0.1-0.1,0-0.1c-2.1,0.2-4.1-0.7-6.2-0.9
			c-1.6-0.1-3.1,0.1-4.6,0.9C97.3,18.1,97.4,18.3,97.5,18.2z M34.8,7.6c0.6-0.3,1.1-0.4,1.7-0.5c0.1,0,0-0.1,0-0.1
			C36,7,35.3,7.2,34.8,7.6C34.7,7.5,34.8,7.6,34.8,7.6L34.8,7.6z M38.3,7.1C38.9,7,39.4,7,40.1,6.9c0.1,0,0.1-0.1,0-0.1
			C39.4,6.8,38.9,7,38.3,7.1C38.1,7,38.1,7.1,38.3,7.1z M57.7,31.8c0.3,0,0.3-0.5,0-0.5c-0.6,0-1.2,0.1-1.6,0.6
			c-0.1,0.1,0,0.3,0.2,0.2C56.8,32.1,57.2,31.8,57.7,31.8L57.7,31.8z M53.4,34.9c-0.1,0-0.2,0-0.2,0.1c-0.1,0.1-0.1,0.2,0,0.3
			c0.1,0.1,0.1,0.1,0.2,0.1C53.7,35.3,53.7,34.9,53.4,34.9L53.4,34.9z M75.9,35.9c0.1,0,0.1-0.1,0.1-0.1c0.1-0.1,0.1-0.1,0-0.2
			c-0.1,0-0.1-0.1-0.1-0.1C75.6,35.3,75.6,36.2,75.9,35.9L75.9,35.9z M81.5,36.8c0.1-0.1-0.1-0.2-0.2-0.1c-0.1,0.1-0.2,0.2-0.4,0.1
			s-0.4,0.2-0.2,0.3C81.1,37.1,81.4,37.1,81.5,36.8L81.5,36.8z M97.7,32.5c0.1-0.1,0.1-0.2,0-0.3s-0.2-0.1-0.3-0.1
			c-0.4-0.1-0.4,0.5,0,0.4C97.5,32.6,97.6,32.6,97.7,32.5L97.7,32.5z M115.3,37.2c0.1-0.1,0.1-0.2,0-0.2c-0.2-0.1-0.4-0.1-0.7-0.1
			c-0.2,0-0.2,0.4,0,0.4S115.2,37.2,115.3,37.2z M119.6,37.3c0.1,0,0.1-0.1,0-0.1c-0.4-0.1-0.9-0.1-1.3-0.1c-0.2,0-0.2,0.3,0,0.3
			C118.7,37.4,119.2,37.4,119.6,37.3z M14.2,15.1c1.6,0.6,2.9-0.8,4.3-1.4c0.1-0.1,0.1-0.2-0.1-0.2c-1.4,0.4-2.6,1.8-4.2,1.3
			C14.1,14.8,14,15,14.2,15.1z M17.8,9.8c0.2,0,0.2-0.3,0-0.3C17.6,9.5,17.6,9.8,17.8,9.8z M26.6,37.2c0.1,0,0.1-0.2,0-0.2
			C26.5,36.9,26.5,37.2,26.6,37.2z M34,36.9c0.2-0.1,0.6-0.2,0.8-0.4c0.1-0.1,0-0.1-0.1-0.1c-0.3,0.1-0.6,0.2-0.8,0.3
			C33.9,36.7,33.9,36.9,34,36.9z M24.8,30.9c-4.4-0.2-8.8-0.3-13.2-0.8c-3.2-0.3-4.8-1-7.7,0.7c-0.1,0.1,0,0.1,0.1,0.1
			c2.9-1.6,6.5-0.3,9.7-0.2c3.7,0.1,7.4,0.2,11.1,0.4C24.9,31.1,24.9,30.9,24.8,30.9L24.8,30.9z M34.3,27.7
			c-0.4-0.1-0.7-0.1-1.2-0.1c-0.2,0-0.2,0.4,0,0.4c0.4,0,0.8,0,1.2-0.1C34.4,27.8,34.4,27.7,34.3,27.7L34.3,27.7z M39.4,29.5
			c0.1,0,0.1-0.2,0-0.2C39.3,29.3,39.3,29.5,39.4,29.5z M28.5,32.3c0.1,0,0.1-0.1,0-0.1C28.3,32.1,28.3,32.3,28.5,32.3z M17.5,33.1
			c0.1,0,0.1-0.2,0-0.2C17.3,32.9,17.3,33.1,17.5,33.1z M35,51.4c0.1,0,0.1-0.1,0-0.1c-0.7-0.2-1.4-0.4-2.1-0.6
			c-0.2-0.1-0.2,0.2-0.1,0.2C33.5,51.2,34.2,51.4,35,51.4z M46.6,51.4c0.1-0.1,0.1-0.2-0.1-0.2c-0.6-0.1-1.1,0.1-1.6,0.2
			c-0.1,0.1-0.1,0.3,0.1,0.2C45.5,51.6,46.1,51.6,46.6,51.4z M53.8,52.4c0.1,0,0.1-0.2,0-0.2c-0.1,0-0.2,0-0.3-0.1
			c-0.2,0-0.2,0.3,0,0.3C53.6,52.4,53.6,52.4,53.8,52.4z M66.8,56.7c-0.2,0-0.2,0.3,0,0.3S67,56.7,66.8,56.7z M58.6,58.1
			c0.2,0,0.2-0.3,0-0.3c-0.3,0-0.7,0-1,0.1c-0.1,0-0.1,0.2,0,0.2C58,58.2,58.3,58.1,58.6,58.1z M86.5,51.6c-0.2-0.1-0.2,0.2-0.1,0.2
			c0.3,0.1,0.6,0.1,0.9,0.1c0.1,0,0.1-0.2,0.1-0.2C87,51.7,86.7,51.7,86.5,51.6z M81.1,58.7c-0.2,0-0.2,0.3,0,0.3
			c0.4,0,0.9,0.1,1.3-0.1c0.1,0,0.1-0.2,0-0.2C81.9,58.6,81.5,58.6,81.1,58.7z M95.4,56.7c-1.4-0.1-2.8,0.1-4.1,0.7
			c-0.2,0.1-0.1,0.5,0.1,0.4c3.1-1.3,6.4,0.1,9.6-0.2c0.2,0,0.3-0.4,0.1-0.4C99.2,56.7,97.2,56.7,95.4,56.7z M108.2,58.4
			c0.7,0.1,1.5,0.2,2.2,0.4c0.1,0,0.2-0.1,0.1-0.2c-0.7-0.4-1.6-0.5-2.4-0.5C107.9,58,107.9,58.4,108.2,58.4L108.2,58.4z
			 M121.2,54.2c0.1,0,0.1-0.2,0-0.2c-0.7-0.1-1.5-0.2-2.2-0.2c-0.1,0-0.1,0.2,0,0.2C119.7,54.1,120.5,54.1,121.2,54.2z M115.3,53.9
			h-0.7c-0.1,0-0.1,0.1,0,0.1L115.3,53.9C115.4,54,115.4,53.9,115.3,53.9z M109.1,53.9c-3.2,0.3-6.3,0-9.4-0.3
			c-0.2,0-0.2,0.2-0.1,0.3c3.1,0.7,6.4,0.6,9.5,0.3C109.3,54.1,109.3,53.9,109.1,53.9L109.1,53.9z M10.9,55.7
			c-0.1,0.1,0,0.2,0.1,0.2c0.5-0.2,1-0.3,1.6-0.3c0.1,0,0.1-0.1,0-0.1C12,55.2,11.4,55.4,10.9,55.7L10.9,55.7z M15,49.2
			c-0.1,0-0.1,0.1,0,0.1c0.9-0.1,1.7-0.1,2.6-0.1c0.1,0,0.1-0.2,0-0.2C16.8,49,15.8,49,15,49.2L15,49.2z M3.8,72
			c-0.1,0-0.1,0.2,0,0.2c0.7,0,1.4,0,2.1-0.1C6,72.1,6,72,5.9,72C5.2,71.9,4.5,72,3.8,72L3.8,72z M7.2,72.7c0.2,0.6,0.5,1.2,1,1.5
			c0.1,0.1,0.1-0.1,0.1-0.1c-0.4-0.4-0.7-0.9-0.9-1.5C7.3,72.5,7.1,72.6,7.2,72.7z M9.5,74c-0.1,0.1,0,0.2,0.1,0.2
			c2.3-1.1,4.3-1.5,6.8-1.6c0.1,0,0.1-0.2,0-0.2C14.2,72,11.5,72.7,9.5,74z M71.7,74.2c0.1,0,0.1-0.1,0-0.1h-0.3
			c-0.1,0-0.1,0.1,0,0.1H71.7z M79,78.5c0.6-0.2,1.2-0.1,1.9-0.1c0.1,0,0.2-0.2,0.1-0.2c-0.6-0.3-1.4-0.2-2.1,0.1
			C78.7,78.2,78.7,78.5,79,78.5L79,78.5z M84.5,79c0.2,0,0.2-0.2,0-0.2S84.3,79,84.5,79z M86.7,79.2c0.1,0,0.1-0.2,0-0.2
			C86.6,79,86.6,79.2,86.7,79.2z M88.4,70.5c1.9,0.2,3.7,1.1,5.6,0.6c0.2-0.1,0.2-0.4-0.1-0.4c-1.8,0.2-3.4-0.4-5.2-0.5
			c-1.9-0.1-3.7,0.7-5.6,0.3c-0.2-0.1-0.4,0.2-0.2,0.4C84.9,72.1,86.4,70.4,88.4,70.5z M78.6,70.9c-1.7,0.4-3.3,0.5-5,0.6
			c-0.1,0-0.1,0.2,0,0.2c1.7,0,3.4-0.2,5.1-0.6C78.7,71,78.7,70.8,78.6,70.9z M112.5,74.1c0.1,0,0.1-0.2,0-0.2
			C112.4,73.9,112.4,74.1,112.5,74.1z M112.9,71.7c-0.2,0-0.3,0.1-0.5,0.1c-0.1,0-0.1,0.2,0,0.2c0.2,0,0.3,0.1,0.5,0.1
			S113.1,71.7,112.9,71.7z M108.7,77.8c0.2,0,0.2-0.4,0-0.4S108.4,77.8,108.7,77.8z M107.5,74.5c-0.1,0-0.1,0.2,0,0.2
			C107.6,74.7,107.6,74.5,107.5,74.5z M114.7,77.2c0.1,0,0.1-0.2,0-0.2c-0.1-0.1-0.2-0.1-0.4-0.1c-0.2,0-0.2,0.3,0,0.3
			C114.5,77.2,114.6,77.2,114.7,77.2z M117.6,77.2c-0.1,0-0.1,0.2,0,0.2C117.7,77.4,117.7,77.2,117.6,77.2z M122.7,78.2
			c-0.2,0-0.2,0.4,0,0.4C122.9,78.6,122.9,78.2,122.7,78.2z M99.4,93.8c0.4,0.1,0.8,0.1,1.2,0.1c0.1,0,0.1-0.2,0-0.2
			c-0.4-0.1-0.7-0.2-1.2-0.2C99.3,93.5,99.3,93.8,99.4,93.8L99.4,93.8z M104.2,94.5c0.1-0.1,0-0.1-0.1-0.1c-0.3,0.1-0.6,0.2-0.9,0.1
			c-0.1,0-0.1,0.2,0,0.2C103.6,94.7,104,94.7,104.2,94.5z M106.7,94.4c-0.2,0-0.2,0.3,0,0.3S106.9,94.4,106.7,94.4z M41.9,95.7
			c0.1-0.1,0.2-0.1,0.3-0.2c0.1-0.1,0-0.2-0.1-0.2c-0.1,0.1-0.2,0.1-0.4,0.1C41.6,95.5,41.7,95.8,41.9,95.7L41.9,95.7z M47.2,94.5
			c-0.2,0-0.2,0.4,0,0.4C47.4,94.9,47.4,94.5,47.2,94.5z M63.9,118c-0.2,0-0.2,0.4,0,0.3c0.6-0.1,1.4-0.1,2-0.2
			c0.1-0.1,0.1-0.2-0.1-0.2C65.2,117.8,64.5,117.9,63.9,118L63.9,118z M75.4,121.3c-0.1,0.1-0.1,0.2,0,0.2c0.1,0.1,0.2,0.1,0.4,0.1
			c0.2,0,0.2-0.4,0-0.3C75.7,121.2,75.6,121.2,75.4,121.3z M79.2,121.1c0.1,0,0.1-0.2,0-0.2c-0.3-0.1-0.6-0.1-1-0.1
			c-0.2,0-0.2,0.2,0,0.2C78.6,121.2,78.9,121.2,79.2,121.1L79.2,121.1z M84.6,121c-0.2,0-0.2,0.3,0,0.3S84.8,121,84.6,121z
			 M113.8,122c0.5-0.1,1.1-0.1,1.5-0.4c0.1-0.1,0-0.1-0.1-0.1c-0.5-0.1-1.1,0.1-1.6,0.2C113.4,121.7,113.5,122.1,113.8,122
			L113.8,122z M12.9,118.7c-0.1,0-0.1,0.1,0,0.1c1.9-0.5,3.8-0.2,5.5,0.7c0.1,0.1,0.2-0.1,0.1-0.2C16.8,118.3,14.8,118,12.9,118.7z
			 M3.5,115.5c-0.2-0.1-0.4,0.4-0.1,0.4c1.8,0.4,3.8,0.5,5.6-0.3c0.2-0.1,0.1-0.4-0.1-0.3C7,115.5,5.3,115.8,3.5,115.5z M19.5,111
			c-0.3,0-0.7,0.1-1,0.1c-0.1,0.1-0.1,0.2,0.1,0.2l0.9-0.2C19.6,111.1,19.6,111,19.5,111L19.5,111z M27.6,111.8
			c-0.1,0.1-0.1,0.2,0.1,0.2c1.1-0.2,2.2-0.6,3.2-1.1c0.1-0.1,0-0.1-0.1-0.1C29.8,111.1,28.7,111.5,27.6,111.8z M34.5,110.6
			c-0.6-0.1-1.1-0.1-1.7-0.1c-0.2,0-0.2,0.2,0,0.2c0.6,0,1.1,0.1,1.7-0.1C34.6,110.8,34.6,110.7,34.5,110.6L34.5,110.6z M37.6,110.5
			h0.2c0.1,0,0.1-0.1,0-0.1L37.6,110.5C37.5,110.4,37.5,110.5,37.6,110.5z M40.2,114c0.2,0,0.2-0.2,0-0.2C40,113.7,40,114,40.2,114z
			 M34,118.1C34,118.1,34,118.1,34,118.1C34,118.1,34,118.1,34,118.1z M18.8,112.7c0.2,0,0.2-0.3,0-0.3
			C18.6,112.4,18.6,112.7,18.8,112.7z M10.5,97.3c0.2,0,0.2-0.3,0-0.3S10.3,97.3,10.5,97.3z M11.6,97c0.2,0,0.2-0.3,0-0.3
			C11.4,96.7,11.4,97,11.6,97z M6.8,99.2c0.2,0,0.2-0.3,0-0.3S6.7,99.2,6.8,99.2z M13.3,93.1c0.1,0,0.1-0.1,0.1-0.1
			c0.1-0.1,0.1-0.1,0-0.2c-0.1-0.1-0.1-0.1-0.1-0.1C13,92.6,13,93.3,13.3,93.1L13.3,93.1z"/>
		<path id="SvgjsPath15562" class="st0" d="M41.3,44.9c-2.1-1.1-3.5-0.4-5.7-0.4c-2.6,0-5-0.6-7.6-0.1c-0.1,0-0.1,0.2,0,0.2
			c1.2-0.1,2.4-0.2,3.7-0.1c1.2,0.1,2.3,0.7,3.4,0.8c2.1,0.2,3.9-0.9,6.1-0.2C41.3,45.1,41.3,44.9,41.3,44.9L41.3,44.9z M54.6,44.1
			c-3.6,0.4-7,0.7-10.6,0.7c-0.1,0-0.1,0.1,0,0.1C47.5,45,51.1,44.8,54.6,44.1C54.6,44.1,54.6,44.1,54.6,44.1L54.6,44.1z M62.4,43.3
			c-1-0.4-2.1-0.2-3,0.1c-0.1,0,0,0.1,0,0.1c1-0.4,1.9-0.3,3-0.1C62.4,43.4,62.5,43.4,62.4,43.3z M71.4,44.1
			c-0.9-0.6-1.9-0.5-2.9-0.4c-0.1,0-0.1,0.2,0,0.2c0.7,0,1.6,0,2.2,0.2c0.8,0.3,1.1,0.9,1.4,1.6c0.1,0.1,0.2,0.1,0.2,0
			C72.4,45.1,71.9,44.5,71.4,44.1L71.4,44.1z M73.4,48.9c0-0.1-0.2-0.1-0.2,0v0.7c0,0.1,0.1,0.1,0.2,0
			C73.4,49.4,73.4,49.2,73.4,48.9z M68.2,64.4c-3.4-0.3-6.9-0.1-10.4-0.1c-2.3,0.1-5.1-0.4-7.2,0.6c-0.1,0.1-0.1,0.3,0.1,0.2
			c2.6-1.1,6.2-0.3,8.9-0.3c2.9,0,5.7,0.1,8.6-0.1C68.4,64.7,68.4,64.4,68.2,64.4L68.2,64.4z M99.6,65.2c-3.9-0.7-7.9-0.8-11.8-1
			c-4.5-0.2-9-0.4-13.5,0.1c-0.1,0-0.1,0.2,0,0.2c4.3-0.4,8.6-0.4,12.9-0.1c4.1,0.3,8.2,1.1,12.4,1.1C99.7,65.5,99.7,65.3,99.6,65.2
			L99.6,65.2z M100.4,67C100.4,67,100.4,67,100.4,67C100.5,67,100.5,67,100.4,67z M100.5,67C100.5,66.9,100.5,66.9,100.5,67
			c0,2.5-0.2,5.1-0.2,7.6c0,0.1,0.1,0.1,0.1,0C100.8,72.1,100.7,69.5,100.5,67z M122.8,64.5c-1.6,0-3.2,0.2-4.7,0.1
			c-1.2-0.1-2.4-0.6-3.6-0.7c-2.4-0.1-4.6,0.3-7-0.1c-0.2-0.1-0.3,0.3-0.1,0.4c2.7,0.8,5.7,0.6,8.5,0.8c2.2,0.1,4.6-0.1,6.9-0.2
			C122.9,64.7,122.9,64.5,122.8,64.5L122.8,64.5z M100.3,43.7c-3.9,0.1-7.8,0.4-11.7,0.1c-3-0.2-6.4-1.6-9.3-0.5
			c-0.1,0.1-0.1,0.2,0.1,0.2c3.1-0.9,7.2,0.8,10.4,1c3.5,0.2,7.1-0.1,10.5-0.6C100.4,43.9,100.4,43.7,100.3,43.7L100.3,43.7z
			 M120.1,23.5c-1.9-1.2-4.4-0.1-6.6-0.4c-2.4-0.2-4.4-0.6-6.9,0c-0.2,0.1-0.1,0.3,0.1,0.3c2.4-0.4,4.4,0,6.7,0.3
			c2.1,0.2,4.6-0.7,6.6,0C120.2,23.8,120.2,23.6,120.1,23.5L120.1,23.5z M72.2,23.3c-6.9,0.9-13.7-0.4-20.6,0c-0.2,0-0.2,0.3,0,0.3
			c6.9,0.1,13.9,1.5,20.6-0.1C72.4,23.5,72.4,23.3,72.2,23.3z M97.3,23.1c-4.7,0.3-9.2-0.8-14-0.1c-0.1,0-0.1,0.2,0,0.2
			c3.2-0.4,5.9-0.1,9,0.3c1.5,0.2,7.4-0.3,7.4,1.7c0,0.2,0.2,0.2,0.3,0.1C100.5,23.4,98.9,23.1,97.3,23.1L97.3,23.1z M72.2,3.3
			c-2.4-1.8-5.7,0.6-8.3,0c-0.1,0-0.2,0.1-0.1,0.2c1.7,0.7,3.1,0.2,4.9-0.1c1.9-0.3,3.6,0.1,4.2,2.2c0.4,1.4,0.3,3,0.4,4.4
			c0,0.2,0.3,0.2,0.3,0C73.6,8,74.1,4.6,72.2,3.3L72.2,3.3z M58.6,2.7c-2.4,0-4.8-0.1-7.2-0.1c-0.1,0-0.1,0.1,0,0.1
			C53.9,2.9,56.3,2.8,58.6,2.7C58.8,2.8,58.8,2.7,58.6,2.7z M36.4,17.1c-1.5-0.3-3-0.4-4.5-0.3c-1,0.1-6.7,1.4-6-1.1
			c0.1-0.1-0.2-0.2-0.2-0.1c-0.6,1.2,0.3,2.2,1.5,2.4c0.9,0.1,1.9-0.2,2.8-0.4c2.1-0.4,4.2-0.4,6.4-0.3
			C36.5,17.3,36.5,17.1,36.4,17.1L36.4,17.1z M38.1,17.3c-0.2,0-0.2,0.4,0,0.4S38.4,17.3,38.1,17.3z M42.7,18.2
			c-1.2-0.3-2.6-0.5-3.8-0.6c-0.1,0-0.1,0.1,0,0.1c1.2,0.3,2.5,0.6,3.8,0.7C42.8,18.4,42.8,18.3,42.7,18.2z M82.4,17.7
			c-0.7-0.1-1.5-0.1-2-0.6c-0.6-0.6-0.4-1.5-0.2-2.2c0.2-0.8,0.4-1.6-0.1-2.4c-0.1-0.1-0.3,0-0.2,0.1c0.6,1.4-0.7,2.8-0.2,4.2
			c0.4,1.1,1.7,1.4,2.7,1.2C82.5,18.1,82.6,17.8,82.4,17.7z M90.5,12.4c-1.6-0.2-3.2-0.9-4.7-1c-1.7-0.1-4.4,1.4-5.9,0.3
			c-0.1-0.1-0.2,0.1-0.1,0.2c1,0.9,2,0.5,3.1,0.2c2.8-0.8,4.9,0.3,7.7,0.4C90.5,12.6,90.5,12.4,90.5,12.4z M79.4,2.3
			c0-0.1-0.2-0.2-0.2-0.1c-0.3,1.6-0.3,3.2,0.2,4.7c0.1,0.1,0.2,0.1,0.2-0.1C79.3,5.4,79.2,3.9,79.4,2.3L79.4,2.3z M18.9,2.9
			c-1.6-1.2-3.2-0.9-5.1-0.8C10.8,2.4,7.9,2.3,5,2C4.9,2,4.8,2.1,5,2.1c2.1,0.4,4.2,0.7,6.4,0.7c2.6,0,4.9-0.6,7.4,0.4
			C18.9,3.2,19,3,18.9,2.9z M19.2,6.7c-0.1-0.9,0.1-1.9-0.6-2.6c-0.1-0.1-0.2,0.1-0.1,0.1c0.7,1,0.5,2.9,0.6,4.1
			c0.1,1.1,0.1,2.2,0.2,3.3c0,0.1,0.1,0.1,0.1,0C19.5,10,19.3,8.3,19.2,6.7z M19.4,15.9c0-0.1-0.2-0.1-0.2,0c0.1,0.6,0,1.2-0.1,1.8
			c0,0.1,0.1,0.1,0.1,0C19.5,17.1,19.5,16.5,19.4,15.9z M46.2,26c-0.1-1.4-0.6-2.6-2.1-2.2c-0.1,0-0.1,0.2,0,0.2
			c2.4,0.7,1.2,5.9,1.4,7.6c0.1,1.7,0.4,3.2,1.1,4.7c0.1,0.1,0.1,0,0.1-0.1C45.3,32.8,46.3,29.5,46.2,26L46.2,26z M43.3,23.6
			c-1.3,0.1-2.6,0-3.9-0.1c-0.1,0-0.1,0.2,0,0.2c1.3,0.2,2.6,0.2,3.9,0C43.4,23.8,43.4,23.6,43.3,23.6z M21.1,22.8
			c-2.1-0.5-4.2-0.2-6.4,0c-2.6,0.2-5.2,0.4-7.8,0.7c-0.1,0-0.1,0.2,0,0.2c4.6-0.1,9.7-1.6,14.2-0.7C21.3,23.1,21.3,22.8,21.1,22.8z
			 M11.4,29.3C9.6,30,7.8,28.6,6,29.1c-0.1,0-0.1,0.1,0.1,0.1c1.8-0.5,3.7,1.2,5.5,0.2C11.6,29.3,11.5,29.2,11.4,29.3z M15.7,43.5
			c-4.2,0.2-7.7,0.8-11.8-0.7c-0.1-0.1-0.2,0.2-0.1,0.2c1.7,0.7,3.6,1.2,5.5,1.4c1.7,0.1,8.2-1.1,9,1.1c0.1,0.1,0.3,0.1,0.3-0.1
			C18.6,43.7,17.2,43.4,15.7,43.5L15.7,43.5z M19.4,49.7c0-0.2-0.2-0.2-0.2,0c0,0.6-0.1,1.3,0,1.9c0,0.1,0.2,0.1,0.2,0
			C19.5,51,19.4,50.3,19.4,49.7z M33.7,65c-4.1-1.1-8.3-0.9-12.4-0.9c-0.1,0-0.1,0.1,0,0.1c4.2,0,8.2,0.2,12.4,0.9
			C33.8,65.3,33.8,65.1,33.7,65L33.7,65z M34.2,80.2c-4.8,0.3-9.7-0.7-14.5-0.8c-0.1,0-0.1,0.2,0,0.2c4.6,0.6,10,1.7,14.6,0.8
			C34.3,80.3,34.3,80.2,34.2,80.2z M45.5,68.1c0.1-1.4,0.7-3-1.1-3.3c-0.2-0.1-0.3,0.2-0.1,0.3c1.4,0.9,0.6,5.6,0.7,7.2
			c0.2,2.1,0.6,4.2,1,6.3c0,0.1,0.1,0.1,0.1,0C45.7,75.1,45.2,71.6,45.5,68.1z M66.3,73.2c-2.3-2.1-4.7-2.1-7.5-1.1
			c-0.2,0.1-0.1,0.4,0.1,0.2c1.4-0.4,2.7-0.9,4.2-0.6c1.1,0.2,2.1,1.1,3.1,1.6C66.3,73.4,66.4,73.3,66.3,73.2L66.3,73.2z M75.9,75.9
			c-0.3-0.6-1-0.7-1.6-0.6c-0.4,0.1-0.9,0.4-1.2,0.6c-0.9,0.4-1.6,0.7-2.6,0.7c-0.2,0-0.2,0.3,0,0.3c0.7,0,1.4-0.1,2.1-0.4
			c1.1-0.4,2.1-1.4,3.1-0.4C75.8,76.2,75.9,76,75.9,75.9L75.9,75.9z M99.2,85.7c-3.5-0.2-6.6,1.7-10,1.2c-3.4-0.6-6.6-1.2-10.1-1.5
			c-0.2,0-0.2,0.2-0.1,0.3c3.7,0.6,7.6,1.8,11.3,2.1c0.8,0.1,1.5-0.1,2.2-0.2c2.2-0.7,4.1-1.3,6.5-1.4C99.5,86,99.5,85.7,99.2,85.7
			L99.2,85.7z M118.2,84.8c-3.8,0-8.6-0.2-12.2,0.9c-0.1,0.1-0.1,0.2,0.1,0.2c3.8-1.2,8.2-0.6,12.2-1
			C118.3,85,118.3,84.8,118.2,84.8L118.2,84.8z M80.1,100.2c-0.5,0-0.7-0.2-0.7-0.6c0-0.2-0.1-0.3-0.1-0.5c-0.1-0.2-0.1-0.6-0.1-0.8
			c-0.1-0.6-0.1-1.1-0.1-1.7c0-0.1-0.2-0.1-0.2,0c-0.1,0.7-0.1,1.5,0,2.2c0.1,0.4,0,1.1,0.3,1.5c0.2,0.4,0.9,0.4,1-0.1
			C80.2,100.2,80.1,100.1,80.1,100.2z M103,99.7c-1.8,0.2-3.6,0.6-5.4,0.9c-2.2,0.4-4.1,0.2-6.4-0.1c-0.1,0-0.2,0.2-0.1,0.2
			c1.6,0.2,3.2,0.7,4.7,0.6c2.3-0.2,4.8-0.7,7.1-1.4C103.2,99.8,103.2,99.7,103,99.7z M44.2,85.4c-3.5-0.1-6.7,1.1-10.2,0.1
			c-3.1-0.9-6.1-0.6-9.2-0.4c-0.1,0-0.1,0.1,0,0.1c2-0.1,4.1-0.2,6.1-0.1c1.9,0.1,3.3,1.2,5.1,1.5c2.4,0.4,5.9-0.4,8.3-1
			C44.4,85.7,44.3,85.4,44.2,85.4L44.2,85.4z M72.7,85.4c-4.2-0.4-8.4-0.4-12.6-0.6c-3.8-0.2-7.2,0.6-11,0.6c-0.1,0-0.1,0.2,0,0.2
			c3.7-0.1,7.2-0.7,11-0.5c4.2,0.2,8.4,0.7,12.6,0.8C73,85.9,73,85.5,72.7,85.4z M73.7,91.7c-0.1-0.1-0.2-0.2-0.2-0.3
			c-0.2-0.5-0.2-0.9-0.1-1.4c0.2-1.1,0.3-2-0.3-3.1c-0.1-0.2-0.4,0-0.3,0.2c0.4,0.7,0.5,1.5,0.2,2.2c-0.1,0.4-0.5,0.9-0.6,1.3
			c-0.1,0.7,0.9,1.1,0.8,1.9c0,0.2,0.2,0.2,0.3,0.1C73.9,92.2,73.9,92,73.7,91.7L73.7,91.7z M73.9,94.5c0-0.2-0.2-0.2-0.2,0
			c0,0.7-0.1,1.4,0.1,2.1c0,0.1,0.2,0.1,0.2,0C73.9,95.9,73.9,95.2,73.9,94.5z M38.4,96c-1.7-0.2-1.4-0.5-3.1-1.8
			c-0.1-0.1-0.3-0.5-0.5-0.7c-2.1-1.7-8.1,1.5-9.7-1.1c-0.1-0.1-0.2,0-0.2,0.1c1.6,3.1,6.2-0.1,8.8,1.2c1.3,0.7,0.6,1.5,1.7,2.2
			c0.7,0.5,2.2,0.2,3,0.2C38.6,96.2,38.6,96,38.4,96z M44.8,97c-1-0.1-2,0.1-3,0.1c-0.2,0-0.2,0.2,0,0.2c1-0.1,2.1-0.1,3-0.2
			C44.9,97,44.8,97,44.8,97z M58.1,91.5c-1-0.1-2-0.1-3-0.1c-0.2,0-0.2,0.2,0,0.2c1,0,2,0.1,3-0.1C58.2,91.7,58.2,91.5,58.1,91.5
			L58.1,91.5z M14.5,86c-2.1-0.7-3.9-0.4-6-0.2c-2.5,0.1-4.9-0.2-7.2-1C1.2,84.7,1,85,1.2,85C5.6,87,9.8,86,14.5,86.3
			C14.6,86.3,14.6,86.1,14.5,86z M17.2,86c-0.1,0-0.2,0.2-0.1,0.2c0.9,0.1,1.4,0.9,1.6,1.7c0,0.1,0.1,0.1,0.1,0
			C19.1,87,18.1,86,17.2,86z M19.2,90.2c0-0.1-0.2-0.1-0.2,0c-0.1,0.9-0.2,2-0.1,2.9c0,0.1,0.2,0.1,0.2,0
			C19.5,92.2,19.3,91.2,19.2,90.2z M45.2,108.2c-0.1-0.2-0.4-0.2-0.4,0.1c-0.2,2.7,0.1,5.6,0.1,8.3c0,1.1,0.4,3,0.1,4
			c-0.7,1.9-2.7,1.6-4.2,1.7c-0.1,0-0.1,0.2,0,0.2c2.5-0.1,4.7,0.7,4.9-1.9C45.8,116.5,45.9,112,45.2,108.2z M44.7,105.9
			c-1.6-0.4-3.3,0-4.9,0.1c-1.7,0.2-3.4,0.4-5.2,0.7c-0.1,0.1-0.1,0.2,0.1,0.2c3.3-0.1,6.7-0.9,10-0.8
			C44.8,106.2,44.8,106,44.7,105.9z M29.6,106c-3.4-0.6-6.9-0.8-10.2-0.5c-3.8,0.4-7.4,1.5-11.2,1.4c-0.1,0-0.1,0.1,0,0.2
			c3,0.3,5.9-0.3,8.9-0.7c4.2-0.6,8.2-0.7,12.5-0.1C29.7,106.3,29.8,106,29.6,106L29.6,106z M33.8,112.6c-1.2,0.1-2.3,0.4-3.5,0.6
			c-0.1,0.1-0.1,0.2,0.1,0.2c1.1-0.2,2.3-0.4,3.4-0.7C33.9,112.7,33.8,112.6,33.8,112.6L33.8,112.6z M58.3,118.6
			c-1-1.6-3.1-2.2-4.9-1.7c-0.2,0.1-0.1,0.3,0.1,0.3c1.8-0.2,3.3,0.3,4.6,1.6C58.2,118.8,58.3,118.7,58.3,118.6z M65.4,119.6
			c-0.9-0.1-1.9,0.2-2.7,0.3c-0.2,0-0.1,0.4,0.1,0.3c0.9-0.1,1.9-0.1,2.7-0.4C65.6,119.8,65.6,119.6,65.4,119.6z M69.9,119.5
			c-0.1,0.1-0.3,0.1-0.4,0.1c-0.1,0.1-0.1,0.2,0.1,0.2c0.1-0.1,0.3-0.1,0.4-0.2C70.1,119.5,70,119.4,69.9,119.5z M80.6,117
			c-0.8-0.6-1.9-0.6-2.8-0.4c-0.2,0.1-0.1,0.4,0.1,0.3c0.9-0.2,1.8-0.1,2.7,0.2C80.6,117.1,80.7,117,80.6,117z M85.2,118
			c-0.4,0-0.9,0-1.4-0.1c-0.1,0-0.1,0.2,0,0.2C84.2,118.1,84.7,118.1,85.2,118C85.3,118,85.3,118,85.2,118L85.2,118z M90.2,118.2
			c-0.4,0.1-0.6,0.1-1,0.1c-0.2-0.1-0.3,0.2-0.1,0.3c0.4,0.1,0.8,0.1,1.2-0.1C90.4,118.3,90.3,118.2,90.2,118.2L90.2,118.2z
			 M93.4,113.1c-0.2,0-0.2,0.3,0,0.3S93.5,113.1,93.4,113.1z M53.1,106.4c-0.7-0.5-1.5-0.6-2.4-0.4c-0.2,0-0.1,0.2,0.1,0.2
			c0.7-0.1,1.5,0.1,2.2,0.3C53.1,106.6,53.2,106.5,53.1,106.4L53.1,106.4z M83.1,106.3c-1.7-0.6-3.2-0.2-5.1,0.1
			c-2.7,0.5-5.2,0.4-8,0.4c-2.1,0.1-4,0.9-6.1,0.8c-2.1-0.1-3.9-0.6-5.9-0.2c-0.1,0-0.1,0.2,0,0.2c2-0.1,3.9,0.4,5.9,0.5
			c2,0.1,3.6-0.6,5.6-0.7c2.2-0.2,4.4,0.2,6.7-0.1c2.3-0.4,4.4-1,6.8-0.6C83.3,106.9,83.4,106.5,83.1,106.3z M99,106.2
			c-2.2-0.6-4.4-0.2-6.6,0c-2,0.2-3.9-0.5-5.8,0.2c-0.1,0.1-0.1,0.3,0.1,0.2c2-0.5,4.1,0.1,6.1,0.1c2.1-0.1,4.1-0.1,6.2,0
			C99.2,106.7,99.2,106.3,99,106.2z M99.6,107.2c-0.1-0.1-0.3,0.1-0.2,0.2c0.2,0.3,0.4,0.6,0.5,0.9c0.1,0.3,0.1,0.6,0.2,1
			c0.1,0.1,0.2,0.1,0.2,0C100.5,108.5,100.1,107.7,99.6,107.2L99.6,107.2z M106.4,106.9c-0.3,1.7-0.5,3.4-0.1,5.1
			c0,0.1,0.2,0.1,0.2-0.1c0.1-1.7,0-3.3,0.2-4.9C106.7,106.8,106.4,106.7,106.4,106.9L106.4,106.9z M106.7,114.2
			c0-0.2-0.2-0.2-0.2,0c-0.1,0.6,0.2,1.2,0.5,1.7c0.4,0.7,0.7,1.2,0.7,2.1c0,0.1,0.1,0.1,0.2,0.1
			C108.7,116.8,106.7,115.5,106.7,114.2L106.7,114.2z M119.2,106.6c-2.1-0.2-4.2,0-6.4-0.4c-0.2-0.1-0.2,0.2-0.1,0.3
			c2.1,0.4,4.4,0.9,6.6,0.5C119.5,107,119.3,106.7,119.2,106.6L119.2,106.6z"/>
	</g>
	<g id="svga-group-humanwrap-move" transform="matrix(1,0,0,1,0,0)">
		<g id="svga-group-humanwrap">
			<g id="svga-group-humanbody-back">
				<path id="SvgjsPath15197" class="st3" d="M104.4,113.2c-6.8-4.1-17.2-5.2-21.9-7.6c-3.1-1.6-5.7-2.9-5.6-11.1
					c0.1-8.2,1.2-26.5,1.2-26.5H47.4c0,0,1,18.4,1.2,26.5s-2.6,9.7-5.6,11.1c-4.6,2.2-15.1,3.4-21.9,7.6C14.5,117.3,15,125,15,125
					v12.3h95.8V125C110.7,125,111.2,117.3,104.4,113.2L104.4,113.2z"/>
			</g>
			<g id="svga-group-chinshadow-single">
				<path id="SvgjsPath15193" class="st4" d="M48.6,97.5c4.3,5.2,8.3,9.6,10.7,9.2c0,0,2.7-0.6,3.5-0.6c0.7,0,3.5,0.6,3.5,0.6
					c2.4,0.4,6.4-4.1,10.7-9.2c-0.1-0.9-0.1-1.9-0.1-3c0.1-8.2,1.2-26.5,1.2-26.5H47.4c0,0,1,18.4,1.2,26.5
					C48.6,95.6,48.6,96.6,48.6,97.5L48.6,97.5z"/>
			</g>
			<g id="svga-group-humanbody-front">
				<path id="SvgjsPath15198" class="st5" d="M49.5,98c0.3,3,1.1,5.9,1.9,8.7c0.5,1.4,1,2.9,1.6,4.3c0.5,1.2,1.1,2.6,1.9,3.7
					c0.2,0.2,0.6,0,0.6-0.3c-0.3-1.4-1-2.7-1.5-4c-0.6-1.4-1.1-2.7-1.6-4.1c-0.9-2.7-1.7-5.6-2.6-8.3C49.8,97.7,49.4,97.8,49.5,98
					L49.5,98z M75.3,97.4c-0.8,5.1-2.4,10.1-3.4,15.1c-0.1,0.2,0.2,0.3,0.4,0.1c1.9-4.8,2.6-10.1,3.2-15.2
					C75.4,97.3,75.3,97.3,75.3,97.4L75.3,97.4z M59.2,104.8c-0.6,2.2,1.2,5.4,3.9,4.7c0.3-0.1,0.2-0.5,0-0.6
					c-0.9-0.3-1.8-0.6-2.4-1.3c-0.7-0.7-0.9-1.8-0.9-2.8C59.8,104.6,59.3,104.5,59.2,104.8L59.2,104.8z"/>
				<path id="SvgjsPath15199" class="st6" d="M111.1,137.3c-0.1-4.1-0.2-8.2-0.2-12.3l-0.2-0.2c0.1,0,0.1,0,0.1,0.1
					c0.1,0.1,0.1,0.1,0.1,0.1v-0.9c0-0.3-0.1-0.6-0.1-0.9c-0.1-0.6-0.2-1.2-0.3-1.7c-0.3-1.1-0.7-2.2-1.2-3.3
					c-1.1-2.1-2.7-3.9-4.8-5.1c-2.2-1.4-4.7-2.4-7.2-3.2c-2.5-0.8-5.1-1.5-7.6-2.2c-2.5-0.7-5.1-1.4-7.4-2.6c-1.2-0.6-2.2-1.3-3-2.2
					c-0.7-1-1.2-2.2-1.4-3.4c-0.5-2.5-0.2-5.1-0.2-7.7l0.4-7.9L79.1,68l0.1-0.9h-0.9c-5.1,0-10.2,0-15.4,0.1l-15.4,0.2h-0.6L47,68
					c0.5,7.4,1,14.9,1.3,22.3c0.1,1.9,0.2,3.7,0.1,5.6c-0.1,1.8-0.2,3.7-1,5.4c-0.4,0.8-0.9,1.6-1.5,2.2c-0.6,0.6-1.4,1.1-2.2,1.5
					c-1.6,0.8-3.4,1.4-5.2,1.9c-3.6,0.9-7.2,1.7-10.8,2.9c-1.7,0.6-3.6,1.2-5.2,2.1c-0.8,0.4-1.7,0.9-2.5,1.5
					c-0.8,0.6-1.5,1.2-2.2,1.9c-1.3,1.4-2.2,3.2-2.8,5.1c-0.3,0.9-0.5,1.9-0.6,2.9c-0.1,0.5-0.1,1-0.1,1.5v1.4l-0.1,11.2v0.8H15
					l23.9,0.1c8,0.1,15.9,0.1,23.9,0s16-0.1,23.9-0.2c8-0.1,16-0.3,23.9-0.4h0.4L111.1,137.3L111.1,137.3z M62.9,136.3H38.9
					l-23.1,0.1l-0.1-10.4v-1.4c0-0.4,0-0.9,0.1-1.3c0.1-0.9,0.2-1.7,0.5-2.6c0.5-1.7,1.3-3.3,2.4-4.7c0.6-0.7,1.2-1.3,1.9-1.8
					c0.7-0.6,1.5-1,2.3-1.4c1.6-0.9,3.3-1.6,5.1-2.2c3.5-1.2,7.1-2.1,10.7-3.2c1.8-0.5,3.6-1.1,5.3-1.9c0.8-0.4,1.7-0.9,2.4-1.6
					c0.7-0.7,1.2-1.5,1.6-2.4c0.7-1.8,0.9-3.7,1-5.6c0-1.9-0.1-3.7-0.1-5.6l-0.8-21.7l14.7,0.2c4.8,0.1,9.6,0.1,14.4,0.1
					c-0.2,4.9-0.5,9.9-0.7,14.9c-0.1,2.6-0.1,5.2-0.2,7.9c0,2.6-0.1,5.3,0.5,8c0.3,1.3,0.8,2.6,1.7,3.7c0.9,1.1,2.1,1.8,3.3,2.4
					c2.4,1.2,5,1.7,7.6,2.4s5.1,1.2,7.6,2.1s4.9,1.7,7.2,3.1c2,1.2,3.6,2.9,4.7,5c0.6,1,0.9,2.1,1.2,3.2c0.1,0.6,0.2,1.1,0.2,1.7
					c0.1,0.3,0.1,0.6,0.1,0.9v0.9l-0.2,11.9c-7.9-0.1-15.7-0.3-23.6-0.4C78.8,136.4,70.8,136.4,62.9,136.3L62.9,136.3z"/>
			</g>
			<g id="svga-group-clothes-single">
				<path id="SvgjsPath15678" class="st7" d="M63.3,115.3c-0.7-1.9-5.1-4.9-8.2-6.6c-3.1-1.7-4.4-3.1-6.2-5.5
					c-1.1-2.2-0.6-5.6-0.6-5.6c-0.1-2.9-0.4-5.9-0.6-9.2c-5.1-0.7-8.2,2.3-8.7,2.9c-4.1,3.9-1.9,5.3-3.6,7.2
					c-5.7,1.3-4.4,8.9-6.7,9.4c-5.4,1.2-13.2,4.4-15.1,13.1c0,0-1,5.7-1,16.7h100.4c0-10.9-1-16.7-1-16.7c-2-9.5-11-11.9-16.3-13.4
					c-0.9-0.4,0.1-3.2-1.6-6.6c-0.9-1.7-2.4-4.1-5.8-4.9c0,0-0.7-4.1-3.4-6.2c-2.6-2.1-7-1.6-7-1.6s-0.2,8.8-0.2,10.1
					c0,2-0.1,3.1-1,4.1c-0.9,1.1-2.7,2.4-4.3,4.7s-6.3,4.7-7.3,5.6C64.2,113.8,63.3,115.3,63.3,115.3L63.3,115.3z"/>
				<path id="SvgjsPath15679" class="st8" d="M66.3,117.1c-0.4,0.4-1.1,2.1-1.1,3.6c-0.1,1.4,1.1,7.2,1.3,8.4
					c0.2,1.2-0.6,4.6-0.6,5.3c0,0.7,1.7,1.7,1.9,1.1c0.2-0.7,0.7-5.2,0.1-6.8s-1.4-6.3-1.4-7.2c0-0.9,0.7-3.5,1-4.1
					c0,0,0.1-0.5-0.4-0.6C66.7,116.7,66.3,117.1,66.3,117.1L66.3,117.1z"/>
				<path id="SvgjsPath15680" class="st8" d="M60.1,116.8l0.1-0.1c0,0,1.1-0.8,1.2,0.6c0,0-0.7,1.7-0.7,3s1.4,7.4,1.6,8.8
					c0.2,1.4-1.7,6.5-1.9,6.6c-0.2,0.1-1.3-0.6-1.6-0.8c-0.2-0.2,1.6-4.3,1.7-6.2c0.2-1.8-0.2-5.4-0.7-7.6
					C59.1,118.8,59.8,117.3,60.1,116.8L60.1,116.8L60.1,116.8z"/>
				<path id="SvgjsPath15681" class="st9" d="M113.7,127.7c-0.1-1.6-0.2-3.2-0.4-4.9l-0.1-1.2l-0.1-0.6v-0.2c0-0.1,0-0.1-0.1-0.2
					l-0.1-0.3c-0.2-0.9-0.4-1.7-0.7-2.5c-0.7-1.6-1.6-3.1-2.7-4.4c-1.2-1.3-2.6-2.4-4.1-3.2c-2.9-1.7-6-2.6-9.1-3.4v-0.1
					c-0.1-0.2-0.1-0.6-0.1-0.9c-0.1-0.6-0.1-1.2-0.2-1.9c-0.2-1.3-0.7-2.6-1.3-3.7c-0.6-1.1-1.5-2.2-2.6-3.1c-0.9-0.7-2-1.2-3.1-1.6
					c-0.2-0.9-0.5-1.7-0.9-2.6c-0.4-1-1-1.9-1.8-2.7c-0.8-0.9-2.1-1.6-3.1-1.9c-3.2-0.7-5.4-0.2-5.4-0.2s-0.7,6-1.8,14.1
					c0,0-2.4,3.1-3.3,4.2c-0.2,0.2-0.4,0.6-0.7,0.9c-0.1,0.1-0.2,0.2-0.3,0.4l-0.4,0.4c-0.5,0.5-1.1,0.9-1.6,1.4
					c-1.1,0.9-2.4,1.7-3.6,2.5c-0.3,0.2-0.6,0.4-0.9,0.7c-0.3,0.2-0.5,0.6-0.7,0.8c-0.2,0.3-0.4,0.6-0.6,0.9l-0.3,0.5l-0.1,0.2
					l-0.1,0.1l-0.1-0.2l-0.2-0.4c-0.1-0.2-0.3-0.4-0.5-0.6l-1.1-1.1c-0.8-0.7-1.6-1.4-2.5-2s-1.7-1.2-2.6-1.7
					c-0.9-0.6-1.8-1.1-2.6-1.7c-1.7-1.2-2.8-2.9-4.1-4.4c-0.7-0.8-1.1-2.2-1.2-3.1c-0.1-0.6,0.4-6.7-0.1-11.2c0-0.2-0.4-0.6-3.5-0.7
					c-3.1,0.1-5.5,2.1-6.5,3.1c-0.9,1-1.9,2.1-2.4,3.5c-0.2,0.7-0.3,1.5-0.4,2.1c-0.1,0.6-0.2,0.9-0.4,1.2c-1.1,0.2-2.1,0.8-2.8,1.6
					c-0.9,0.9-1.4,1.9-1.8,2.9c-0.4,1.1-0.7,2.1-0.9,3.1c-0.1,0.5-0.3,0.9-0.5,1.3c-0.1,0.2-0.2,0.2-0.2,0.3c0,0-0.1,0-0.1,0.1
					l-0.4,0.1c-2.1,0.5-4.1,1.2-6.1,2.1c-1.9,1-3.7,2.2-5.2,3.9c-1.5,1.6-2.6,3.6-3.3,5.6c-0.2,0.5-0.3,1.1-0.4,1.6l-0.1,0.4
					c0,0.1,0,0.1-0.1,0.2v0.2l-0.1,0.8c-0.1,1.1-0.2,2.1-0.3,3.1c-0.3,4.2-0.4,8.4-0.3,12.6c0,0.2,0.1,0.8,0.3,0.8
					c8.4-0.1,100.5,0.1,100.5,0.1c0.5,0,0.9-0.4,0.9-0.9C114,134.3,113.9,131,113.7,127.7L113.7,127.7z M78.3,90.5
					c0.6,0.4,2.9,1.6,3.7,3.2c0.1,0.5,0.1,1.1,0,1.6c-0.1,0.5-0.4,0.9-0.7,1.4c-1.3,1.6-3.8,3.9-4.1,4.2
					C80.5,95.5,78.3,90.5,78.3,90.5L78.3,90.5z M46.8,101.6c0.6,0.9,2.5,2.7,3.1,3.4c-0.2-0.2-2.4-1.9-2.7-2
					c-0.7-0.5-1.1-1.1-1.7-1.8c-1.1-1.4-1.7-3.2-2.1-5c-0.2-0.9-0.4-1.8,0.2-2.4c1.4-0.9,3.7-1.2,3.8-1.3c0.1,1.7-2,3.6-1.9,5.3
					c-0.1,0.2-0.1,0.2-0.1,0.4v0.5c0.1,0.3,0.1,0.6,0.2,0.9C45.8,100.1,46.5,101.1,46.8,101.6L46.8,101.6z M30.3,107.4
					c0.3-0.6,0.5-1.1,0.6-1.6c0.3-1.1,0.5-2,0.9-2.9c0.3-0.9,0.8-1.7,1.4-2.4s1.4-1.1,2.3-1.2c0.1,0,0.2-0.1,0.3-0.1
					c0.1,0.7,0.1,1.4,0.2,2.1c0.2,1.1,0.4,2.1,0.9,3.1c0.2,0.6,0.5,1,0.7,1.5c0.3,0.4,0.6,0.9,0.9,1.4c1.4,1.7,3.2,3,5.1,4
					c1.9,1,3.9,1.7,6.1,2.1c-1.9-0.9-3.8-1.9-5.6-3c-0.9-0.6-1.7-1.1-2.5-1.8c-0.8-0.7-1.6-1.4-2.1-2.1c-0.3-0.4-0.6-0.8-0.9-1.2
					c-0.2-0.4-0.5-0.9-0.7-1.3c-0.4-0.9-0.7-1.9-1-2.9c-0.2-0.9-0.4-1.8-0.6-2.7c0.1-0.1-0.5-3.2,2.7-6.2c0.9-0.9,1.9-1.7,2.9-2.4
					c2.6-1.5,4.2-0.9,5.1-0.7c0.1,1.2,0.1,1.9,0.2,3.2c-0.2,0.1-2.6,0.6-2.8,0.7c-0.4,0.2-0.9,0.3-1.4,0.7c-0.4,0.3-0.7,0.9-0.7,1.4
					c-0.1,0.6,0,1.1,0.1,1.6c0.2,1.9,0.8,3.9,2.1,5.6c0.6,0.8,1.4,1.5,2.2,2l2.4,1.5c0.8,0.5,1.6,0.9,2.4,1.4
					c0.5,0.4,0.9,0.7,1.4,1.1c0.9,0.6,1.8,1.1,2.7,1.6c0.9,0.5,1.8,1.1,2.7,1.6c0.9,0.6,1.7,1.2,2.6,1.8c0.4,0.3,0.8,0.7,1.2,1.1
					c0.2,0.2,0.4,0.4,0.5,0.6c0.1,0.1,0.1,0.2,0.2,0.3l0.1,0.2c0.1,0.1,0.1,0.2,0.2,0.2c0,0,0.1,0,0.1-0.1v-0.1l0.1-0.1l0.1-0.1
					l0.1-0.2l0.3-0.4c0.2-0.3,0.4-0.6,0.7-0.9c0.2-0.2,0.5-0.6,0.7-0.7c0.2-0.2,0.6-0.4,0.9-0.6c1.2-0.7,2.5-1.5,3.7-2.4
					c0.6-0.4,1.2-0.9,1.7-1.4c0.1-0.1,0.2-0.2,0.4-0.4c0.1-0.1,0.2-0.2,0.4-0.4c0.2-0.3,0.4-0.6,0.7-0.9c0.9-1.1,2-2.1,3.1-3.1
					l1.6-1.5c0.4-0.4,2-1.7,2.2-2c0.9-0.8,1.7-1.7,2.4-2.8c0.6-1.1,0.6-2.5,0.1-3.8c-0.7-1.5-3.5-3.1-4.3-3.6l-0.1-1.6
					c0.1,0.1,2.7-0.6,5.1,0.9c1.6,1,2.9,3.3,3.3,4.2c0.4,0.9,0.7,1.8,0.9,2.7c0.1,0.3,0.3,0.6,0.6,0.7c0.1,0,0.1,0,0.1,0.1
					c-0.1,1.2-0.4,2.5-0.9,3.6c-0.4,0.9-0.8,1.8-1.4,2.5c-0.6,0.7-1.4,1.4-2.1,2.1c-0.4,0.3-0.7,0.6-1.1,1l-1.2,0.9
					c-0.8,0.6-1.6,1.2-2.4,1.8c-1.6,1.2-3.3,2.4-4.9,3.6c1.9-0.8,3.7-1.7,5.5-2.8c1.7-1.1,3.5-2.2,5.1-3.6c0.4-0.4,0.8-0.7,1.1-1.1
					l0.6-0.6l0.5-0.6c0.7-0.9,1.1-1.9,1.4-2.9c0.4-1.2,0.5-2.5,0.4-3.8c0.9,0.3,1.6,0.7,2.3,1.3c0.9,0.7,1.5,1.6,2.1,2.6
					c0.6,1,0.9,2.1,1.1,3.2c0.1,0.6,0.1,1.1,0.1,1.7c0,0.3,0,0.6,0.1,1c0,0.2,0.1,0.4,0.1,0.7c0.1,0.1,0.1,0.3,0.2,0.4l0.1,0.1
					L94,109c-0.6,0.5-1.2,1-1.7,1.5c-1.2,1-2.4,1.9-3.7,2.8c-1.2,0.9-2.5,1.8-3.8,2.5c-0.7,0.4-1.3,0.7-2,0.9
					c-0.7,0.2-1.4,0.5-2.2,0.7c-1.5,0.4-3,0.8-4.5,1.1c-1.5,0.4-3,0.7-4.5,0.9l-2.2,0.4c-0.4,0.1-0.7,0.1-1.1,0.1
					c-0.4,0-0.7-0.1-1-0.2l-0.1-0.1c0.2-0.7,0.4-1.4,0.6-2.1c0.1-0.1,0-0.3-0.1-0.4c-0.1-0.1-0.2-0.2-0.4-0.2
					c-0.3,0-0.6,0.2-0.7,0.4c0.2-0.2,0.5-0.4,0.7-0.4c0.1,0,0.3,0.1,0.4,0.2c0.1,0.1,0.1,0.2,0.1,0.4c-0.3,0.7-0.5,1.5-0.7,2.3
					c-0.2,0.7-0.4,1.6-0.2,2.4c0.1,1.6,0.4,3.2,0.7,4.8c0.1,0.4,0.2,0.8,0.2,1.2l0.2,0.6c0.1,0.2,0.1,0.4,0.1,0.6
					c0.1,0.7,0.1,1.6,0.1,2.4c-0.1,0.8-0.1,1.6-0.2,2.4c-0.1,0.4-0.1,0.8-0.2,1.2c0,0.1-0.1,0.2-0.1,0.2c-0.1,0-0.2,0-0.4-0.1
					c-0.3-0.1-0.6-0.4-0.8-0.6c-0.1-0.1-0.1-0.1-0.1-0.2v-0.2c0-0.2,0.1-0.4,0.1-0.6c0.1-0.8,0.2-1.6,0.4-2.4
					c0.1-0.4,0.1-0.8,0.1-1.2c0-0.4,0-0.9-0.1-1.2l-0.5-2.4c-0.3-1.6-0.7-3.2-0.9-4.7c-0.1-0.4-0.1-0.8-0.1-1.2
					c0-0.3,0.1-0.6,0.1-0.9c0,0,0.1-0.2,0.1-0.3c0.1-0.4,0.2-0.7,0.4-1.2c-0.1,0.4-0.2,0.7-0.4,1.2c0,0.1-0.1,0.2-0.1,0.2
					c-0.6-0.4-1.3-0.6-2.1-0.7c-0.8-0.1-1.6-0.2-2.4-0.3c0.1-0.5,0.2-0.9,0.4-1.4c0-0.1-0.1-0.3-0.1-0.4c-0.1-0.1-0.1-0.2-0.3-0.4
					c-0.3-0.1-0.6,0-0.9,0.2c0.2-0.1,0.6-0.2,0.8-0.1c0.2,0.1,0.3,0.5,0.3,0.7c-0.3,0.7-0.6,1.5-0.7,2.4c-0.1,0.4-0.1,0.9-0.1,1.2
					c0.1,0.4,0.1,0.8,0.2,1.2c0.2,1.6,0.6,3.2,0.9,4.9l0.2,1.2c0.1,0.4,0.1,0.8,0.1,1.2c-0.1,0.7-0.2,1.6-0.5,2.3
					c-0.2,0.7-0.5,1.6-0.7,2.3c-0.1,0.4-0.3,0.7-0.4,1.1c-0.1,0.1-0.1,0.1-0.1,0.2c-0.1-0.1-0.2-0.1-0.4-0.2
					c-0.2-0.1-0.4-0.2-0.5-0.3c-0.1-0.1-0.1-0.1-0.2-0.2l-0.1-0.1c0-0.1,0.1-0.3,0.1-0.5l0.2-0.6l0.8-2.3c0.2-0.8,0.5-1.6,0.6-2.4
					s0.1-1.7,0-2.5c-0.1-1.6-0.4-3.2-0.7-4.9c-0.4-1.1-0.4-2.4-0.1-3.6h0.1c0,0,0-0.1-0.1-0.1c0.1-0.4,0.2-0.7,0.4-1.1
					c-0.2,0.3-0.4,0.7-0.5,1.1c-0.3-0.4-0.5-0.9-0.4-1.2c0.1-0.4,0.5-0.6,1-0.6c0.4,0,0.9,0.2,1.2,0.6c0.2,0.2,0.3,0.4,0.4,0.6
					c0.1,0.2-0.1,0.4-0.3,0.6c0.1,0,0.3-0.1,0.4-0.2c0.1-0.1,0.2-0.3,0.2-0.4c0-0.3-0.1-0.6-0.3-0.9c-0.4-0.5-0.9-0.9-1.6-0.9
					c-0.3,0-0.7,0.1-1,0.2c-0.3,0.2-0.5,0.5-0.5,0.9c-0.1,0.7,0.4,1.1,0.9,1.4c-0.1,0.2-0.1,0.4-0.2,0.7l-3.4-0.4
					c-1.6-0.2-3.2-0.4-4.9-0.6c-1.6-0.2-3.2-0.5-4.8-0.8c-0.8-0.1-1.6-0.3-2.3-0.6c-0.7-0.2-1.5-0.6-2.2-0.9
					c-1.5-0.6-2.9-1.4-4.3-2.2c-1.4-0.8-2.8-1.6-4.2-2.5c-0.7-0.4-1.4-0.9-2-1.4l-0.9-0.7l-0.4-0.4
					C30.1,107.8,30.2,107.6,30.3,107.4L30.3,107.4z M62.8,137.1l-12.6,0.1l-12.6,0.1c-8.2,0.1-16.4,0-24.7-0.1
					c0.1-4,0.2-8.1,0.7-12.1c0.1-1,0.2-2.1,0.4-3.1l0.1-0.7v-0.2c0-0.1,0-0.1,0.1-0.2l0.1-0.4c0.1-0.5,0.2-0.9,0.4-1.4
					c0.7-1.9,1.7-3.6,3.1-5s3.1-2.6,4.9-3.4c1.8-0.9,3.7-1.6,5.7-2l0.4-0.1c0.2-0.1,0.4-0.1,0.6-0.3c0.1-0.1,0.2-0.1,0.2-0.2
					c0.3,0.5,0.7,0.9,1.2,1.3c0.6,0.6,1.2,1.1,1.9,1.6c1.3,1,2.6,1.9,4.1,2.9c1.4,0.9,2.8,1.7,4.3,2.4c0.7,0.4,1.5,0.7,2.4,0.9
					c0.8,0.2,1.6,0.4,2.4,0.6c3.2,0.6,6.5,1,9.8,1.2c1.4,0.1,2.1,0.1,3.4,0.1c-0.1,0.7,0,1.6,0.1,2.3c0.3,1.6,0.5,3.2,0.6,4.9
					c0.1,0.8,0.1,1.6-0.1,2.4c-0.1,0.7-0.4,1.6-0.6,2.3l-0.8,2.3c-0.1,0.2-0.1,0.4-0.2,0.6c-0.1,0.2-0.1,0.4-0.1,0.7v0.2
					c0,0.1,0.1,0.1,0.1,0.1l0.1,0.1c0.1,0.1,0.1,0.1,0.1,0.1c0.1,0.1,0.2,0.1,0.2,0.2c0.2,0.1,0.4,0.2,0.6,0.3
					c0.2,0.1,0.4,0.2,0.7,0.2h0.2c0.1-0.1,0.1-0.1,0.2-0.1c0.1-0.1,0.1-0.1,0.1-0.2c0.1-0.1,0.1-0.2,0.1-0.3
					c0.2-0.4,0.3-0.7,0.4-1.2c0.2-0.7,0.5-1.6,0.7-2.4c0.2-0.8,0.4-1.6,0.5-2.5c0-0.5-0.1-0.9-0.2-1.2c-0.1-0.4-0.1-0.8-0.2-1.2
					c-0.3-1.6-0.7-3.2-1-4.8c-0.1-0.4-0.1-0.8-0.2-1.2c-0.1-0.4-0.1-0.8,0-1.2c0-0.1,0.1-0.2,0.1-0.4c1.5,0.1,3.1-0.1,4.5,0.4
					c-0.1,0.3-0.1,0.6-0.1,0.9c-0.1,0.4,0,0.8,0.1,1.2c0.2,1.6,0.4,3.2,0.7,4.8l0.4,2.4c0.1,0.7-0.1,1.6-0.2,2.3l-0.4,2.4
					c-0.1,0.2-0.1,0.4-0.1,0.6c0,0.1,0,0.3,0.1,0.4c0.1,0.1,0.1,0.2,0.2,0.3c0.3,0.4,0.7,0.6,1.1,0.8c0.2,0.1,0.4,0.2,0.8,0.1
					c0.2-0.1,0.4-0.2,0.4-0.4c0.1-0.1,0.1-0.2,0.1-0.3c0.1-0.4,0.1-0.8,0.2-1.2c0.1-0.8,0.1-1.6,0.2-2.4c0-0.8,0-1.6-0.2-2.4
					c-0.1-0.2-0.1-0.4-0.2-0.6l-0.2-0.6c-0.1-0.4-0.2-0.7-0.3-1.2c-0.4-1.6-0.7-3.1-0.9-4.7c-0.1-0.6-0.1-1.3,0.1-1.9
					c0.4,0.2,0.8,0.3,1.2,0.4c0.2,0.1,0.4,0.1,0.6,0.1h0.6c0.8,0,1.6-0.1,2.4-0.2c3.1-0.4,6.2-1,9.2-1.8c0.7-0.2,1.5-0.4,2.2-0.7
					c0.7-0.2,1.5-0.6,2.2-1.1c1.4-0.8,2.6-1.7,3.8-2.7c1.2-1,2.4-2,3.5-3.1c0.6-0.6,1.1-1.1,1.6-1.7c0.2-0.3,0.5-0.6,0.7-1
					c0.1,0.1,0.2,0.2,0.4,0.2c0.1,0,0.1,0.1,0.1,0.1c3.1,0.9,6.2,1.8,8.9,3.4c2.7,1.6,4.8,3.9,6,6.7c0.2,0.7,0.5,1.4,0.7,2.2
					l0.1,0.2v0.2l0.1,0.6l0.1,1.2c0.2,1.6,0.3,3.2,0.4,4.8c0.2,2.9,0.3,5.9,0.3,8.8l-24.1,0.1C79.6,136.8,71.2,136.9,62.8,137.1
					L62.8,137.1z M65.7,118.1c-0.2-0.2-0.2-0.5-0.2-0.7c0-0.2,0.1-0.4,0.2-0.6c0.2-0.3,0.7-0.4,1.2-0.4c0.4,0.1,0.9,0.3,1.1,0.7
					c0.1,0.2,0.1,0.4,0.1,0.6c-0.1,0.2-0.2,0.4-0.4,0.7c0.2-0.1,0.5-0.2,0.7-0.6c0.2-0.2,0.2-0.7,0.1-1c-0.2-0.6-0.9-1-1.5-1.1
					c-0.3-0.1-0.6-0.1-0.9,0.1c-0.3,0.1-0.6,0.3-0.7,0.6c-0.1,0.2-0.2,0.6-0.1,0.9C65.2,117.7,65.5,118,65.7,118.1L65.7,118.1z
					 M26,130.8c-0.4-1.7-1-3.3-1.7-4.9c-0.7-1.6-1.7-3.1-2.8-4.4c-1.1-1.3-2.4-2.6-3.9-3.4c0.7,0.5,1.3,1.1,1.9,1.7
					c0.6,0.6,1.1,1.2,1.6,1.9c1,1.4,1.9,2.8,2.6,4.4c0.4,0.7,0.7,1.5,1,2.3c0.3,0.7,0.6,1.6,0.9,2.4c0.2,0.8,0.4,1.6,0.7,2.4
					c0.2,0.8,0.4,1.7,0.6,2.5c-0.1-0.9-0.2-1.7-0.3-2.6C26.3,132.5,26.2,131.6,26,130.8z M104.4,122.1c-1.1,1.2-2.1,2.6-2.8,4
					c-0.7,1.4-1.4,3-1.9,4.6c-0.2,0.7-0.4,1.6-0.6,2.4l-0.4,2.4c0.2-0.7,0.4-1.6,0.7-2.3c0.2-0.7,0.5-1.6,0.7-2.3
					c0.1-0.4,0.3-0.7,0.4-1.1c0.1-0.4,0.3-0.7,0.5-1.1c0.3-0.7,0.7-1.4,1.1-2.2c0.7-1.4,1.6-2.7,2.6-4c0.5-0.6,1.1-1.2,1.6-1.8
					c0.6-0.6,1.2-1.1,1.9-1.5C106.8,119.8,105.5,120.9,104.4,122.1L104.4,122.1z"/>
			</g>
			<g id="svga-group-head" transform="matrix(1,2.856368900253737e-18,-2.856368900253737e-18,1,0,0)">
				<g id="svga-group-ears-left-move" transform="matrix(1,0,0,1,0,0)">
					<g id="svga-group-ears-left">
						<path id="SvgjsPath15214" class="st3" d="M39.1,58.1c-0.1-0.2-2.1-2.7-3.7-4.2c-1.6-1.5-2.1-1.5-2.9-0.6
							c-0.8,0.9-1.8,5.7-1.6,7.7c0.2,2.1,2.2,5.4,3.2,7.3c1.1,1.9,2.1,4.2,3.2,3.9c1.2-0.2,2.7-2.9,3.6-4.8S41.3,60.8,39.1,58.1
							L39.1,58.1z"/>
						<path id="SvgjsPath15215" class="st10" d="M41.4,63.8c0.1,0.6,0.1,1.1,0.1,1.6c0,0.6,0,1.1-0.1,1.6c-0.1,0.2-0.1,0.6-0.2,0.8
							c-0.1,0.2-0.2,0.4-0.2,0.7c-0.2,0.4-0.4,0.9-0.6,1.3c-0.4,0.8-0.9,1.6-1.6,2.2c-0.3,0.3-0.7,0.6-1.1,0.8
							c-0.2,0.1-0.6,0.1-0.8,0c-0.2-0.1-0.5-0.3-0.7-0.5c-0.7-0.8-1.2-1.7-1.7-2.7c-0.4-0.9-0.9-1.8-1.4-2.7
							c-0.4-0.9-0.9-1.8-1.3-2.7c-0.2-0.5-0.4-0.9-0.6-1.4c-0.2-0.5-0.3-1-0.4-1.6c-0.1-1.1,0-2.1,0.1-3.1c0.1-1,0.3-2,0.5-3
							c0.1-0.5,0.2-1,0.5-1.4l0.2-0.4c0.1-0.1,0.2-0.2,0.2-0.3c0.1-0.2,0.3-0.4,0.6-0.5c0.2-0.1,0.5-0.2,0.7-0.2
							c0.2,0.1,0.5,0.2,0.7,0.3c0.4,0.2,0.7,0.6,1.1,0.9c1.4,1.4,2.5,3,3.7,4.5C40.3,59.6,41.1,61.7,41.4,63.8L41.4,63.8z
							 M35.1,54.1c-0.7-0.6-1.5-1.2-1.9-0.7c-0.1,0.1-0.2,0.2-0.4,0.4l-0.2,0.2c-0.1,0.1-0.1,0.2-0.1,0.2c-0.2,0.4-0.3,0.8-0.5,1.2
							c-0.3,0.9-0.6,1.8-0.7,2.8c-0.2,0.9-0.3,1.9-0.2,2.9c0.1,0.5,0.2,1,0.4,1.4c0.2,0.5,0.4,0.9,0.6,1.4c0.4,0.9,0.9,1.7,1.4,2.6
							c0.5,0.9,1.1,1.7,1.6,2.6c0.2,0.4,0.5,0.9,0.7,1.2c0.2,0.4,0.5,0.8,0.8,1.1c0.3,0.2,0.6,0.4,0.8,0.2c0.3-0.1,0.6-0.4,0.9-0.7
							c0.6-0.6,1-1.3,1.4-2.1c0.2-0.4,0.4-0.8,0.6-1.2c0.1-0.2,0.2-0.4,0.2-0.6l0.1-0.3c0-0.1,0.1-0.2,0.1-0.3
							c0.2-0.9,0.2-1.9,0.2-2.9c-0.1-1-0.2-2-0.6-3c-0.3-1-0.7-1.9-1.4-2.6C37.8,56.6,36.5,55.2,35.1,54.1L35.1,54.1z"/>
						<path id="SvgjsPath15216" class="st5" d="M32.3,62.2c-0.2-1.4-0.3-4.9,0.5-6c1.4-1.8,3.7,4,4.3,5.8c0,0.1,0.1,0.1,0.1,0.2
							c0.1,0.2-0.1,0.4-0.2,0.4c-0.2-0.1-0.6-0.4-0.8-0.5c-0.7-0.3-1,0.3-0.8,1.1c0.2,1.1,0.9,1.8,1.4,2.7c0.1,0.1,0,0.2-0.1,0.2
							c-1-0.6-2.2-2.8-1.9-4.1c0.2-1.2,1.2-1.1,1.9-0.5c-0.4-1.1-0.9-2.1-1.6-3c-0.4-0.6-0.7-1.2-1.4-1.4c-0.7-0.1-0.6,0.2-0.7,1.1
							c-0.5,3-0.2,6.5,1.6,9.1c0.1,0.1,0,0.1-0.1,0.1C33.3,65.9,32.5,64.2,32.3,62.2L32.3,62.2z"/>
					</g>
				</g>
				<g id="svga-group-ears-right-move" transform="matrix(1,0,0,1,0,0)">
					<g id="svga-group-ears-right">
						<path id="SvgjsPath15217" class="st3" d="M86.6,58.1c0.1-0.2,2.1-2.7,3.7-4.2c1.6-1.5,2.1-1.5,2.9-0.6
							c0.8,0.9,1.8,5.7,1.6,7.7s-2.2,5.4-3.2,7.3c-1.1,1.9-2.1,4.2-3.2,3.9c-1.2-0.2-2.7-2.9-3.6-4.8S84.4,60.8,86.6,58.1L86.6,58.1
							z"/>
						<path id="SvgjsPath15218" class="st10" d="M86.6,58.1c1.2-1.5,2.4-3.1,3.7-4.5c0.3-0.3,0.7-0.7,1.1-0.9
							c0.2-0.1,0.4-0.2,0.7-0.3c0.2-0.1,0.6,0.1,0.7,0.2c0.2,0.1,0.4,0.3,0.6,0.5c0.1,0.1,0.1,0.2,0.2,0.3l0.2,0.4
							c0.2,0.4,0.4,0.9,0.5,1.4c0.2,1,0.4,2,0.5,3c0.1,1,0.2,2.1,0.1,3.1c-0.1,0.6-0.2,1.1-0.4,1.6c-0.2,0.5-0.4,1-0.6,1.4
							c-0.4,0.9-0.9,1.9-1.3,2.7c-0.5,0.9-0.9,1.8-1.4,2.7c-0.5,0.9-0.9,1.9-1.7,2.7c-0.2,0.2-0.4,0.4-0.7,0.5
							c-0.2,0.1-0.6,0.1-0.8,0c-0.5-0.2-0.8-0.5-1.1-0.8c-0.6-0.7-1.1-1.4-1.6-2.2c-0.2-0.4-0.4-0.9-0.6-1.3
							c-0.1-0.2-0.2-0.4-0.2-0.7c-0.1-0.2-0.2-0.5-0.2-0.8c-0.1-0.6-0.1-1.1-0.1-1.6s0.1-1.1,0.1-1.6C84.5,61.7,85.3,59.6,86.6,58.1
							L86.6,58.1z M86.6,58.2c-0.6,0.7-1.1,1.7-1.4,2.6c-0.3,1-0.5,2-0.6,3c-0.1,1,0,2,0.2,2.9c0,0.1,0.1,0.2,0.1,0.3l0.1,0.3
							c0.1,0.2,0.2,0.4,0.2,0.6c0.2,0.4,0.4,0.8,0.6,1.2c0.4,0.7,0.9,1.5,1.4,2.1c0.2,0.3,0.6,0.6,0.9,0.7c0.2,0.1,0.5,0,0.8-0.2
							c0.3-0.2,0.6-0.6,0.8-1.1c0.2-0.4,0.5-0.8,0.7-1.2c0.5-0.9,1.1-1.7,1.6-2.6c0.5-0.9,1-1.7,1.4-2.6c0.2-0.4,0.4-0.9,0.6-1.4
							c0.2-0.5,0.3-1,0.4-1.4c0.1-1-0.1-2-0.2-2.9c-0.2-0.9-0.4-1.9-0.7-2.8c-0.1-0.4-0.3-0.9-0.5-1.2C93,54.3,93,54.2,93,54.1
							c-0.1-0.1-0.1-0.1-0.2-0.2c-0.1-0.1-0.2-0.3-0.4-0.4c-0.4-0.4-1.2,0.2-1.9,0.7C89.1,55.2,87.8,56.6,86.6,58.2z"/>
						<path id="SvgjsPath15219" class="st5" d="M93.3,62.2c0.2-1.4,0.3-4.9-0.5-6c-1.4-1.8-3.7,4-4.3,5.8c0,0.1-0.1,0.1-0.1,0.2
							c-0.1,0.2,0.1,0.4,0.2,0.4c0.2-0.1,0.6-0.4,0.8-0.5c0.7-0.3,1,0.3,0.8,1.1c-0.2,1.1-0.9,1.8-1.4,2.7c-0.1,0.1,0,0.2,0.1,0.2
							c1-0.6,2.2-2.8,1.9-4.1c-0.2-1.2-1.2-1.1-1.9-0.5c0.4-1.1,0.9-2.1,1.6-3c0.4-0.6,0.7-1.2,1.4-1.4c0.7-0.1,0.6,0.2,0.7,1.1
							c0.5,3,0.2,6.5-1.6,9.1c-0.1,0.1,0,0.1,0.1,0.1C92.4,65.9,93.1,64.2,93.3,62.2L93.3,62.2z"/>
					</g>
				</g>
				<g id="svga-group-faceshape-wrap">
					<g id="svga-group-faceshape-single">
						<path id="SvgjsPath15178" class="st3" d="M89.8,51.3v-0.2c-0.8-18.7-12.9-29-27-29s-26.2,10.2-27,29v0.2
							c0,1.2,0,11.1,1.1,17.7c1.1,7.3,3.6,9.9,8.9,16.3c5.4,6.4,10.6,12.4,13.5,12c0,0,2.7-0.6,3.5-0.6s3.5,0.6,3.5,0.6
							c2.9,0.4,8.2-5.5,13.5-12c5.3-6.5,7.8-9,8.9-16.3C89.7,62.3,89.8,52.6,89.8,51.3z"/>
						<path id="SvgjsPath15179" class="st6" d="M66.3,97.3c2.9,0.4,8.2-5.5,13.5-12c5.3-6.5,7.8-9,8.9-16.3c1-6.7,1.1-16.5,1.1-17.7
							v-0.2c-0.8-18.7-12.9-29-27-29s-26.2,10.2-27,29v0.2c0,1.2,0,11.1,1.1,17.7c1.1,7.3,3.6,9.9,8.9,16.3
							c5.4,6.4,10.6,12.4,13.5,12c0,0,2.7-0.6,3.5-0.6S66.3,97.3,66.3,97.3z M59.8,95.5c-0.7,0.1-1.4,0.1-2-0.3
							c-1.8-1-3.6-3.2-4.4-4.1c-2-2.1-3.9-3.8-5.9-6.1c-1.9-2.3-4-4.5-5.7-6.8c-1.7-2.3-2.9-4.9-3.6-7.7c-0.7-2.8-1.1-5.8-1.3-8.8
							c-0.2-3-0.4-6-0.5-8.9c-0.1-5.9,1.1-11.9,4.2-17.1c2.9-5.1,7.8-8.8,13.2-10.7c8.2-2.6,14.1-1.1,16.8-0.3
							c5.5,1.5,10.4,5.1,13.8,9.9c3.4,4.8,5.1,10.9,5.3,16.8c-0.1,5.2-0.4,10.4-1.2,15.6c-0.2,1.3-0.4,2.6-0.7,3.8
							c-0.3,1.2-0.7,2.4-1.2,3.6c-1,2.2-2.6,4.2-4.2,6.2c-0.8,1-5.1,5.9-5.1,5.9c-1.7,1.9-3.4,3.4-5.1,5.2c-0.9,0.9-3.6,3.4-4.1,3.7
							c-1.3,0.6-2.5,0.3-2.5,0.3C64.8,95.5,62.7,95,59.8,95.5L59.8,95.5z"/>
					</g>
				</g>
				<g id="svga-group-mouth-single-move" transform="matrix(1,0,0,1,0,0)">
					<g id="svga-group-mouth-single">
						<path id="SvgjsPath15468" class="st5" d="M56.2,82.1c4.5,2.7,9.7,2.3,13.4,0.4c0.2-0.1,0-0.4-0.1-0.3
							c-2.2,0.3-4.2,0.8-6.5,0.9c-2.3,0-4.7-0.5-6.7-1.2C56.1,81.8,56.2,82,56.2,82.1L56.2,82.1z"/>
						<path id="SvgjsPath15469" class="st11" d="M68.3,81.6c-1.4,0.3-2.8,0.7-4.2,0.8c-1.5,0.1-2.9-0.1-4.3-0.2
							c-0.1,0-0.2,0.2,0,0.3c2.7,0.7,6.2,0.7,8.7-0.5C68.6,81.8,68.5,81.6,68.3,81.6L68.3,81.6z"/>
						<path id="SvgjsPath15470" class="st12" d="M62.5,77.9c-2.3,0-4.8,0.2-6,0.4c-1.9,0.3-3-0.1-3.1,0.2c-0.1,0.3,3.5,0.8,4.5,0.9
							c1,0.1,2.9,1,4.4,1.2c1.5,0.2,2.5-0.6,3.7-0.9c1.2-0.3,4.1-0.5,5-0.6c1.2-0.2,2.1-0.8,0.2-0.7c-0.3,0-0.6,0-0.9,0
							C68.8,78.2,65.3,77.9,62.5,77.9z"/>
					</g>
				</g>
				<g id="svga-group-eyes-left-move" transform="matrix(1,0,0,1,0,0)">
					<g id="svga-group-eyes-left">
						<g id="svga-group-eyesback-left">
							<path id="SvgjsPath15254" class="st13" d="M56.4,60.1c0,0-0.8-1.9-2.1-2.9c-1.2-1-3.2-2.4-6.1-1.2c-2.9,1.2-4.1,3.6-4.1,3.6
								s0.4,1.7,1.2,2.4s2.5,1.7,5.2,1.3c2.8-0.4,4.1-1.2,4.6-1.7C55.8,61.2,56.4,60.1,56.4,60.1L56.4,60.1z"/>
						</g>
						<g id="svga-group-eyesiriswrapper-left" transform="matrix(1,0,0,1,0,0)">
							<g id="svga-group-eyesiriscontrol-left" transform="matrix(1,0,0,1,0,0)">
								<g id="svga-group-eyesiris-left">
									<path id="SvgjsPath15302" class="st14" d="M50.4,55.1c1.9,0,3.4,1.5,3.4,3.4s-1.6,3.4-3.4,3.4s-3.4-1.5-3.4-3.4
										S48.4,55.1,50.4,55.1z"/>
									<path id="SvgjsPath15303" class="st15" d="M50.4,54.9c-2,0-3.6,1.6-3.6,3.6c0,2,1.6,3.6,3.6,3.6c2,0,3.6-1.6,3.6-3.6
										S52.3,54.9,50.4,54.9z M53.3,59.7c-0.4-0.2-0.7-0.4-1.2-0.5c0.1-0.1,0.1-0.3,0.1-0.5c0.4,0.1,0.8,0.1,1.2,0.1
										C53.6,59.1,53.4,59.4,53.3,59.7L53.3,59.7z M53.1,60.1c-0.3-0.2-0.7-0.5-1.1-0.7c0-0.1,0.1-0.1,0.1-0.1l1.1,0.6
										C53.3,60,53.2,60,53.1,60.1L53.1,60.1z M53.2,56.9c-0.4,0.1-0.8,0.2-1.1,0.5c0-0.1-0.1-0.1-0.1-0.1
										c0.1-0.1,0.3-0.2,0.4-0.3c0.2-0.1,0.4-0.3,0.6-0.4C53,56.7,53.1,56.8,53.2,56.9L53.2,56.9z M53.4,57.4
										c-0.4,0.1-0.8,0.2-1.2,0.4c0-0.1-0.1-0.1-0.1-0.2c0.2-0.1,0.4-0.2,0.6-0.2c0.2-0.1,0.4-0.1,0.6-0.2
										C53.3,57.2,53.4,57.4,53.4,57.4L53.4,57.4z M52.3,58.5c0-0.2-0.1-0.4-0.1-0.5c0.4-0.1,0.8-0.2,1.2-0.3
										c0.1,0.2,0.1,0.6,0.1,0.9C53.2,58.5,52.8,58.5,52.3,58.5z M52.8,56.4c-0.2,0.1-0.4,0.3-0.6,0.4c-0.1,0.1-0.3,0.2-0.4,0.3
										L51.6,57c0.2-0.3,0.5-0.7,0.7-1.1C52.5,56.1,52.7,56.2,52.8,56.4z M50.6,60.5c0.1,0,0.3-0.1,0.4-0.1
										c0.1,0.2,0.2,0.4,0.2,0.6c0.1,0.2,0.1,0.4,0.2,0.5c-0.2,0.1-0.6,0.2-0.9,0.2C50.6,61.3,50.6,60.9,50.6,60.5L50.6,60.5z
										 M51.4,55.5c0.2,0.1,0.6,0.2,0.8,0.4c-0.2,0.3-0.5,0.7-0.7,1c-0.1-0.1-0.1-0.1-0.2-0.1C51.4,56.4,51.4,55.9,51.4,55.5z
										 M50.5,55.3c0.2,0,0.5,0.1,0.7,0.1c-0.1,0.3-0.1,0.6-0.1,0.9c0,0.1-0.1,0.2-0.1,0.3c-0.1-0.1-0.2-0.1-0.4-0.1
										C50.6,56.1,50.6,55.7,50.5,55.3L50.5,55.3z M51.5,60.9c-0.1-0.2-0.2-0.4-0.3-0.6c0.1,0,0.1-0.1,0.1-0.1
										c0.1,0.2,0.2,0.4,0.3,0.6s0.2,0.4,0.3,0.6c-0.1,0.1-0.1,0.1-0.2,0.1C51.7,61.2,51.6,61.1,51.5,60.9L51.5,60.9z M51.8,60.7
										c-0.1-0.2-0.2-0.4-0.3-0.6c0.1-0.1,0.1-0.1,0.2-0.1c0.2,0.4,0.4,0.7,0.7,1c-0.1,0.1-0.2,0.1-0.2,0.2
										C52,61,51.8,60.9,51.8,60.7z M50.4,55.3c-0.1,0.4-0.1,0.8-0.1,1.2h-0.2c0-0.1-0.1-0.2-0.1-0.4c-0.1-0.2-0.1-0.6-0.1-0.9
										c0.1,0,0.2-0.1,0.4-0.1C50.4,55.2,50.4,55.2,50.4,55.3z M48.7,55.7c0.2,0.4,0.4,0.7,0.7,1.1c-0.1,0.1-0.1,0.1-0.1,0.1
										c-0.1-0.1-0.1-0.2-0.2-0.2c-0.2-0.2-0.4-0.5-0.6-0.7C48.5,55.9,48.6,55.8,48.7,55.7L48.7,55.7z M49.9,56.6
										c-0.1,0-0.1,0-0.1,0.1c-0.1-0.4-0.2-0.8-0.4-1.2c0.1-0.1,0.2-0.1,0.4-0.1C49.8,55.7,49.8,56.2,49.9,56.6z M49.6,56.7
										C49.6,56.7,49.6,56.7,49.6,56.7c-0.2-0.3-0.5-0.7-0.7-1c0.1-0.1,0.3-0.1,0.4-0.2C49.4,55.9,49.4,56.3,49.6,56.7z
										 M49.3,60.2c0.1,0,0.1,0.1,0.1,0.1c-0.1,0.1-0.1,0.2-0.1,0.3c-0.1,0.2-0.3,0.6-0.4,0.8l-0.4-0.2c0.2-0.2,0.3-0.4,0.5-0.6
										C49.1,60.4,49.3,60.3,49.3,60.2L49.3,60.2z M49.6,60.6c0.1-0.1,0.1-0.2,0.1-0.2h0.1c-0.2,0.4-0.3,0.8-0.4,1.2
										c-0.1-0.1-0.2-0.1-0.3-0.1C49.3,61.2,49.4,60.9,49.6,60.6z M49.9,60.4c0.1,0,0.1,0,0.2,0.1c-0.1,0.4-0.1,0.8-0.2,1.2
										c-0.1,0-0.3-0.1-0.4-0.1C49.7,61.2,49.8,60.8,49.9,60.4z M48.3,56.1c0.1,0.2,0.3,0.4,0.5,0.6c0.1,0.1,0.2,0.2,0.2,0.4
										c-0.1,0.1-0.2,0.1-0.2,0.2c-0.3-0.2-0.7-0.5-1.1-0.7C47.9,56.4,48.1,56.2,48.3,56.1L48.3,56.1z M47.6,60.1l0.9-0.6
										c0.1,0,0.1-0.1,0.1-0.1c0.1,0.1,0.1,0.2,0.2,0.2c-0.3,0.2-0.6,0.6-0.9,0.9C47.8,60.5,47.7,60.3,47.6,60.1z M47.3,59.4
										c0.2-0.1,0.5-0.2,0.7-0.2c0.1-0.1,0.3-0.1,0.4-0.2c0,0.1,0.1,0.2,0.1,0.3c-0.1,0.1-0.1,0.1-0.2,0.1
										c-0.3,0.2-0.6,0.4-0.9,0.6C47.4,59.8,47.3,59.6,47.3,59.4L47.3,59.4z M47.1,58.5c0-0.1,0-0.2,0.1-0.3
										c0.4,0.1,0.8,0.2,1.2,0.2v0.3c-0.2,0.1-0.4,0.1-0.6,0.2c-0.2,0.1-0.4,0.1-0.6,0.2C47.1,59,47.1,58.7,47.1,58.5L47.1,58.5z
										 M47.3,57.5c0.2,0.1,0.6,0.2,0.8,0.4c0.1,0.1,0.2,0.1,0.3,0.1c0,0.1-0.1,0.1-0.1,0.2c-0.1,0-0.2-0.1-0.3-0.1
										c-0.3-0.1-0.6-0.1-0.9-0.1L47.3,57.5L47.3,57.5z M47.7,56.7c0.3,0.2,0.6,0.6,1,0.7c-0.1,0.1-0.1,0.2-0.2,0.3
										c-0.1,0-0.1-0.1-0.2-0.1c-0.3-0.1-0.7-0.2-1-0.4C47.4,57.1,47.6,56.9,47.7,56.7L47.7,56.7z M48,60.7
										c0.3-0.2,0.7-0.6,0.9-0.9l0.2,0.2c-0.1,0.1-0.2,0.2-0.2,0.4c-0.2,0.2-0.3,0.4-0.5,0.6C48.3,61,48.1,60.9,48,60.7z
										 M50.2,61.7c0.1-0.4,0.1-0.8,0.1-1.2h0.1c-0.1,0.4-0.1,0.9,0,1.2H50.2L50.2,61.7z M52.5,60.9c-0.2-0.3-0.6-0.6-0.8-0.9
										c0.1-0.1,0.2-0.2,0.3-0.4c0.3,0.2,0.7,0.5,1.1,0.7C52.9,60.5,52.7,60.7,52.5,60.9L52.5,60.9z"/>
									<path id="SvgjsPath15304" d="M50.4,56.7c1,0,1.8,0.8,1.8,1.8s-0.8,1.8-1.8,1.8s-1.8-0.8-1.8-1.8S49.3,56.7,50.4,56.7z"/>
									<path id="SvgjsPath15305" class="st13" d="M49.3,56.9c0.4,0,0.7,0.3,0.7,0.7c0,0.4-0.3,0.7-0.7,0.7c-0.4,0-0.7-0.3-0.7-0.7
										C48.6,57.2,48.9,56.9,49.3,56.9z M51.6,59.5c0.2,0,0.4,0.2,0.4,0.4c0,0.2-0.2,0.4-0.4,0.4c-0.2,0-0.4-0.2-0.4-0.4
										C51.2,59.7,51.4,59.5,51.6,59.5z"/>
								</g>
							</g>
						</g>
						<g id="svga-group-eyesfront-left">
							<path id="SvgjsPath15262" class="st3" d="M43.7,59.2c0,4,2.9,7.2,6.6,7.2c3.7,0,6.6-3.2,6.6-7.2S54,52,50.3,52
								C46.6,52,43.7,55.2,43.7,59.2z M45.5,62c-0.8-0.7-1.2-2.4-1.2-2.4s1.2-2.4,4.1-3.6c2.9-1.2,4.9,0.2,6.1,1.2
								c1.2,1,2.1,2.9,2.1,2.9s-0.6,1.1-1.1,1.5c-0.4,0.4-1.8,1.3-4.6,1.7C47.9,63.7,46.3,62.7,45.5,62z"/>
							<path id="SvgjsPath15263" class="st10" d="M56.9,60.9c-0.7-3.2-2.6-6.4-6.1-6.9c-3.9-0.6-5.5,2.8-6.8,5.7
								c-0.1,0.1-0.2,0.1-0.2-0.1c0.6-3.4,3.4-6.6,7.1-6.1c3.6,0.6,5.6,4,6.2,7.2C57,60.9,56.9,61,56.9,60.9L56.9,60.9z"/>
							<path id="SvgjsPath15264" d="M56.8,61.5c-1.2-2.9-3.2-5.8-6.8-5.4c-3.4,0.4-5,3.2-6.9,5.7c-0.1,0.2-0.5,0-0.4-0.2
								c1.1-3,4.1-6.2,7.6-6.2c3.4-0.1,6.3,2.9,6.8,6.2C57,61.5,56.8,61.6,56.8,61.5z"/>
							<path id="SvgjsPath15265" d="M56.3,60.5c-0.8,2.6-4.9,3.2-7.2,3.1c-2.2-0.1-5-1.7-4.9-4.2c0-0.2,0.3-0.2,0.3-0.1
								c0.6,2.6,2.6,3.9,5.2,3.8c2.2-0.1,5.2-0.6,6.4-2.7C56.1,60.3,56.3,60.4,56.3,60.5L56.3,60.5z"/>
						</g>
					</g>
				</g>
				<g id="svga-group-eyes-right-move" transform="matrix(1,0,0,1,0,0)">
					<g id="svga-group-eyes-right">
						<g id="svga-group-eyesback-right">
							<path id="SvgjsPath15255" class="st13" d="M69.2,60.1c0,0,0.8-1.9,2.1-2.9c1.2-1,3.2-2.4,6.1-1.2c2.9,1.2,4.1,3.6,4.1,3.6
								S81,61.2,80.2,62s-2.5,1.7-5.2,1.3c-2.8-0.4-4.1-1.2-4.6-1.7C69.9,61.2,69.2,60.1,69.2,60.1L69.2,60.1z"/>
						</g>
						<g id="svga-group-eyesiriswrapper-right" transform="matrix(1,0,0,1,0,0)">
							<g id="svga-group-eyesiriscontrol-right" transform="matrix(1,0,0,1,0,0)">
								<g id="svga-group-eyesiris-right">
									<path id="SvgjsPath15306" class="st14" d="M75.2,55.1c1.9,0,3.4,1.5,3.4,3.4s-1.5,3.4-3.4,3.4s-3.4-1.5-3.4-3.4
										S73.4,55.1,75.2,55.1z"/>
									<path id="SvgjsPath15307" class="st15" d="M75.2,54.9c-2,0-3.6,1.6-3.6,3.6c0,2,1.6,3.6,3.6,3.6s3.6-1.6,3.6-3.6
										C78.9,56.6,77.2,54.9,75.2,54.9z M78.2,59.7c-0.4-0.2-0.7-0.4-1.2-0.5c0.1-0.1,0.1-0.3,0.1-0.5c0.4,0.1,0.8,0.1,1.2,0.1
										C78.4,59.1,78.4,59.4,78.2,59.7L78.2,59.7z M78.1,60.1c-0.3-0.2-0.7-0.5-1.1-0.7c0-0.1,0.1-0.1,0.1-0.1l1.1,0.6
										C78.2,60,78.1,60,78.1,60.1L78.1,60.1z M78.1,56.9c-0.4,0.1-0.8,0.2-1.1,0.5c0-0.1-0.1-0.1-0.1-0.1
										c0.1-0.1,0.3-0.2,0.4-0.3c0.2-0.1,0.4-0.3,0.6-0.4C77.9,56.7,78,56.8,78.1,56.9L78.1,56.9z M78.3,57.4
										c-0.4,0.1-0.8,0.2-1.2,0.4c0-0.1-0.1-0.1-0.1-0.2c0.2-0.1,0.4-0.2,0.6-0.2c0.2-0.1,0.4-0.1,0.6-0.2
										C78.2,57.2,78.3,57.4,78.3,57.4L78.3,57.4z M77.2,58.5c0-0.2-0.1-0.4-0.1-0.5c0.4-0.1,0.8-0.2,1.2-0.3
										c0.1,0.2,0.1,0.6,0.1,0.9C78.1,58.5,77.7,58.5,77.2,58.5z M77.7,56.4c-0.2,0.1-0.4,0.3-0.6,0.4c-0.1,0.1-0.3,0.2-0.4,0.3
										L76.6,57c0.2-0.3,0.5-0.7,0.7-1.1C77.4,56.1,77.6,56.2,77.7,56.4z M75.5,60.5c0.1,0,0.3-0.1,0.4-0.1
										c0.1,0.2,0.2,0.4,0.2,0.6s0.1,0.4,0.2,0.5c-0.2,0.1-0.6,0.2-0.9,0.2C75.6,61.3,75.6,60.9,75.5,60.5L75.5,60.5z M76.4,55.5
										c0.2,0.1,0.6,0.2,0.8,0.4c-0.2,0.3-0.5,0.7-0.7,1c-0.1-0.1-0.1-0.1-0.2-0.1C76.3,56.4,76.4,55.9,76.4,55.5z M75.4,55.3
										c0.2,0,0.5,0.1,0.7,0.1c-0.1,0.3-0.1,0.6-0.1,0.9c0,0.1-0.1,0.2-0.1,0.3c-0.1-0.1-0.2-0.1-0.4-0.1
										C75.6,56.1,75.5,55.7,75.4,55.3L75.4,55.3z M76.4,60.9c-0.1-0.2-0.2-0.4-0.3-0.6c0.1,0,0.1-0.1,0.1-0.1
										c0.1,0.2,0.2,0.4,0.3,0.6c0.1,0.2,0.2,0.4,0.3,0.6c-0.1,0.1-0.1,0.1-0.2,0.1C76.6,61.2,76.5,61.1,76.4,60.9L76.4,60.9z
										 M76.7,60.7c-0.1-0.2-0.2-0.4-0.3-0.6c0.1-0.1,0.1-0.1,0.2-0.1c0.2,0.4,0.4,0.7,0.7,1c-0.1,0.1-0.2,0.1-0.2,0.2
										C76.9,61,76.7,60.9,76.7,60.7z M75.4,55.3c-0.1,0.4-0.1,0.8-0.1,1.2h-0.2c0-0.1-0.1-0.2-0.1-0.4c-0.1-0.2-0.1-0.6-0.1-0.9
										c0.1,0,0.2-0.1,0.4-0.1C75.3,55.2,75.3,55.2,75.4,55.3z M73.6,55.7c0.2,0.4,0.4,0.7,0.7,1.1c-0.1,0.1-0.1,0.1-0.1,0.1
										c-0.1-0.1-0.1-0.2-0.2-0.2c-0.2-0.2-0.4-0.5-0.6-0.7C73.4,55.9,73.5,55.8,73.6,55.7L73.6,55.7z M74.9,56.6
										c-0.1,0-0.1,0-0.1,0.1c-0.1-0.4-0.2-0.8-0.4-1.2c0.1-0.1,0.2-0.1,0.4-0.1C74.7,55.7,74.7,56.2,74.9,56.6z M74.6,56.7
										C74.6,56.7,74.5,56.7,74.6,56.7c-0.2-0.3-0.5-0.7-0.7-1c0.1-0.1,0.3-0.1,0.4-0.2C74.3,55.9,74.4,56.3,74.6,56.7z
										 M74.2,60.2c0.1,0,0.1,0.1,0.1,0.1c-0.1,0.1-0.1,0.2-0.1,0.3c-0.1,0.2-0.3,0.6-0.4,0.8l-0.4-0.2c0.2-0.2,0.3-0.4,0.5-0.6
										C74.1,60.4,74.2,60.3,74.2,60.2L74.2,60.2z M74.4,60.6c0.1-0.1,0.1-0.2,0.1-0.2h0.1c-0.2,0.4-0.3,0.8-0.4,1.2
										c-0.1-0.1-0.2-0.1-0.3-0.1C74.2,61.2,74.3,60.9,74.4,60.6z M74.9,60.4c0.1,0,0.1,0,0.2,0.1c-0.1,0.4-0.1,0.8-0.2,1.2
										c-0.1,0-0.3-0.1-0.4-0.1C74.6,61.2,74.7,60.8,74.9,60.4z M73.2,56.1c0.1,0.2,0.3,0.4,0.5,0.6c0.1,0.1,0.2,0.2,0.2,0.4
										c-0.1,0.1-0.2,0.1-0.2,0.2c-0.3-0.2-0.7-0.5-1.1-0.7C72.9,56.4,73,56.2,73.2,56.1L73.2,56.1z M72.5,60.1l0.9-0.6
										c0.1,0,0.1-0.1,0.1-0.1c0.1,0.1,0.1,0.2,0.2,0.2c-0.3,0.2-0.6,0.6-0.9,0.9C72.7,60.5,72.6,60.3,72.5,60.1z M72.2,59.4
										c0.2-0.1,0.5-0.2,0.7-0.2c0.1-0.1,0.3-0.1,0.4-0.2c0,0.1,0.1,0.2,0.1,0.3c-0.1,0.1-0.1,0.1-0.2,0.1
										c-0.3,0.2-0.6,0.4-0.9,0.6C72.3,59.8,72.2,59.6,72.2,59.4L72.2,59.4z M72.1,58.5c0-0.1,0-0.2,0.1-0.3
										c0.4,0.1,0.8,0.2,1.2,0.2v0.3c-0.2,0.1-0.4,0.1-0.6,0.2c-0.2,0.1-0.4,0.1-0.6,0.2C72.1,59,72.1,58.7,72.1,58.5L72.1,58.5z
										 M72.2,57.5c0.2,0.1,0.6,0.2,0.8,0.4c0.1,0.1,0.2,0.1,0.3,0.1c0,0.1-0.1,0.1-0.1,0.2c-0.1,0-0.2-0.1-0.3-0.1
										c-0.3-0.1-0.6-0.1-0.9-0.1C72.1,57.9,72.1,57.7,72.2,57.5L72.2,57.5z M72.6,56.7c0.3,0.2,0.6,0.6,1,0.7
										c-0.1,0.1-0.1,0.2-0.2,0.3c-0.1,0-0.1-0.1-0.2-0.1c-0.3-0.1-0.7-0.2-1-0.4C72.4,57.1,72.5,56.9,72.6,56.7L72.6,56.7z
										 M72.9,60.7c0.3-0.2,0.7-0.6,0.9-0.9l0.2,0.2c-0.1,0.1-0.2,0.2-0.2,0.4c-0.2,0.2-0.3,0.4-0.5,0.6
										C73.2,61,73.1,60.9,72.9,60.7z M75.1,61.7c0.1-0.4,0.1-0.8,0.1-1.2h0.1c-0.1,0.4-0.1,0.9,0,1.2H75.1L75.1,61.7z M77.4,60.9
										c-0.2-0.3-0.6-0.6-0.8-0.9c0.1-0.1,0.2-0.2,0.3-0.4c0.3,0.2,0.7,0.5,1.1,0.7C77.8,60.5,77.6,60.7,77.4,60.9L77.4,60.9z"/>
									<path id="SvgjsPath15308" d="M75.2,56.7c1,0,1.8,0.8,1.8,1.8s-0.8,1.8-1.8,1.8c-1,0-1.8-0.8-1.8-1.8S74.2,56.7,75.2,56.7z"
										/>
									<path id="SvgjsPath15309" class="st13" d="M74.2,56.9c0.4,0,0.7,0.3,0.7,0.7c0,0.4-0.3,0.7-0.7,0.7c-0.4,0-0.7-0.3-0.7-0.7
										C73.6,57.2,73.9,56.9,74.2,56.9z M76.5,59.5c0.2,0,0.4,0.2,0.4,0.4c0,0.2-0.2,0.4-0.4,0.4c-0.2,0-0.4-0.2-0.4-0.4
										C76.1,59.7,76.3,59.5,76.5,59.5z"/>
								</g>
							</g>
						</g>
						<g id="svga-group-eyesfront-right">
							<path id="SvgjsPath15266" class="st3" d="M75.3,52c-3.7,0-6.6,3.2-6.6,7.2s2.9,7.2,6.6,7.2c3.7,0,6.6-3.2,6.6-7.2
								S78.9,52,75.3,52L75.3,52z M74.9,63.3c-2.8-0.4-4.1-1.2-4.6-1.7c-0.4-0.4-1.1-1.5-1.1-1.5s0.8-1.9,2.1-2.9
								c1.2-1,3.2-2.4,6.1-1.2c2.9,1.2,4.1,3.6,4.1,3.6S81,61.2,80.2,62C79.4,62.7,77.7,63.7,74.9,63.3z"/>
							<path id="SvgjsPath15269" class="st10" d="M68.7,60.9c0.7-3.2,2.6-6.4,6.1-6.9c3.9-0.6,5.5,2.8,6.8,5.7
								c0.1,0.1,0.2,0.1,0.2-0.1c-0.6-3.4-3.4-6.6-7.1-6.1c-3.6,0.6-5.6,4-6.2,7.2C68.6,60.9,68.7,61,68.7,60.9L68.7,60.9z"/>
							<path id="SvgjsPath15270" d="M68.9,61.5c1.2-2.9,3.2-5.8,6.8-5.4c3.4,0.4,5,3.2,6.9,5.7c0.1,0.2,0.5,0,0.4-0.2
								c-1.1-3-4.1-6.2-7.6-6.2c-3.4-0.1-6.3,2.9-6.8,6.2C68.6,61.5,68.8,61.6,68.9,61.5L68.9,61.5z"/>
							<path id="SvgjsPath15271" d="M69.4,60.5c0.8,2.6,4.9,3.2,7.2,3.1c2.2-0.1,5-1.7,4.9-4.2c0-0.2-0.3-0.2-0.3-0.1
								c-0.6,2.6-2.6,3.9-5.2,3.8c-2.2-0.1-5.2-0.6-6.4-2.7C69.5,60.3,69.3,60.4,69.4,60.5L69.4,60.5z"/>
						</g>
					</g>
				</g>
				<g id="svga-group-eyebrows-left-move" transform="matrix(1,0,0,1,0,0)">
					<g id="svga-group-eyebrows-left-rotate" transform="matrix(1,0,0,1,0,0)">
						<g id="svga-group-eyebrows-left">
							<path id="SvgjsPath15444" class="st16" d="M41.6,53.2c0.3-0.7,1.1-1.4,1.6-1.9c0.5-0.6,1.1-1.2,1.6-1.7
								c0.2-0.6,0.7-0.9,1.2-1.4l0.1-0.1c0.1-0.1,0.1-0.2,0.2-0.3c0.2-0.3,0.4-0.6,0.7-0.9h0.1l0.1-0.1c0.1,0,0.1-0.1,0.1-0.1
								c0.1-0.1,0.1-0.1,0.2-0.1c0.1-0.1,0.1-0.1,0.2,0h0.1c0.2,0,0.2,0.1,0.3,0.2h0.1c0.3,0.1,0.6,0.2,0.9,0.2
								c0.2,0.1,0.2,0.2,0.2,0.3l0.9,0.4c0.2,0.1,0.5,0.2,0.8,0.4c0.4,0.2,0.7,0.3,1.1,0.5c0.1,0.1,0.2,0.1,0.2,0.2
								c0.1,0,0.1,0.1,0.1,0.1c0.1,0,0.1,0.1,0.1,0.1c0.1,0.1,0.1,0.1,0.2,0.1c0.8,0.2,1.6,0.6,2.3,1c0.1,0.1,0.1,0.1,0.2,0.2
								s0.1,0.1,0.2,0.1c0.2,0.1,0.3,0.1,0.5,0.2c0.6,0.2,1.2,0.4,1.7,0.8c0.1,0.1,0.1,0.1,0.1,0.2c0.1,0.1,0.2,0.1,0.3,0.2
								c0.2,0.1,0.1,0.5-0.2,0.4c-0.1,0-0.1-0.1-0.2-0.1c-0.1,0.4-0.3,0.7-0.6,1.1v0.1c0,0.1,0,0.2-0.1,0.4c0,0.2-0.2,0.5-0.5,0.4
								l-2.2-1.5c-0.8-0.5-1.6-1-2.4-1.6c-0.9-0.5-1.7-1-2.6-1.6c-0.5-0.2-0.9-0.6-1.4-0.9c-0.1,0.1-0.3,0.2-0.4,0.2
								c-0.4,0.3-0.7,0.6-1.1,0.9c-0.5,0.4-1,0.8-1.6,1c-0.2,0.2-0.4,0.5-0.7,0.7c-0.3,0.3-0.7,0.7-1.1,0.9
								c-0.1,0.1-0.2,0.2-0.4,0.2c-0.3,0.3-0.6,0.6-0.9,0.7C41.7,53.5,41.5,53.3,41.6,53.2L41.6,53.2z"/>
							<path id="SvgjsPath15445" class="st17" d="M56.3,54c0-0.1,0.1-0.1,0.1-0.2c-0.1-0.1-0.1-0.1-0.1-0.2c0.1-0.4,0.2-0.8,0.2-1.2
								c0.1-0.6-0.1-1-0.2-1.5c-0.1-0.1,0.1-0.2,0.2-0.2c0.9,0.6,0.6,1.8,0.2,2.7c0.1-0.1,0.2-0.2,0.2-0.3c0.2-0.4,0.4-0.7,0.6-1.2
								c0.1-0.2,0.4-0.1,0.3,0.1c-0.1,0.4-0.2,0.9-0.5,1.3c-0.2,0.3-0.6,0.9-0.9,1C56.3,54.3,56.2,54.2,56.3,54L56.3,54z M47.9,46.7
								c1.4,1,2.6,2.4,3.9,3.6c0.7,0.6,1.4,1.1,2.2,1.6c-0.4-0.6-0.7-1.1-1.2-1.5c-0.7-0.8-1.6-1.4-2.4-2.2c-0.1-0.1,0-0.4,0.2-0.3
								c1.9,0.9,3.2,2.7,4.1,4.6l0.7,0.6c-0.2-0.5-0.4-1.1-0.7-1.6c-0.3-0.6-0.7-1.1-1.1-1.6c-0.1-0.1,0.1-0.2,0.2-0.2
								c1.2,0.7,1.9,2.4,2,3.7l0.1,0.1c0.1,0.1,0,0.2-0.1,0.2c-0.1,0.1-0.2,0.1-0.2,0c0-0.1-0.1-0.1-0.1-0.1
								c-1.5-0.7-2.9-1.8-4.2-2.8c-1.3-1.1-3-2.2-3.9-3.7C47.6,46.8,47.8,46.6,47.9,46.7L47.9,46.7z M45.4,48.7
								c0.2-0.3,0.7-0.4,1.1-0.4c0.4-0.1,0.9-0.1,1.3,0.1c0.1,0.1,0.1,0.2-0.1,0.2c-0.4,0.1-0.8,0-1.2,0c-0.4,0.1-0.7,0.2-1.1,0.2
								C45.4,49,45.3,48.9,45.4,48.7z M43.9,50.4c0.4-0.4,1.1-0.6,1.6-0.7c0.6-0.2,1.3-0.5,2-0.7c0.1-0.1,0.2,0.1,0.1,0.2
								c-0.6,0.3-1.2,0.6-1.8,0.9c-0.6,0.2-1.1,0.6-1.7,0.7C43.9,50.7,43.8,50.4,43.9,50.4L43.9,50.4z"/>
							<path id="SvgjsPath15446" class="st18" d="M47.8,49c1.3,1,2.8,1.8,4.2,2.7c1.5,0.9,2.9,1.9,4.5,2.7v0.1
								c-0.1,0.1,0.1,0.2,0.2,0.2c0.1,0.1,0.1,0.1,0.2,0.1c0.5-0.2,0.9-0.8,1.2-1.2c0.4-0.5,0.7-1,0.9-1.6c0.1-0.2-0.2-0.2-0.3-0.1
								c-0.2,0.2-0.4,0.5-0.5,0.7c0.1-0.5,0.2-1,0.2-1.4c0-0.1-0.1-0.1-0.1-0.1c-0.1-0.1-0.2-0.2-0.2-0.1c-0.1,0.1-0.2,0.2-0.3,0.4
								c-3.2-1.8-6.7-3.2-10-4.9h-0.2c-1.4,1.2-2.6,2.5-3.7,3.8c-1.2,1.3-2.5,2.6-3.4,4.1v0.1c-0.1,0.1-0.1,0.2-0.2,0.2
								c-0.1,0.1,0,0.2,0.1,0.2c1.4-0.6,2.6-1.7,3.7-2.7C45.3,51.1,46.6,50.1,47.8,49z M47.7,48.7c-1.4,0.9-2.7,1.9-4,2.9
								c-0.4,0.4-1,0.7-1.4,1.1c0.6-0.7,1.1-1.4,1.7-2.1c1.2-1.3,2.4-2.6,3.5-3.9c3.3,1.6,6.6,3.4,9.9,4.7c-0.1,0.2-0.3,0.3-0.4,0.6
								c-0.1,0.1,0.1,0.2,0.2,0.2c0.2-0.1,0.3-0.1,0.4-0.2c-0.1,0.3-0.2,0.6-0.3,0.8c-0.2,0.5-0.5,0.9-0.8,1.3
								c-1.4-1-2.9-1.9-4.4-2.9c-1.4-0.9-2.7-1.9-4.2-2.7C47.9,48.5,47.8,48.6,47.7,48.7L47.7,48.7z"/>
						</g>
					</g>
				</g>
				<g id="svga-group-eyebrows-right-move" transform="matrix(1,0,0,1,0,0)">
					<g id="svga-group-eyebrows-right-rotate" transform="matrix(1,0,0,1,0,0)">
						<g id="svga-group-eyebrows-right">
							<path id="SvgjsPath15447" class="st16" d="M84.1,53.2c-0.3-0.7-1.1-1.3-1.6-1.9c-0.6-0.6-1.1-1.2-1.6-1.7
								c-0.2-0.5-0.7-0.9-1.2-1.4l-0.1-0.1c-0.1-0.1-0.1-0.2-0.2-0.3c-0.2-0.3-0.4-0.6-0.7-0.9c-0.1-0.1-0.1-0.1-0.1-0.1l-0.1-0.1
								c-0.1,0-0.1-0.1-0.1-0.1c-0.1-0.1-0.1-0.1-0.2-0.1c-0.1-0.1-0.1-0.1-0.2,0h-0.1c-0.2,0-0.2,0.1-0.3,0.2h-0.1
								c-0.3,0.1-0.6,0.2-0.9,0.2c-0.2,0.1-0.2,0.2-0.2,0.3l-0.9,0.4c-0.2,0.1-0.5,0.2-0.8,0.4c-0.4,0.2-0.7,0.3-1.1,0.5
								c-0.1,0.1-0.2,0.1-0.2,0.2c-0.1,0-0.1,0.1-0.1,0.1c-0.1,0.1-0.1,0.1-0.1,0.1c-0.1,0.1-0.1,0.1-0.2,0.1
								c-0.8,0.2-1.6,0.6-2.3,1c-0.1,0.1-0.1,0.1-0.2,0.2c-0.1,0.1-0.1,0.1-0.2,0.1c-0.2,0.1-0.3,0.1-0.5,0.2
								c-0.6,0.2-1.2,0.4-1.7,0.8c-0.1,0.1-0.1,0.1-0.1,0.2c-0.1,0.1-0.2,0.1-0.3,0.2c-0.2,0.1-0.1,0.5,0.2,0.4
								c0.1,0,0.1-0.1,0.2-0.1c0.1,0.4,0.3,0.7,0.6,1.1v0.1c0,0.1,0,0.2,0.1,0.4c0,0.2,0.2,0.5,0.5,0.4l2.2-1.5
								c0.8-0.5,1.6-1,2.3-1.6c0.9-0.5,1.7-1,2.6-1.6c0.5-0.2,0.9-0.6,1.4-0.9c0.1,0.1,0.3,0.2,0.4,0.2c0.4,0.3,0.7,0.6,1.1,0.9
								c0.5,0.4,1,0.8,1.6,1c0.2,0.2,0.4,0.5,0.7,0.7c0.3,0.3,0.7,0.7,1.1,0.9c0.1,0.1,0.2,0.2,0.4,0.2c0.3,0.3,0.6,0.6,0.9,0.7
								C83.9,53.5,84.1,53.3,84.1,53.2L84.1,53.2z"/>
							<path id="SvgjsPath15448" class="st17" d="M69.4,54c0-0.1-0.1-0.1-0.1-0.2c0.1-0.1,0.1-0.1,0.1-0.2c-0.1-0.4-0.2-0.8-0.2-1.2
								c-0.1-0.6,0.1-1,0.2-1.5c0.1-0.1-0.1-0.2-0.2-0.2c-0.8,0.6-0.6,1.8-0.2,2.7c-0.1-0.1-0.2-0.2-0.2-0.3
								c-0.2-0.4-0.4-0.7-0.6-1.2c-0.1-0.2-0.4-0.1-0.3,0.1c0.1,0.4,0.2,0.9,0.5,1.3c0.2,0.3,0.6,0.9,0.9,1
								C69.3,54.3,69.4,54.2,69.4,54L69.4,54z M77.7,46.7c-1.4,1-2.6,2.4-3.9,3.6c-0.7,0.6-1.4,1.1-2.2,1.7c0.4-0.6,0.7-1.1,1.2-1.5
								c0.7-0.8,1.6-1.4,2.4-2.2c0.1-0.1,0-0.4-0.2-0.3c-1.9,0.9-3.2,2.7-4.1,4.6l-0.7,0.6c0.2-0.5,0.4-1.1,0.7-1.6
								c0.3-0.6,0.7-1.1,1.1-1.6c0.1-0.1-0.1-0.2-0.2-0.2c-1.2,0.7-1.9,2.4-2,3.7l-0.1,0.1c-0.1,0.1,0,0.2,0.1,0.2
								c0.1,0.1,0.2,0.1,0.2,0c0-0.1,0.1-0.1,0.1-0.1c1.5-0.7,2.9-1.8,4.2-2.9c1.3-1.1,3-2.2,3.9-3.7C78.1,46.8,77.9,46.6,77.7,46.7
								L77.7,46.7z M80.2,48.7c-0.2-0.3-0.7-0.4-1.1-0.4c-0.4-0.1-0.9-0.1-1.3,0.1c-0.1,0.1-0.1,0.2,0.1,0.2c0.4,0.1,0.8,0,1.2,0
								c0.4,0.1,0.7,0.2,1.1,0.2C80.2,48.9,80.3,48.9,80.2,48.7z M81.7,50.4c-0.4-0.4-1.1-0.6-1.6-0.7c-0.6-0.2-1.3-0.5-2-0.7
								C78,48.8,77.9,49,78,49.1c0.6,0.3,1.2,0.6,1.8,0.9c0.6,0.2,1.1,0.6,1.7,0.7C81.7,50.7,81.8,50.4,81.7,50.4L81.7,50.4z"/>
							<path id="SvgjsPath15449" class="st18" d="M81.6,52.1c1.2,0.9,2.4,2.1,3.7,2.7c0.1,0.1,0.2-0.1,0.1-0.2
								c-0.1-0.1-0.1-0.2-0.2-0.2v-0.1c-0.9-1.5-2.2-2.8-3.4-4.1s-2.4-2.6-3.7-3.8c-0.1-0.1-0.1-0.1-0.1,0h-0.1
								c-3.3,1.6-6.7,3.1-10,4.9c-0.1-0.1-0.2-0.2-0.3-0.4c-0.1-0.1-0.2,0-0.2,0.1c-0.1,0-0.1,0.1-0.1,0.1c-0.1,0.4,0.1,0.9,0.2,1.4
								c-0.2-0.2-0.4-0.5-0.5-0.7c-0.1-0.1-0.4-0.1-0.3,0.1c0.2,0.6,0.5,1.1,0.9,1.6c0.3,0.4,0.7,1.1,1.2,1.2c0.1,0,0.1,0,0.2-0.1
								c0.1,0.1,0.3-0.1,0.2-0.2v-0.1c1.5-0.9,3-1.8,4.5-2.7c1.4-0.9,2.9-1.7,4.2-2.7C79,50.1,80.3,51.1,81.6,52.1L81.6,52.1z
								 M77.6,48.6c-1.5,0.7-2.9,1.7-4.2,2.7c-1.4,0.9-2.9,1.9-4.4,2.9c-0.2-0.4-0.6-0.8-0.8-1.3c-0.1-0.2-0.2-0.6-0.3-0.8
								c0.1,0.1,0.2,0.2,0.4,0.2c0.1,0,0.2-0.1,0.2-0.2c-0.1-0.2-0.2-0.4-0.4-0.6c3.4-1.4,6.7-3.2,9.9-4.7c1.1,1.3,2.4,2.6,3.5,3.9
								c0.6,0.7,1.2,1.4,1.7,2.1c-0.5-0.4-1-0.7-1.5-1.1c-1.3-1-2.6-2-4-2.9C77.9,48.6,77.7,48.4,77.6,48.6z"/>
						</g>
					</g>
				</g>
				<g id="svga-group-beardwrap">
					<g id="svga-group-beard-single-move" transform="matrix(1,0,0,1,0,1)">
						
							<g id="svga-group-beard-single" transform="matrix(0.8499994000000002,0,0,0.8499994000000002,14.91270575348966,20.651389711246466)">
							<path id="SvgjsPath15512" class="st16" d="M73,66l0.4,0.4c0,0-0.3-2.5-2.8-3.9c-2.5-1.4-6.2-0.6-8.3-0.1
								c-2.1,0.6-3.9,1.7-5.7,1.7c-5.1,0-7.4-3.1-14-2.1c-6.6,1.1-4.2,12.7-2.1,17l0.4-0.6c0,0,1.9,5.2,4.8,7.6l0.1-0.6
								c0,0,3.3,3.8,8.9,5.2s9.3-1.9,9.3-1.9v0.6c0,0,4.6-3.1,5.8-5.7c0,0,2.6-3.7,3.5-8.2C74,70.7,73,66,73,66L73,66z M67.5,75.4
								c-1.9,4.5-5,5.1-6.7,4.6c-1.7-0.5-0.9-3.3-0.9-3.3c-1.9,0.2-6.1-0.1-6.1-0.1s1.6,3.6-3.1,3.4s-8.1-7.7-8.4-9.8
								s0.1-5.2,2.7-6.1c2.6-0.9,8.6,1.6,11.2,1.5c4.8-0.2,8-2.1,10.9-1.6C70.1,64.4,69.4,70.9,67.5,75.4L67.5,75.4z"/>
							<path id="SvgjsPath15513" class="st18" d="M43.6,74.6c-1.3-3.3-2.8-7.6,1.1-9.8c2.9-1.6,5.7,0.1,8.6,0.6
								c4.8,0.9,8.7-1.7,13.3-1.8c0.1,0,0.1-0.2,0-0.2c-3.5-0.5-6.9,1.6-10.4,1.6c-3.3,0-6.4-2-9.8-1.6c-5.9,0.7-5.6,7.4-3.3,11.4
								C43.3,74.9,43.7,74.8,43.6,74.6L43.6,74.6z M40.2,63.6c0.1-0.1-0.1-0.1-0.1-0.1C37,68,38,74,40.3,78.5
								c0.1,0.2,0.4,0.1,0.4-0.2C38.8,73.3,37.7,68.7,40.2,63.6z M40.5,76.5c-0.1-0.1-0.2-0.1-0.2,0.1c0.8,3.6,2.5,7.6,5.3,10
								c0.1,0.1,0.4-0.1,0.2-0.2C43.7,83.1,41.6,80.4,40.5,76.5z M56.7,90.9c-3.1,0-5.1-1.7-7.1-3.8c-0.1-0.1-0.3,0.1-0.2,0.2
								c0.6,0.8,1.4,1.7,2.2,2.4c-1.2-0.8-2.5-1.6-3.6-2.6c-1.2-1.2-2.1-2.6-2.9-4c-0.1-0.1-0.3-0.1-0.2,0.1c1.1,3.1,3.8,6.3,7,7.2
								c0.2,0.1,0.2-0.1,0.2-0.2c1.3,1,2.9,1.6,4.6,1.1C56.9,91.1,56.8,90.9,56.7,90.9L56.7,90.9z M57.7,90.3
								c-1.9-0.2-3.4-0.6-4.7-1.9c-0.2-0.1-0.4,0.1-0.2,0.2c1.2,1.3,3.2,2.4,5.1,2C58,90.6,58,90.3,57.7,90.3L57.7,90.3z M59.3,90.1
								c-0.5-0.1-1.1-0.2-1.6-0.5c-0.1-0.1-0.2,0.1-0.1,0.2c0.5,0.2,1.1,0.4,1.6,0.4C59.4,90.2,59.4,90.1,59.3,90.1z M45.2,81.6
								c0.1,0.1,0.2-0.1,0.1-0.2c-2.1-2.1-3.8-4.3-4.9-7.1c-0.1-0.1-0.2-0.1-0.2,0.1C41.2,77.2,42.8,79.8,45.2,81.6L45.2,81.6z
								 M54.1,76.8c-0.1-0.2-0.4-0.2-0.4,0.1c-0.1,0.7,0,1.4-0.2,2s-0.6,1.1-1.1,1.4c-0.1,0.1-0.1,0.4,0.1,0.4
								C54.2,80.5,54.4,78.1,54.1,76.8L54.1,76.8z M46.6,82.4c-0.1-0.1-0.2,0-0.2,0.1c0.4,0.7,1.2,1.4,1.9,2c0.1,0.1,0.1,0.1,0.2,0
								c1.1,1.2,2.4,2.1,3.9,2.5c0.1,0,0.2,0,0.2-0.1c0.7,0.6,1.6,1.1,2.4,1.4c0.1,0.1,0.2-0.2,0.1-0.2c-1.6-0.9-3.1-1.8-4.2-3.2
								c-0.1-0.1-0.3,0.1-0.2,0.2c0.3,0.4,0.7,0.8,1.1,1.2c-1.9-1-3.2-2.3-4.5-4.1c-0.1-0.1-0.2-0.1-0.2,0.1c0.2,0.5,0.5,1,0.8,1.5
								c-0.1-0.1-0.2-0.2-0.4-0.4C47.2,83,47,82.7,46.6,82.4L46.6,82.4z M63.1,88.3c-0.7,0.7-1.5,1.3-2.4,1.8
								c-0.2,0.1,0,0.3,0.1,0.2c0.9-0.4,1.8-1,2.4-1.9C63.3,88.4,63.2,88.2,63.1,88.3L63.1,88.3z M67,84.8c-0.9,1.6-1.8,3-3.3,4.2
								c-0.1,0.1,0.1,0.3,0.2,0.2c1.6-0.9,2.9-2.5,3.4-4.3C67.3,84.8,67,84.7,67,84.8z M72.3,75.6c-0.2,1.5-0.6,2.9-1.1,4.3
								c-0.1-0.1-0.2-0.1-0.3,0.1c-0.4,1.2-0.8,2.4-1.5,3.4c-0.7,1.1-1.6,1.9-2.5,2.8c-0.1,0.1,0.1,0.3,0.2,0.2
								c2.1-1.2,3.7-3.6,4.1-5.9c0.9-1.5,1.4-3.2,1.4-4.9C72.5,75.5,72.3,75.5,72.3,75.6z M69,73.1c-0.9,3.5-2.8,7.4-6.9,7.8
								c-0.2,0-0.2,0.2-0.1,0.3C69,82.9,74,65.4,67.1,63.6c-0.1-0.1-0.2,0.1-0.1,0.2C70.3,65.3,69.7,70.1,69,73.1z M73.4,69.1
								c0-0.1-0.2-0.1-0.2,0c0.2,1.4,0.1,2.7,0.1,4.1c0,0.1,0.2,0.1,0.2,0.1C73.8,71.8,73.7,70.4,73.4,69.1z M72.8,71.5
								c0.2,1.9,0,3.7-0.2,5.6c0,0.2,0.2,0.2,0.3,0.1c0.7-1.8,0.6-3.9,0.2-5.7C73,71.3,72.8,71.4,72.8,71.5L72.8,71.5z M61.5,86.1
								c-0.7,1.3-1.4,2.4-2.4,3.6c-0.1,0.2,0.1,0.4,0.2,0.2c1.1-1,2-2.2,2.4-3.7C61.8,86.1,61.6,86,61.5,86.1z M62.8,86L62,87.1
								c-0.3,0.4-0.6,0.7-1,1.1c-0.1,0.1,0.1,0.4,0.2,0.2c0.7-0.6,1.4-1.4,1.7-2.2C63,86,62.9,85.9,62.8,86L62.8,86z M64.2,84.9
								c-0.2,0.6-0.5,1.1-0.9,1.6c-0.1,0.1,0.1,0.2,0.2,0.1C63.8,86,64.1,85.5,64.2,84.9C64.2,84.9,64.2,84.9,64.2,84.9L64.2,84.9z
								 M51.8,83c-0.1-0.1-0.2,0.1-0.2,0.2c0.6,0.6,1.1,1.4,1.7,1.9c0.1,0.1,0.2,0,0.2-0.1C53,84.2,52.4,83.5,51.8,83L51.8,83z
								 M55.6,86.9c-0.2-0.3-0.5-0.6-0.7-0.8c-0.2-0.3-0.5-0.7-0.7-1.1c-0.1-0.1-0.3,0-0.2,0.1C54.4,85.8,54.8,86.6,55.6,86.9
								C55.5,87,55.7,86.9,55.6,86.9L55.6,86.9z M55.6,86.5c0.1,0.4,0.2,0.9,0.4,1.2c0.1,0.1,0.2,0,0.2-0.1
								c-0.1-0.4-0.3-0.7-0.4-1.1C55.9,86.3,55.6,86.4,55.6,86.5z"/>
						</g>
					</g>
				</g>
				<g id="svga-group-nose-single-move" transform="matrix(1,0,0,1,0,0)">
					<g id="svga-group-nose-single">
						<path id="SvgjsPath15484" class="st3" d="M63.2,75c-0.7,0.1-2.2-0.8-2.4-0.8c-0.2,0-0.7,0.6-1.6,0.6s-1.7-0.2-1.7-1.1
							c0-0.9,0.7-2.4,0.8-3.3c0.2-0.9,0.3-1.7,0.9-1.8c0,0,0.1-0.4,0.3-1s0.8-5.6,1.1-6.2c0.3-0.6,3.2-1.3,4.4,0.2
							c0,0,1.1,6.5,1.3,6.9c0,0,0.5,0.1,0.7,1.1c0.3,0.9,0.7,2,1,2.6c0.3,0.6,0.4,1.5,0.2,1.9c-0.3,0.4-0.7,0.4-0.7,0.4
							s-0.9,0.1-1.2-0.2s-0.7-0.4-0.9-0.4c-0.2,0-0.7,0.7-1.3,0.9C63.6,75,63.2,75,63.2,75L63.2,75z"/>
						<path id="SvgjsPath15485" class="st6" d="M59.6,74.6c-0.4,0.1-0.8,0-1.1-0.4c-0.7-0.1-1-0.4-0.7-1c0.1-0.5,0.2-0.9,0.3-1.4
							c0.1-0.5,0.2-0.9,0.3-1.4l0.1-0.5c0-0.6,0.4-0.9,1-1c0.1,0.2,0.3,0.1,0.3,0c0-0.3-0.2-0.5-0.4-0.6c0.6-1.8,0.8-3.8,1.1-5.7
							c0.3-1.9,0.6-3.8,0.7-5.7c0-0.1-0.1-0.1-0.1,0c-0.4,2-0.7,4-1,6.1c-0.3,1.8-0.8,3.5-0.9,5.3c-0.1,0-0.2,0-0.3,0.1
							c-0.8,0.4-0.9,2.2-1.1,2.9c-0.2,0.8-0.9,2.5-0.3,3.3c0.5,0.7,1.5,0.6,2.1,0.3C59.8,74.7,59.7,74.5,59.6,74.6z"/>
						<path id="SvgjsPath15486" class="st6" d="M65.2,73.5c-0.2,0.1-0.4,0.3-0.6,0.5c-0.8,0.7-1.5,0.9-2.5,0.5
							c-1.1-0.5-2.5-1.7-3.7-0.7c-0.1,0.1,0,0.2,0.1,0.2c1.9-0.4,2.8,1.2,4.5,1.3c1.5,0.1,2.1-1.5,3.5-1.6c0.1,0,0.2-0.2,0.1-0.3
							C66.1,73.1,65.7,73.2,65.2,73.5L65.2,73.5z"/>
						<path id="SvgjsPath15487" class="st6" d="M66.3,67.6c-0.1-1.5-0.5-3.1-0.8-4.6c-0.3-1.7-0.6-3.4-0.8-5c0-0.1-0.1,0-0.1,0
							c0.3,3.2,0.5,6.6,1.5,9.7C66.1,67.7,66.3,67.7,66.3,67.6L66.3,67.6z"/>
						<path id="SvgjsPath15488" class="st6" d="M67.9,70.9c-0.3-0.7-0.6-2.1-1.2-2.6c-0.4-0.3-0.8-0.3-1,0.2c0,0.1,0.1,0.1,0.1,0.1
							c0.5-0.7,1,1,1.1,1.2c0.2,0.5,0.4,1,0.5,1.4c0.3,0.8,1.3,2.7-0.2,3.1c-0.1,0-0.1,0.2,0,0.3c0.5,0.2,1,0,1.3-0.5
							C69,73.1,68.2,71.8,67.9,70.9L67.9,70.9z"/>
						<path id="SvgjsPath15489" class="st11" d="M64.3,68.3c-0.2-1.6-0.4-3.2-0.6-4.8c-0.2-1.5,0-3.1-0.6-4.4
							c-0.1-0.2-0.4-0.1-0.5,0.1c-0.4,1.1-0.2,2.3-0.2,3.4c0,1.2,0,2.4,0.2,3.6c0.1,1.1,0.2,2.2,0.4,3.3c0.1,1,0.9,2.8,0,3.4
							c-0.3,0.2-0.3,0.7,0.1,0.8C65.9,74.2,64.5,69.7,64.3,68.3z"/>
						<path id="SvgjsPath15490" class="st11" d="M67.7,72.3c-0.2-0.6-0.4-1.3-0.6-1.9c-0.2-0.5-0.3-1-0.8-1.4
							c-0.1-0.1-0.2,0-0.2,0.1c-0.2,0.7,0.2,1.5,0.4,2.2c0.2,0.7,0.9,1.9,0.2,2.5c-0.3,0.3,0.1,0.7,0.4,0.5
							C67.9,73.9,67.9,73,67.7,72.3z"/>
					</g>
				</g>
				<g id="svga-group-hair-front">
					<path id="SvgjsPath15524" class="st19" d="M85.2,41.5c-0.6,2.1-0.6,3.2-0.6,4.7c0.1,1.5-0.6,3.2,0.7,3c1.3-0.2,2.7-0.4,3.6-2.6
						c0.8-2.2,1.9-5.1,1.8-6.2c-0.1-1.1-2.3-5.6-2.3-5.6l-2.1,4.9L85.2,41.5z"/>
					<path id="SvgjsPath15525" class="st18" d="M90.2,46.3c0.2-2.2,0.6-5.3,0.1-5.8c-0.5-0.5-3.5,1.4-3.7,3
						c-0.2,1.6-0.2,4.7-0.2,4.7c-0.4,1.7-0.5,2.5-0.4,3.6c0.1,1.1-0.6,2.4,0.4,2.2c0.1,0,0.1,0,0.1-0.1c-0.2,1.4-0.1,2.4,0.1,3.4
						c0.2,1.4-0.4,2.8,0.6,2.9c1.1,0.1,1.7-0.4,2.2-2.4c0.5-2,0.8-4,0.9-5.9c0.1-1.6,0.1-3.9-0.1-5.2C90.2,46.6,90.2,46.4,90.2,46.3
						z M39.2,50.6c-0.3-1-0.2-2.5-0.6-3.3s-2.2-4-2.2-4c-0.6,1.1-1.4,2.4-1.4,4.4c0,1.7-0.2,2.9,0.1,3.9c-0.1,0.7-0.1,1.5,0,1.9
						c0.1,0.7,1.1,5.1,2.1,5.7c0.9,0.5,1.5-1.8,1.4-3.9C39.6,53.5,39.5,51.5,39.2,50.6L39.2,50.6z"/>
					<path id="SvgjsPath15526" class="st19" d="M37.4,38.2c-0.6,0.5-1.4,2-1.7,3.6c-0.2,1.6-0.2,3.1,0.1,3.9
						c0.4,0.7,2.2,4.6,3.5,3.9s0.8-1.9,0.7-3.9c-0.1-2,0.1-2.3-0.4-4C39,39.9,37.4,38.2,37.4,38.2L37.4,38.2z M42.9,15
						c-0.4-1.6,1.9,0.9,1.8,4.7c-0.1,3.9,0.6,6.6,2.4,8.1c1.7,1.5,8.2,7,8.2,7s-1.5,0.4-4.5-0.4c-3-0.9-6.9-2.2-8.9-4.7
						c-2-2.6-1.4-6.4-0.6-8.2C42.3,19.6,43.5,17.1,42.9,15L42.9,15z M75.1,35c1.4-0.4,3.6-1.1,4.7-0.4c1,0.7,1.1,2.9,3.3,2.9
						c2.2-0.1,4.2-4.1,4.1-5.9c-0.1-1.8-1.5-4.9-3.7-5.7s-1.9,1.6-2.2,2.6c-0.2,0.9,0.1,1.6-2.2,3.2C76.9,33.4,75.1,35,75.1,35
						L75.1,35z"/>
					<path id="SvgjsPath15527" class="st16" d="M82.4,36.6c-0.1,0.7-0.2,2.7,0.7,4c0.9,1.2,0.4,2.7,2.4,1.9c2-0.7,4.3-3.4,4.1-5.3
						c-0.1-1.9-1.7-6.6-3.3-7.5c-1.7-0.8-1.8,2.9-1.8,2.9L82.4,36.6L82.4,36.6z M41.8,25.1c-1.1,1.3-3.1,1.7-2.6,4.1
						s3.4,4.8,6.1,5.2c2.7,0.4,4.8-0.1,5.2-0.4c0.4-0.3-6-3.9-6-3.9L41.8,25.1z"/>
					<path id="SvgjsPath15528" class="st19" d="M39.6,28.5c-0.7,0.6-1.5,0.9-1.7,2.7s-0.3,2.1,0.7,4.2c1.1,2.1,1.2,3.3,2.9,2.9
						c1.6-0.4,3.4-1.8,3.2-4.1c-0.2-2.2-1.7-0.8-2.4-2.8c-0.7-2-1.3-2.4-1.3-2.4L39.6,28.5z"/>
					<path id="SvgjsPath15529" class="st18" d="M38.4,32.7c-0.7,1-1.6,1.2-1.8,3.1c-0.2,1.9-0.8,1.8,0.4,4s2.5,4.8,3.7,3.6
						c1.2-1.2,1-1.9,1.2-3.4c0.2-1.5-0.4-3.1-1.1-4.4C40.1,34.2,38.4,32.7,38.4,32.7L38.4,32.7z M59.9,35.8c0,0-4,0-6.3-1.1
						c-2.3-1.1-7.2-5.4-8.2-8.5c-1-3.1,0.2-9-0.5-11.8c0,0,0.9,2.4,1.8,3.6c0.9,1.2,2.7,1.2,5.7,3c3,1.7,5.7,5.3,6.1,8
						C59,31.7,59.9,35.8,59.9,35.8L59.9,35.8z"/>
					<path id="SvgjsPath15530" class="st19" d="M46.4,11.4c-0.1-0.3-1.2,4.2,1.2,6.6c2.5,2.4,6.4,5.2,7.2,8.4
						c0.8,3.2,0.6,3.8,1.4,5.8c0.9,2,2,4,3.6,4.7c1.6,0.7,4.6-0.1,4.6-0.6c0-0.5,2.6,2.2,4.2,1.4c1.7-0.8,6.4-6.6,7.1-10.7
						c0.7-4.1-1.5-8.5-4.2-9.2s-13.5-1.5-15.7-2.7s-3.2-2.3-3.5-3.2c0,0-0.2,2.1,1.9,4.6c2.1,2.5,6.1,4.1,6.1,4.1s2.9,0.7,3.3,3.1
						c0,0-5.1-4-9.4-5.6C50,16.7,48,17.7,46.4,11.4L46.4,11.4z"/>
					<path id="SvgjsPath15531" class="st16" d="M65.6,37.8c0,0-2.6,0.2-3.6-2.8c-1-3-0.4-8.7-2.2-11.7s-8.7-4.6-10.4-6.4
						C47.6,15,46.9,11,46.9,11s1.7,4.9,4.2,5.2c2.4,0.3,10.8,3.1,13.6,4.3c2.7,1.2,5.7,6.4,5.1,9.7C69.2,33.5,68.2,38.1,65.6,37.8
						L65.6,37.8z"/>
					<path id="SvgjsPath15532" class="st18" d="M69.4,16.8c0.4,0,6.7,1.8,9.9,2.8c3.2,1,10.6,6.4,2.7,11.1s-5,5.5-12.7,6.8
						c-2.1,0.4,2.2-3.5,3.9-6.9c1.7-3.4,1.6-9.1,0.6-10.4C73.1,19,69.4,16.8,69.4,16.8L69.4,16.8z"/>
					<path id="SvgjsPath15533" class="st17" d="M60.5,36.9c-2.2-1.9-3.4-4.2-4-7c-0.4-2-0.2-4.2-1.1-6.1c-0.6-1.1-1.4-1.9-2.4-2.6
						c-2.7-1.9-4.9-3.1-6.1-6.6c-0.1-0.1-0.2-0.1-0.2,0.1c0.5,1.9,1.4,3.5,2.9,4.7c2.6,2.3,5.4,3,5.9,7.1c0.5,3.9,1,8.4,4.9,10.5
						C60.4,37.1,60.6,36.9,60.5,36.9L60.5,36.9z M62.1,36.5c-3.8-1.7-5.1-5.2-5.4-9.1c0-0.1-0.2-0.1-0.2,0c-0.1,3.9,1.7,8,5.6,9.3
						C62.1,36.7,62.2,36.6,62.1,36.5L62.1,36.5z M64.2,36.8c-2.2-2.5-2.7-5.2-2.7-8.5c0.1-1.8,0.3-3.7-0.7-5.3
						c-0.9-1.4-2.3-1.9-3.7-2.6c-2.3-1.1-4.6-2.2-6.9-3.2c-0.1,0-0.1,0.1-0.1,0.1c2.2,1.2,4.5,2.3,6.7,3.4c1.7,0.9,3.2,1.5,3.9,3.7
						c0.4,1.2,0.1,2.6,0.1,3.8c-0.1,3.4,0.7,6.2,3.1,8.6C64.2,37.1,64.4,36.9,64.2,36.8z M66.5,36.6c-2.3-2-1-4.3-0.9-6.9
						c0-1.6-0.4-3.1-1.2-4.4c-0.1-0.1-0.2,0-0.1,0.1c0.7,1.5,1.1,3.1,1,4.7c-0.1,1.1-0.5,2.2-0.5,3.3C64.6,34.8,65.3,35.9,66.5,36.6
						C66.5,36.8,66.6,36.7,66.5,36.6z M77.9,20.6c-0.1-0.1-0.2,0.1-0.1,0.2c0.5,0.2,1,0.3,1.5,0.5v0.1c4.7,4.1-1.7,9.1-4.8,11.3
						c-0.1,0.1,0,0.2,0.1,0.2c3.3-1.7,10-7.8,5.1-11.4c1.9,0.8,2.4,1.2,2.9,3.4c0.5,2,0.2,3.1-1.2,4.6c-0.8,0.9-1.9,1.5-3,2.1
						c-2.6,1.6-4.9,3.6-7.6,5.1c-0.1,0,0,0.1,0.1,0.1c2.7-1.2,5.1-3.4,7.7-5c1.7-1.1,3.6-2.2,4.4-4.1C84.9,23.8,81.3,21.5,77.9,20.6
						L77.9,20.6z M71.4,18.6c-0.1,0-0.1,0.1,0,0.1c2.9,0.6,6.1,1.3,6.6,4.8c0.3,2.5-1.3,4.9-3,6.5c-2.2,2.1-4.6,3.7-5.1,6.9
						c-0.1,0.2,0.3,0.4,0.4,0.1c0.9-5.4,7.9-6.8,8.2-12.7C78.7,20.1,74.9,18.8,71.4,18.6L71.4,18.6z M70.7,23.7
						c-2.6-5.9-10.9-5.4-15.4-9.1c-0.1-0.1-0.2,0.1-0.1,0.1c4.5,4.2,11.8,3.5,15.2,9.1C70.5,24.1,70.8,23.9,70.7,23.7L70.7,23.7z
						 M86.8,32.6c-0.1-0.1-0.2-0.1-0.2,0c0.1,3.3-3.9,5.3-2.8,8.7c0.1,0.1,0.2,0.1,0.2-0.1C83.1,37.9,87.5,36.1,86.8,32.6L86.8,32.6
						z M88.7,37.2c0-0.1-0.2-0.1-0.2,0c-0.4,1.1-0.6,2.2-1.2,3.3c-0.5,0.9-1.2,1.6-1.6,2.4c-0.6,1.2-0.7,2.5-0.3,3.8
						c0.1,0.1,0.2,0.1,0.2-0.1c-0.4-2.5,0.9-3.7,2.1-5.7C88.3,39.9,88.6,38.6,88.7,37.2L88.7,37.2z M89.2,38.5
						c0-0.2-0.2-0.1-0.3,0.1c-0.1,1.4-0.2,2.6-0.7,3.8c-0.1,0.1,0.1,0.2,0.2,0.1C88.9,41.3,89.4,39.9,89.2,38.5L89.2,38.5z
						 M89.2,45.8c0-0.1-0.2-0.1-0.2-0.1c-0.4,1.9-1,3.6-1.6,5.4c-0.4,1.2-0.5,2.2,0,3.4c0.1,0.2,0.4,0.1,0.3-0.1
						c-0.6-1.7,0.2-3.2,0.7-4.8C88.9,48.4,89.2,47.1,89.2,45.8L89.2,45.8z M89,50.8c-0.3,0.7-0.4,1.6-0.4,2.3c0,0.1,0.2,0.1,0.2,0
						c0-0.7,0.2-1.4,0.3-2.2C89.2,50.7,89.1,50.6,89,50.8L89,50.8z M54.6,33.3c-2.8-1-5.1-2.4-6.6-5.1c-1.6-2.7-1.4-5.6-1.4-8.7
						c0-0.2-0.3-0.2-0.3,0c-0.6,6.1,1.7,12.5,8.3,14C54.8,33.5,54.8,33.3,54.6,33.3z M49.3,32c-1.7-1.1-3.4-2.9-4.4-4.7
						c-1.2-2.1-1.1-4.6-1.1-6.9c0-0.2-0.2-0.2-0.2,0c-0.3,4.8,1.1,9.4,5.6,11.8C49.3,32.3,49.4,32.1,49.3,32L49.3,32z M46.9,32.1
						c-2.4-1.1-4.2-2.7-5.2-5.2c-0.1-0.1-0.3-0.1-0.2,0.1c0.7,2.5,2.7,4.8,5.4,5.4C46.9,32.4,47.1,32.1,46.9,32.1L46.9,32.1z
						 M44.3,33.1c-1.1-0.4-2.1-0.9-3-1.6c-0.1-0.1-0.1,0.1-0.1,0.1c0.9,0.6,1.9,1.2,3.1,1.6C44.3,33.1,44.3,33.1,44.3,33.1z
						 M41.6,36.1c-1-0.9-2-1.7-2.7-2.9c-0.1-0.1-0.2,0-0.2,0.1c0.7,1.1,1.7,2.2,2.8,2.9C41.5,36.2,41.6,36.1,41.6,36.1L41.6,36.1z
						 M76.3,23.1c-0.2-2.2-1.9-3.9-4.1-4.2c-0.1,0-0.1,0.1-0.1,0.1c2.6,0.9,4.4,3.2,3.6,6.1c-0.5,1.6-1.9,2.9-2.9,4.2
						c-0.1,0.1,0.1,0.1,0.1,0.1C74.6,27.6,76.6,25.8,76.3,23.1z M69.9,21.1c-0.1-0.1-0.2,0.1-0.1,0.1c3.5,4.1,0.5,8.9-0.9,13.2
						c-0.1,0.1,0.1,0.2,0.2,0.1C70.7,30.4,73.8,24.8,69.9,21.1L69.9,21.1z M59.5,20.5c-0.1,0-0.2,0.1-0.1,0.2
						c5.6,1.6,2.4,9,4.2,12.9c0.1,0.1,0.2,0,0.2-0.1C62.7,29.6,65.2,21.8,59.5,20.5z"/>
				</g>
				<g id="svga-group-glasses-single-move" transform="matrix(1,0,0,1,0,0)">
					<g id="svga-group-glasses-single">
						
							<linearGradient id="SvgjsPath15340_00000056407939534620440760000012747923953632675723_" gradientUnits="userSpaceOnUse" x1="25.2829" y1="99.4152" x2="25.2829" y2="94.2484" gradientTransform="matrix(3 0 0 -3 -25 350)">
							<stop  offset="2.100000e-02" style="stop-color:#3D2D1C"/>
							<stop  offset="0.383" style="stop-color:#402E1C;stop-opacity:0.629"/>
							<stop  offset="0.616" style="stop-color:#48321D;stop-opacity:0.39"/>
							<stop  offset="0.812" style="stop-color:#57381F;stop-opacity:0.188"/>
							<stop  offset="0.988" style="stop-color:#6C4221;stop-opacity:8.000000e-03"/>
							<stop  offset="0.996" style="stop-color:#6D4221;stop-opacity:0"/>
						</linearGradient>
						<path id="SvgjsPath15340" style="fill:url(#SvgjsPath15340_00000056407939534620440760000012747923953632675723_);" d="
							M50.9,51.8c-3.5-0.1-7.9,0.1-9.3,1.7c-1.3,1.7-1.4,8.3,0,11c1.4,2.7,8.1,3.5,13,2c4.9-1.5,6.9-11.4,6.5-12.6
							C60.7,52.8,55.8,52,50.9,51.8L50.9,51.8z"/>
						
							<linearGradient id="SvgjsPath15348_00000066515470950473695830000012930883736176610964_" gradientUnits="userSpaceOnUse" x1="92.036" y1="99.4152" x2="92.036" y2="94.2489" gradientTransform="matrix(-3 0 0 -3 350.8841 350)">
							<stop  offset="2.100000e-02" style="stop-color:#3D2D1C"/>
							<stop  offset="0.383" style="stop-color:#402E1C;stop-opacity:0.629"/>
							<stop  offset="0.616" style="stop-color:#48321D;stop-opacity:0.39"/>
							<stop  offset="0.812" style="stop-color:#57381F;stop-opacity:0.188"/>
							<stop  offset="0.988" style="stop-color:#6C4221;stop-opacity:8.000000e-03"/>
							<stop  offset="0.996" style="stop-color:#6D4221;stop-opacity:0"/>
						</linearGradient>
						<path id="SvgjsPath15348" style="fill:url(#SvgjsPath15348_00000066515470950473695830000012930883736176610964_);" d="
							M74.7,51.8c3.5-0.1,7.9,0.1,9.3,1.7c1.3,1.7,1.4,8.3,0,11c-1.4,2.7-8.1,3.5-13,2c-4.9-1.5-6.9-11.4-6.5-12.6
							C65,52.8,69.8,52,74.7,51.8L74.7,51.8z"/>
						<path id="SvgjsPath15356" class="st22" d="M85.3,51.9c-1.4-0.7-6.6-1-10.5-0.9c-5.3,0.2-9.7,0.5-12,0.5c-2.3,0-6.7-0.3-12-0.5
							c-3.9-0.1-9,0.2-10.5,0.9c-1.4,0.7-1.1,2.2-0.6,6.7c0.5,4.4,0.6,8.5,5.7,9c5,0.6,8.8,0.3,11-1.4c2.3-1.7,4.5-7.2,5.1-8.1
							c0.5-0.8,0.9-1,1.3-1.1c0.3,0.1,0.8,0.3,1.3,1.1c0.6,0.9,2.8,6.3,5.1,8.1c2.3,1.7,6,2,11,1.4c5-0.6,5.1-4.6,5.7-9
							C86.4,54.1,86.7,52.6,85.3,51.9L85.3,51.9z M58.3,61.6c-2.5,4.7-4,5-9.9,5.1c-6,0.1-6.6-3.4-6.8-5.8s-0.5-5.1,1-6.8
							c1.3-1.6,6-1.5,9.1-1.2c2.6,0.2,5,0.5,6.5,1.3C60.1,55.1,60.8,56.9,58.3,61.6L58.3,61.6z M84,60.9c-0.1,2.5-0.8,6-6.8,5.8
							c-6-0.1-7.5-0.5-9.9-5.1c-2.5-4.7-1.7-6.5,0-7.5c1.6-0.8,4-1.1,6.5-1.3c3.1-0.3,7.8-0.3,9.1,1.2C84.5,55.8,84.1,58.4,84,60.9
							L84,60.9z"/>
						<path id="SvgjsPath15357" class="st23" d="M85.3,51.9c-0.8-0.4-1.7-0.5-2.6-0.6c-0.9-0.1-1.8-0.2-2.7-0.2
							c-1.8-0.1-3.6-0.1-5.4,0c-3.6,0.1-7.2,0.4-10.8,0.5c-1.8,0.1-3.6,0-5.4-0.1l-5.4-0.3C51,51.1,49.2,51,47.4,51
							c-1.8,0-3.6,0.1-5.4,0.4c-0.4,0.1-0.9,0.2-1.3,0.3c-0.4,0.1-0.8,0.4-1,0.7c-0.2,0.4-0.3,0.8-0.3,1.3c0,0.4,0,0.9,0,1.3
							c0.2,1.8,0.4,3.6,0.6,5.4c0.1,0.9,0.2,1.8,0.5,2.7c0.2,0.9,0.6,1.7,1.1,2.4c0.5,0.7,1.3,1.2,2.2,1.5c0.8,0.3,1.7,0.4,2.6,0.5
							c1.8,0.1,3.6,0.2,5.4,0c1.8-0.2,3.6-0.7,4.9-1.9c1.3-1.2,2.1-2.9,3-4.4c0.4-0.8,0.8-1.6,1.2-2.4c0.2-0.4,0.4-0.8,0.7-1.2
							c0.3-0.4,0.7-0.7,1.2-0.8l0,0l0,0c0.5,0.1,0.9,0.4,1.1,0.8c0.3,0.4,0.5,0.8,0.7,1.1c0.4,0.8,0.8,1.6,1.2,2.3
							c0.8,1.5,1.7,3,2.8,4.3c1.1,1.3,2.9,1.8,4.5,2.1c1.7,0.2,3.4,0.2,5.2,0.1c0.9-0.1,1.7-0.1,2.6-0.3c0.8-0.2,1.7-0.5,2.3-1
							c0.7-0.5,1.2-1.2,1.5-2c0.3-0.8,0.5-1.6,0.7-2.5c0.3-1.7,0.4-3.4,0.7-5.2c0.1-0.9,0.2-1.7,0.2-2.6c0-0.4,0-0.9-0.2-1.3
							C86,52.4,85.7,52.1,85.3,51.9L85.3,51.9z M85.3,51.8c0.4,0.2,0.7,0.5,0.9,0.9c0.2,0.4,0.2,0.9,0.2,1.3c0,0.9-0.1,1.7-0.2,2.6
							c-0.2,1.7-0.4,3.4-0.6,5.2c-0.1,0.9-0.3,1.7-0.7,2.5c-0.3,0.8-0.8,1.6-1.5,2.1c-0.7,0.6-1.5,0.9-2.4,1.1
							c-0.9,0.2-1.7,0.2-2.6,0.3c-1.7,0.1-3.5,0.2-5.2-0.1c-0.9-0.1-1.7-0.3-2.5-0.7c-0.8-0.3-1.6-0.8-2.2-1.5
							c-1.2-1.3-2-2.8-2.9-4.4c-0.4-0.8-0.8-1.6-1.2-2.3c-0.2-0.4-0.4-0.8-0.6-1.1c-0.2-0.3-0.6-0.6-1-0.7h0c-0.4,0.1-0.7,0.4-1,0.7
							c-0.3,0.3-0.4,0.7-0.6,1.2c-0.4,0.8-0.8,1.6-1.2,2.4c-0.4,0.8-0.9,1.6-1.4,2.4c-0.5,0.8-1,1.5-1.7,2.1
							c-1.4,1.3-3.3,1.7-5.1,1.9c-1.8,0.2-3.6,0.1-5.4-0.1c-0.9-0.1-1.8-0.2-2.7-0.5c-0.9-0.3-1.7-0.8-2.2-1.6
							c-0.6-0.7-0.9-1.6-1.1-2.5c-0.2-0.9-0.4-1.8-0.5-2.7l-0.3-2.7c-0.1-0.9-0.2-1.8-0.3-2.7c0-0.4-0.1-0.9-0.1-1.4
							c0-0.4,0.1-0.9,0.3-1.3c0.2-0.4,0.7-0.7,1.1-0.8c0.4-0.2,0.9-0.2,1.3-0.3c3.6-0.6,7.2-0.6,10.8-0.4l5.4,0.2
							c1.8,0.1,3.6,0.2,5.4,0.2c3.6-0.1,7.2-0.3,10.8-0.4c1.8-0.1,3.6,0,5.4,0.1c0.9,0.1,1.8,0.1,2.7,0.2
							C83.5,51.4,84.5,51.5,85.3,51.8L85.3,51.8z"/>
						<path id="SvgjsPath15358" class="st23" d="M58.3,61.6c-0.5,1-1.1,2-1.8,2.8c-0.4,0.4-0.8,0.8-1.2,1.1c-0.5,0.3-1,0.6-1.5,0.7
							c-1.1,0.3-2.2,0.4-3.4,0.5c-1.1,0.1-2.2,0.1-3.4,0c-1.1-0.1-2.3-0.4-3.2-1c-1-0.6-1.6-1.7-1.9-2.8c-0.3-1.1-0.3-2.2-0.4-3.4
							c-0.1-1.1-0.1-2.3,0.1-3.4c0.1-0.6,0.3-1.1,0.6-1.6c0.3-0.5,0.7-1,1.2-1.2c1-0.5,2.2-0.7,3.3-0.8c2.3-0.2,4.5,0,6.8,0.2
							c1.1,0.1,2.2,0.3,3.3,0.6c0.5,0.2,1.1,0.3,1.6,0.6c0.5,0.3,1,0.7,1.3,1.2c0.3,0.5,0.4,1.1,0.4,1.7c0,0.6-0.1,1.1-0.3,1.7
							C59.4,59.6,58.9,60.6,58.3,61.6L58.3,61.6z M58.3,61.6c0.5-1,1-2,1.3-3.1c0.3-1.1,0.4-2.3-0.2-3.2c-0.6-0.9-1.7-1.3-2.8-1.6
							c-1.1-0.3-2.2-0.4-3.3-0.5c-2.2-0.2-4.5-0.4-6.7-0.2c-1.1,0.1-2.2,0.2-3.2,0.7c-0.5,0.2-0.8,0.6-1.1,1.1
							c-0.3,0.5-0.5,1-0.6,1.5c-0.2,1.1-0.2,2.2-0.1,3.3c0.1,1.1,0.1,2.3,0.4,3.3c0.3,1.1,0.9,2.1,1.9,2.6c0.9,0.6,2,0.9,3.1,0.9
							c1.1,0.1,2.2,0,3.4,0c1.1-0.1,2.2-0.1,3.3-0.4c0.5-0.1,1-0.4,1.5-0.6c0.5-0.3,0.9-0.7,1.3-1.1C57.2,63.6,57.8,62.6,58.3,61.6
							L58.3,61.6z"/>
						<path id="SvgjsPath15359" class="st23" d="M84,60.9c-0.1,1.1-0.2,2.3-0.8,3.3c-0.5,1-1.5,1.8-2.5,2.2
							c-1.1,0.4-2.2,0.5-3.4,0.5c-1.1,0-2.3-0.1-3.4-0.2c-1.1-0.1-2.3-0.3-3.3-0.9c-1-0.5-1.8-1.4-2.4-2.4c-0.6-1-1.1-1.9-1.6-3
							c-0.5-1-0.9-2.1-1-3.2c-0.1-0.6,0-1.2,0.2-1.7c0.2-0.5,0.6-1,1.1-1.3c1-0.6,2.1-0.9,3.2-1.1c1.1-0.2,2.2-0.3,3.4-0.4
							c1.1-0.1,2.2-0.2,3.4-0.2s2.3,0,3.4,0.2c0.6,0.1,1.1,0.2,1.6,0.5c0.5,0.2,1,0.6,1.3,1.1c0.7,1,0.9,2.1,0.9,3.2
							C84.2,58.7,84.1,59.8,84,60.9L84,60.9z M84,60.9c0-1.1,0.2-2.2,0.1-3.4c-0.1-1.1-0.3-2.2-1-3.1c-0.6-0.9-1.8-1.2-2.9-1.4
							c-1.1-0.2-2.2-0.2-3.3-0.2c-1.1,0-2.2,0.1-3.4,0.2c-1.1,0.1-2.2,0.2-3.3,0.4c-1.1,0.2-2.2,0.4-3.1,1c-0.5,0.3-0.8,0.7-1,1.2
							c-0.2,0.5-0.2,1.1-0.2,1.6c0.1,1.1,0.5,2.2,1,3.2c0.5,1,1,2,1.6,2.9c0.6,0.9,1.4,1.8,2.4,2.3c1,0.5,2.1,0.7,3.2,0.8
							c1.1,0.1,2.2,0.1,3.4,0.1c1.1,0,2.2-0.1,3.3-0.4c1-0.3,2-1,2.5-2C83.7,63.2,83.9,62,84,60.9L84,60.9z"/>
					</g>
				</g>
			</g>
		</g>
	</g>
	<rect id="svga-credit-rect" x="0.3" y="115.6" class="st24" width="124.9" height="9.4"/>
	<text transform="matrix(1 0 0 1 20.5731 122.2702)" class="st25 st26 st27">Created on AvatarMaker.com</text>
</g>
</svg>
