<?xml version="1.0" encoding="utf-8"?>
<!-- Generator: Adobe Illustrator 26.0.2, SVG Export Plug-In . SVG Version: 6.00 Build 0)  -->
<svg version="1.1" id="Layer_1" xmlns="http://www.w3.org/2000/svg" xmlns:xlink="http://www.w3.org/1999/xlink" x="0px" y="0px"
	 viewBox="0 0 50 50" style="enable-background:new 0 0 50 50;" xml:space="preserve">
<style type="text/css">
	.st0{fill:#ECF0F1;}
	.st1{fill:#C6DCE2;}
	.st2{fill:#A4C9D2;}
	.st3{fill:#F0C7B1;}
	.st4{opacity:0.65;fill:#D19271;enable-background:new    ;}
	.st5{fill:#D19271;}
	.st6{fill:#C27B55;}
	.st7{fill:#1F7306;}
	.st8{fill:#D6D6D6;}
	.st9{fill:#135400;}
	.st10{fill:#E1AC8F;}
	.st11{fill:#F8D5C3;}
	.st12{fill:#DA7C87;}
	.st13{fill:#FFFFFF;}
	.st14{fill:#693D04;}
	.st15{fill:#4A2A00;}
	.st16{fill:#2A232B;}
	.st17{fill:#3A353A;}
	.st18{fill:#1B141C;}
	.st19{fill:#221B23;}
	.st20{fill:url(#SvgjsPath15340_00000050644024687584469060000001331085773391719601_);}
	.st21{fill:url(#SvgjsPath15348_00000075152404854527621320000015300217786383924630_);}
	.st22{fill:#26120B;}
	.st23{fill:#070201;}
	.st24{display:none;opacity:0.5;fill:#ECF0F1;enable-background:new    ;}
	.st25{fill:#333333;}
	.st26{font-family:'AvenirNext-Regular';}
	.st27{font-size:2.4988px;}
</style>
<g id="svga-group-wrapper">
	<g id="svga-group-backs-single">
		<path id="SvgjsPath15559" class="st0" d="M0-2.7h50v50H0V-2.7z"/>
		<path id="SvgjsPath15560" class="st1" d="M39.1,30.1L34.9,30l-4.2,0.1c-0.2,0-2.2-0.1-2.3,0c-2.4,0.3-3.7,0.1-5.2,0l-2.7,0
			c-0.4,0-0.9-0.4-0.9-0.9l0-1.4c0.2-1.4,0-2.3,0-3.7l0-0.9c0-0.4,0.6-0.6,1.3-0.6l1.9,0c0.9,0,2.4,0.2,3,0.1l2.7-0.1
			c0.9,0,2.7-0.2,5.1-0.1c0,0,2.6,0,4.8,0l1.4,0c0.4,0,0.8,0.3,0.8,0.7v1.2c0,0.8,0,1.5,0,2.5l0,1.4l-0.1,0.8
			C40.5,29.8,39.6,30.2,39.1,30.1L39.1,30.1z M28.2,21.8L24,21.7l-4.2,0.1c-0.2,0-2.2-0.1-2.3,0c-2.4,0.3-3.7,0.1-5.2,0l-2.7,0
			c-0.4,0-0.9-0.4-0.9-0.9v-1.4c0.2-1.4,0-2.3,0-3.7l0-0.9c0-0.4,0.6-0.6,1.3-0.6l1.9,0c0.9,0,2.4,0.2,3,0.1l2.7-0.1
			c0.9,0,2.7-0.2,5.1-0.1c0,0,2.6,0,4.8,0l1.4,0c0.4,0,0.8,0.3,0.8,0.7v1.2c0,0.8,0,1.5,0,2.5l0,1.4l-0.1,0.8
			C29.7,21.5,28.8,21.9,28.2,21.8L28.2,21.8z M39.1,13.7l-4.2-0.1l-4.2,0.1c-0.2,0-2.2-0.1-2.3,0c-2.4,0.3-3.7,0.1-5.2,0l-2.7,0
			c-0.4,0-0.9-0.4-0.9-0.9l0-1.4c0.2-1.4,0-2.3,0-3.7l0-0.9c0-0.4,0.6-0.6,1.3-0.6l1.9,0c0.9,0,2.4,0.2,3,0.1l2.7-0.1
			c0.9,0,2.7-0.2,5.1-0.1c0,0,2.6,0,4.8,0l1.4,0c0.4,0,0.8,0.3,0.8,0.7V8c0,0.8,0,1.5,0,2.5l0,1.4l-0.1,0.8
			C40.5,13.4,39.6,13.8,39.1,13.7L39.1,13.7z M28.2,5.4L24,5.3l-4.2,0.1c-0.2,0-2.2-0.1-2.3,0c-2.4,0.3-3.7,0.1-5.2,0l-2.7,0
			c-0.4,0-0.9-0.4-0.9-0.9V3c0.2-1.4,0-2.3,0-3.7l0-0.9c0-0.4,0.6-0.6,1.3-0.6l1.9,0c0.9,0,2.4,0.2,3,0.1l2.7-0.1
			c0.9,0,2.7-0.2,5.1-0.1c0,0,2.6,0,4.8,0l1.4,0c0.4,0,0.8,0.3,0.8,0.7v1.2c0,0.8,0,1.5,0,2.5l0,1.4l-0.1,0.8
			C29.7,5.1,28.8,5.4,28.2,5.4L28.2,5.4z M39.1,46.9l-4.2-0.1l-4.2,0.1c-0.2,0-2.2-0.1-2.3,0c-2.4,0.3-3.7,0.1-5.2,0l-2.7,0
			c-0.4,0-0.9-0.4-0.9-0.9l0-1.4c0.2-1.4,0-2.3,0-3.7l0-0.9c0-0.4,0.6-0.6,1.3-0.6l1.9,0c0.9,0,2.4,0.2,3,0.1l2.7-0.1
			c0.9,0,2.7-0.2,5.1-0.1c0,0,2.6,0,4.8,0l1.4,0c0.4,0,0.8,0.3,0.8,0.7v1.2c0,0.8,0,1.5,0,2.5l0,1.4L40.5,46
			C40.5,46.6,39.6,47,39.1,46.9L39.1,46.9z M28.2,38.6L24,38.5l-4.2,0.1c-0.2,0-2.2-0.1-2.3,0c-2.4,0.3-3.7,0.1-5.2,0l-2.7,0
			c-0.4,0-0.9-0.4-0.9-0.9v-1.4c0.2-1.4,0-2.3,0-3.7l0-0.9c0-0.4,0.6-0.6,1.3-0.6l1.9,0c0.9,0,2.4,0.2,3,0.1l2.7-0.1
			c0.9,0,2.7-0.2,5.1-0.1c0,0,2.6,0,4.8,0l1.4,0c0.4,0,0.8,0.3,0.8,0.7v1.2c0,0.8,0,1.5,0,2.5l0,1.4l-0.1,0.8
			C29.7,38.3,28.8,38.7,28.2,38.6z M6.4,21.8c0.5,0.1,1.4-0.3,1.4-0.9L8,20l0-1.4c0-1,0-1.7,0-2.5v-1.2c0-0.4-0.4-0.7-0.8-0.7
			l-1.4,0c-2.2,0-4.8,0-4.8,0H0v7.6l2.2-0.1L6.4,21.8L6.4,21.8z M7.9,31.6c0-0.4-0.4-0.7-0.8-0.7l-1.4,0c-2.2,0-4.8,0-4.8,0
			c-0.3,0-0.5,0-0.8,0v7.6l2.2-0.1l4.2,0.1c0.5,0.1,1.4-0.3,1.4-0.9L8,36.8l0-1.4c0-1,0-1.7,0-2.5L7.9,31.6L7.9,31.6z M3.7,6.3
			c-0.6,0.1-2.1-0.1-3-0.1L0,6.2v7.5l1.1,0c1.5,0.1,2.7,0.3,5.2,0c0.2,0,2.2,0,2.4,0l4.2-0.1l4.2,0.1c0.5,0.1,1.4-0.3,1.4-0.9
			l0.1-0.8l0-1.4c0-1,0-1.7,0-2.5V6.8c0-0.4-0.4-0.7-0.8-0.7l-1.4,0c-2.2,0-4.8,0-4.8,0C9.2,6,7.4,6.2,6.5,6.2L3.7,6.3L3.7,6.3z
			 M18.6,24.5v-1.2c0-0.4-0.4-0.7-0.8-0.7l-1.4,0c-2.2,0-4.8,0-4.8,0c-2.4-0.1-4.2,0.1-5.1,0.1l-2.7,0.1c-0.6,0.1-2.1-0.1-3-0.1
			l-0.7,0v7.5l1.1,0c1.5,0.1,2.7,0.3,5.2,0c0.2,0,2.2,0,2.4,0L13,30l4.2,0.1c0.5,0.1,1.4-0.3,1.4-0.9l0.1-0.8l0-1.4
			C18.7,25.9,18.6,25.3,18.6,24.5L18.6,24.5z M18.6,41.2V40c0-0.4-0.4-0.7-0.8-0.7l-1.4,0c-2.2,0-4.8,0-4.8,0
			c-2.4-0.1-4.2,0.1-5.1,0.1l-2.7,0.1c-0.6,0.1-2.1-0.1-3-0.1l-0.7,0v7.5l1.1,0c1.5,0.1,2.7,0.3,5.2,0c0.2,0,2.2,0,2.4,0l4.2-0.1
			l4.2,0.1c0.5,0.1,1.4-0.3,1.4-0.9l0.1-0.8l0-1.4C18.7,42.7,18.6,42.1,18.6,41.2L18.6,41.2z M0,5.3l2.2-0.1l4.2,0.1
			c0.5,0.1,1.4-0.3,1.4-0.9l0.1-0.8l0-1.4c0-1,0-1.7,0-2.5v-1.2c0-0.4-0.4-0.7-0.8-0.7l-1.4,0c-2.2,0-4.8,0-4.8,0
			c-0.3,0-0.5,0-0.8,0C0-2.3,0,5.3,0,5.3z M42.4,13.7l2.7,0c1.4,0.1,2.6,0.1,4.9-0.1V6.2l-2.2-0.1c-0.6,0.1-1.9,0-2.9,0l-2.1,0.1
			c-0.7,0-1.3,0.2-1.3,0.6l0,0.9c0,1.3-0.2,2.5,0,3.7l0,1.4C41.5,13.3,42,13.7,42.4,13.7L42.4,13.7z M42.4,30.1l2.7,0
			c1.4,0.1,2.6,0.1,4.9-0.1v-7.4l-2.3-0.1c-0.6,0.1-1.9,0-2.9,0l-2.1,0.1c-0.7,0-1.3,0.2-1.3,0.6l0,0.9c0,1.3-0.2,2.5,0,3.7l0,1.4
			C41.5,29.7,42,30.1,42.4,30.1L42.4,30.1z M30.5,3l0,1.4c0,0.5,0.5,0.9,0.9,0.9l2.7,0c1.5,0.1,2.7,0.3,5.2,0c0.2,0,2.2,0,2.3,0
			l4.2-0.1L50,5.3v-7.5h-0.6c-2.2,0-4.8,0-4.8,0c-2.4-0.1-4.2,0.1-5.1,0.1L36.7-2c-0.6,0.1-2.1-0.1-3-0.1l-1.9-0.1
			c-0.7,0-1.3,0.2-1.3,0.6l0,0.9C30.5,0.7,30.8,1.6,30.5,3L30.5,3z M30.5,19.5l0,1.4c0,0.5,0.5,0.9,0.9,0.9l2.7,0
			c1.5,0.1,2.7,0.3,5.2,0c0.2,0,2.2,0,2.3,0l4.2-0.1l4.1,0.1v-7.5l-0.6,0c-2.2,0-4.8,0-4.8,0c-2.4-0.1-4.2,0.1-5.1,0.1l-2.7,0.1
			c-0.6,0.1-2.1-0.1-3-0.1l-1.9,0c-0.7,0-1.3,0.2-1.3,0.6l0,0.9C30.5,17.1,30.8,18.1,30.5,19.5L30.5,19.5z M50,39.4l-2.3-0.1
			c-0.6,0.1-1.9,0-2.9,0l-2.1,0.1c-0.7,0-1.3,0.2-1.3,0.6l0,0.9c0,1.3-0.2,2.5,0,3.7l0,1.4c0,0.5,0.5,0.9,0.9,0.9l2.7,0
			c1.4,0.1,2.6,0.1,4.9-0.1L50,39.4L50,39.4z M45.9,38.5l4.1,0.1V31l-0.6,0c-2.2,0-4.8,0-4.8,0c-2.4-0.1-4.2,0.1-5.1,0.1l-2.7,0.1
			c-0.6,0.1-2.1-0.1-3-0.1l-1.9,0c-0.7,0-1.3,0.2-1.3,0.6l0,0.9c0,1.3,0.3,2.3,0,3.7l0,1.4c0,0.5,0.5,0.9,0.9,0.9l2.7,0
			c1.5,0.1,2.7,0.3,5.2,0c0.2,0,2.2,0,2.3,0L45.9,38.5L45.9,38.5z"/>
		<path id="SvgjsPath15561" class="st2" d="M8.6,3v1.4c0,0.5,0.5,0.9,0.9,0.9l2.7,0c1.5,0.1,2.7,0.3,5.2,0c0.2,0,2.2,0,2.3,0L24,5.2
			l4.2,0.1c0.3,0,0.8-0.1,1.1-0.3c-0.2,0-0.4-0.1-0.6-0.1c-0.3,0-1.5-0.3-2.3-0.4c-0.3-0.3-0.7-0.5-1.2-0.4c-0.3,0-0.6,0.2-0.9,0.2
			c-0.5,0.1-1,0-1.6-0.1c-0.5-0.1-1-0.2-1.6-0.2c0,0,0,0,0,0c1,0,2,0.4,3,0.5c0.3,0,0.7-0.1,1-0.1c0.2,0,0.4,0,0.6,0.1
			c-1.6,0-5.5,0.2-6.1,0.4c-0.7,0.2-3.1,0.2-4-0.2c-0.8-0.4-5.1,0-5.4,0C9.7,4.6,9.7,4,9.9,2.9c0-0.3,0-0.6,0-1
			c0.1,0,0.2,0.1,0.3,0.1c0.3,0,0.7-0.2,1-0.4c0.5-0.3,1.1-0.5,1.6-0.9c0,0,0,0,0,0c-0.6,0.3-1.2,0.6-1.9,0.8
			c-0.3,0.1-0.7,0.3-1,0.1c0,0,0,0-0.1,0c-0.1-1-0.3-2.2-0.4-2.7c0-0.2,0-0.3,0-0.5c1-0.3,2,0.2,3,0.4c0.8,0.1,1.6,0,2.4-0.1
			c0,0,0-0.1,0-0.1c-0.6,0-1.2,0.1-1.9,0c-0.7-0.1-1.3-0.3-1.9-0.4c-0.5-0.1-1-0.2-1.4,0c0-0.1,0-0.1,0.1-0.2c-0.6,0-1,0.2-1,0.6
			l0,0.9C8.6,0.7,8.9,1.6,8.6,3z M26.4,12.9c-0.5-0.2-2.1,0.1-2.7,0.2c-0.6,0.1-2.2-0.1-2.9-0.4c0.6,0,1.1-0.1,1.6-0.4
			c0,0,0-0.1,0-0.1c-0.6,0.1-1.2,0.3-1.9,0.3c-0.4-0.4-0.3-1.8-0.2-2.5c0.1-0.7-0.3-1.8-0.4-2.6c0-0.4,0-0.8,0-1.1
			c-0.3,0.1-0.4,0.2-0.4,0.4l0,0.9c0,1.3,0.3,2.3,0,3.7l0,1.4c0,0.5,0.5,0.9,0.9,0.9l2.7,0c1.5,0.1,2.7,0.3,5.2,0c0.2,0,2.2,0,2.3,0
			l4.2-0.1l4.2,0.1c0.4,0.1,0.9-0.1,1.2-0.5h-0.1c-0.5,0-0.9-0.2-1.3-0.4c-0.1,0-0.5,0-1,0c-0.4-0.4-1-0.6-1.6-0.5
			c-0.5,0-0.9,0.3-1.3,0.3c-0.5,0-0.8-0.2-1.3-0.1c0,0,0,0,0,0c0.6,0,1.2,0.2,1.8,0.1c0.8-0.2,1.4-0.2,2.1,0.1
			c-0.9,0.1-2,0.3-2.4,0.3c-0.6-0.1-1,0.1-1.7,0.1s-4.9-0.1-5.5-0.1C27.3,13.1,26.9,13.1,26.4,12.9L26.4,12.9z M26.1,21.2
			c-0.1,0-0.3,0-0.6,0c0-0.1,0-0.3-0.1-0.3c-0.1-0.1-0.4-0.2-0.5,0c0,0,0,0.1,0.1,0.1c0.1,0,0.2,0,0.2,0c0.1,0,0.1,0.1,0.1,0.2
			c-1.8,0-5.7,0.1-6.4,0.1c-0.8,0-4.2-0.1-6.1,0.1s-3.1-0.6-3.2-0.8c0,0,0-0.1,0-0.2c0.3-0.1,0.7-0.1,1.1,0c0.5,0,1-0.1,1.5-0.1
			c0.2,0,0.3,0.1,0.5,0.1c0.2,0,0.5-0.3,0.7-0.4c0,0,0,0,0,0c-0.3,0.3-0.4,0.4-0.8,0.3c-0.1,0-0.1-0.1-0.2-0.1c-0.5-0.1-1.1,0-1.7,0
			c-0.4,0-0.8-0.1-1.2,0c0-0.5,0-1.3,0-1.8c0-0.1,0-0.2,0-0.3c0.7,0.1,1.4-0.6,2.2-0.5c0,0,0,0,0,0c-0.4-0.1-0.8,0-1.2,0.1
			c0,0,0,0,0,0c-0.3,0-0.7,0-1-0.1c-0.1-0.6-0.3-1.4-0.3-1.9c0-0.4-0.1-0.7-0.3-0.9c-0.1,0.1-0.1,0.2-0.1,0.3l0,0.9
			c0,1.3,0.3,2.3,0,3.7v1.4c0,0.5,0.5,0.9,0.9,0.9l2.7,0c1.5,0.1,2.7,0.3,5.2,0c0.2,0,2.2,0,2.3,0l4.2-0.1l4.2,0.1
			c0.4,0.1,1-0.1,1.3-0.5c-0.3,0.1-0.7,0.2-0.9,0.2C28.2,21.4,26.8,21.3,26.1,21.2L26.1,21.2z M29.6,29.8c-1.1-0.1-1.8-0.1-2.7-0.8
			c0,0-0.1,0-0.1-0.1c0.2,0,0.5,0,0.8,0c0.2,0.1,0.5,0.2,0.7,0.2c0.7,0.1,1.4-0.1,2-0.4c0.1,0,0-0.2-0.1-0.2
			c-0.4,0.1-0.9,0.2-1.3,0.3c-0.5,0.1-0.9-0.1-1.3-0.3c0.1,0,0.3,0.1,0.4,0.1c0,0,0.1,0,0.1-0.1c-0.6-0.6-1.9-0.1-2.7,0
			c-1.3,0-3.1,0.3-3.5,0.4c-0.6,0.1-0.9,0.1-1.7-0.3s-0.1-1,0-2.3c0-0.1,0-0.2,0-0.3c0.7,0.7,1.8,1,2.8,0.8c0.5-0.1,0.8-0.3,1.4-0.3
			c0.5,0,0.9,0.2,1.3,0.3c0.6,0.2,1.1,0.3,1.7,0.2c0,0,0,0,0,0c-1.1,0.1-2.1-0.6-3.2-0.6c-0.4,0-0.8,0.2-1.3,0.2
			c-1,0.2-1.9-0.1-2.7-0.8c0-0.6-0.2-0.6-0.5-1.3c-0.1-0.3-0.2-0.7-0.3-1l0,0.6c0,1.3,0.3,2.3,0,3.7l0,1.4c0,0.5,0.5,0.9,0.9,0.9
			l2.7,0c1.5,0.1,2.7,0.3,5.2,0c0.2,0,2.2,0,2.3,0l4.2-0.1l4.2,0.1c0.3,0,0.6,0,0.9-0.2c-0.5-0.3-1.3-0.7-1.9-0.9
			c-0.9-0.2-1.7,0.1-2.8,0.2C34.1,29.3,30.7,29.9,29.6,29.8L29.6,29.8z M26.1,28.7c0.3,0,0.5-0.1,0.8-0.1c-0.1,0-0.3,0.1-0.4,0.2
			L26.1,28.7z M29.3,38.3c-0.2,0-0.3,0-0.5,0c-0.4,0-0.9,0-1.6-0.1c-0.8-0.1-2.3-0.2-3.3-0.3c-1,0-4.1,0.4-4.6,0.3
			c-0.5,0-1.5-0.2-2.8-0.4c-1.3-0.1-4.3,0.2-4.9,0.3c-0.3,0.1-1-0.1-1.4-0.4c0.3,0,0.6,0,0.9,0c0.1,0,0.1-0.1,0-0.1
			c-0.3-0.1-0.8-0.1-1.1-0.1c-0.1-0.1-0.2-0.3-0.2-0.4c-0.1-0.7,0-1.1,0-1.9c0.4,0.4,1,0.4,1.7,0.4c0.9,0,1.5,0.3,2.2,0.6
			c0.7,0.3,1.4-0.1,2.1,0.1c0,0,0.1-0.1,0-0.1C15.4,36,15.3,36,15,36c-0.5,0-0.9,0.1-1.4-0.1c-0.3-0.1-0.5-0.4-0.8-0.5
			c-0.9-0.5-2.5,0.3-3.2-0.7c0-0.9-0.3-1.5-0.5-2.3c-0.1-0.4-0.2-0.8-0.1-1.1c-0.2,0.1-0.3,0.2-0.3,0.4l0,0.9c0,1.3,0.3,2.3,0,3.7
			v1.4c0,0.5,0.5,0.9,0.9,0.9l2.7,0c1.5,0.1,2.7,0.3,5.2,0c0.2,0,2.2,0,2.3,0l4.2-0.1l4.2,0.1C28.5,38.6,29,38.5,29.3,38.3
			L29.3,38.3z M39,46.5c-0.6,0-2.4,0.1-3.6,0c-1.2-0.1-2.9-0.3-4.1-0.4s-4.4,0.2-4.4,0.2s-0.6-0.1-1.6-0.2c-1-0.1-4.3,0.2-4.7-0.5
			c-0.3-0.4-0.2-0.7-0.1-1.2l0.3,0.1c0.3,0.1,0.5,0.1,0.8,0.1c0.4,0,0.8,0.2,1.2,0.3c0,0,0.1-0.1,0-0.1c-0.3-0.2-0.6-0.4-1-0.4
			s-0.9,0-1.3-0.3c0-0.2,0.1-0.4,0.1-0.7c0-0.3,0-0.5,0-0.8c0.2,0,0.4,0.1,0.6,0c0.1,0,0.1-0.1,0-0.1c-0.2,0-0.4-0.1-0.7-0.1
			c-0.1-0.6-0.3-1.3-0.5-2.1c-0.1-0.3-0.1-0.5-0.1-0.7c-0.2,0.1-0.3,0.2-0.3,0.4l0,0.9c0,1.3,0.3,2.3,0,3.7l0,1.4
			c0,0.5,0.5,0.9,0.9,0.9l2.7,0c1.5,0.1,2.7,0.3,5.2,0c0.2,0,2.2,0,2.3,0l4.2-0.1l4.2,0.1c0.3,0,0.9-0.1,1.2-0.4
			C39.9,46.5,39.5,46.6,39,46.5L39,46.5z M49.6,4.9c-0.4-0.2-1.9,0-2.8,0c-0.8,0-4.2,0-4.7,0c-0.5,0-2.8-0.2-3.5-0.3s-3.5,0-4.4,0.2
			c-0.8,0.1-2.6-0.2-2.6-0.7c0-0.5,0-0.9,0-1.9c0-0.1,0-0.2,0-0.3c0.2,0.1,0.6,0.1,0.8,0.1c0.2,0,0.5-0.1,0.7-0.1
			c0.8-0.2,1.3,0,2,0.1c1.4,0.3,2.8,0.4,4.2,0.2c0,0,0,0,0,0c-1.6,0-3,0-4.6-0.5c-1.1-0.3-2.1,0.1-3.2-0.1c0-0.6-0.2-1.1-0.3-1.8
			c-0.1-0.6,0-1.3,0.1-1.8c-0.5,0-0.9,0.2-0.9,0.6l0,0.9c0,1.3,0.3,2.3,0,3.7l0,1.4c0,0.5,0.5,0.9,0.9,0.9l2.7,0
			c1.5,0.1,2.7,0.3,5.2,0c0.2,0,2.2,0,2.3,0l4.2-0.1L50,5.3V5C49.9,5,49.7,5,49.6,4.9L49.6,4.9z M46.9,12.9c-0.5-0.2-2.4,0-3.3-0.1
			c0.1,0,0.2,0,0.3-0.1c0.3-0.1,0.7-0.2,0.9-0.4c0,0,0-0.1,0-0.1c-0.3,0-0.5,0.2-0.8,0.2c-0.3,0.1-0.6,0.1-0.9,0.2
			c-0.4-0.2-0.7-0.7-0.9-1.4c-0.2-0.5-0.1-0.8,0-1.2c0.4,0,0.9,0.1,1.4,0.1c0.7,0,1.3-0.1,1.9,0.1c0,0,0,0,0,0
			c-0.6-0.3-1.2-0.2-1.8-0.2c-0.5,0-1-0.2-1.4-0.2c0-0.1,0-0.3,0-0.5c-0.1-0.8-0.2-2.1-0.1-2.6c0-0.1,0-0.3,0-0.4
			c-0.3,0.1-0.6,0.3-0.6,0.5l0,0.9c0,1.3-0.2,2.5,0,3.7l0,1.4c0,0.5,0.5,0.9,0.9,0.9l2.7,0c1.4,0.2,2.6,0.2,4.9,0v-0.7
			c-0.4,0-0.6,0.2-1,0.3C48.5,13.2,47.5,13.1,46.9,12.9L46.9,12.9z M48.8,21c0-0.2-5.3,0.1-6.1,0c-0.8-0.1-1.1-0.1-1.6-0.2
			c-0.5-0.1-6.7,0.2-7.6,0.3s-1.9-0.3-2.1-0.8c-0.2-0.4,0.1-1.3,0.1-2.2c0.1,0,0.1,0.1,0.2,0.1c0.1,0,0.3,0.1,0.5,0
			c0.4,0,0.8-0.3,1.3-0.3c0,0,0,0,0,0c-0.4,0-0.8,0.1-1.3,0.1c-0.3,0-0.5-0.1-0.7-0.2v0c-0.1-0.8-0.3-1.8-0.5-2.5
			c-0.1-0.3-0.2-0.6-0.3-0.8c0,0.1-0.1,0.1-0.1,0.2l0,0.9c0,1.3,0.3,2.3,0,3.7l0,1.4c0,0.5,0.5,0.9,0.9,0.9l2.7,0
			c1.5,0.1,2.7,0.3,5.2,0c0.2,0,2.2,0,2.3,0l4.2-0.1l4.1,0.1v-0.4h-0.1C49.4,21.4,48.8,21.2,48.8,21L48.8,21z M48.9,29.1
			c-0.2-0.1-0.5,0-0.7,0.1c0,0,0,0.1,0,0.1c-1.7,0.1-3.7,0.4-4,0.3c-0.5-0.1-1.6-0.7-1.6-1.6v-0.1c0.3,0,0.5,0.2,0.8,0.2
			c0.1,0,0.3,0,0.4,0c0.2-0.1,0.5-0.3,0.8-0.2c0,0,0.1,0,0.1-0.1c-0.3-0.5-0.8,0-1.2,0c-0.3,0-0.6-0.1-1-0.1
			c-0.1-0.5-0.4-0.7-0.7-1.4c-0.3-0.9,0.1-1.2,0.1-2.3c0-0.5-0.1-0.8-0.3-1c-0.1,0.1-0.1,0.2-0.1,0.3l0,0.9c0,1.3-0.2,2.5,0,3.7
			l0,1.4c0,0.5,0.5,0.9,0.9,0.9l2.7,0c1.4,0.1,2.6,0.1,4.9-0.1v-0.8c-0.2,0-0.6,0-1,0C49,29.2,48.9,29.1,48.9,29.1L48.9,29.1z
			 M48.3,29.3c0.1,0,0.2-0.1,0.3-0.1c0,0,0.1,0,0.1,0C48.7,29.3,48.5,29.3,48.3,29.3L48.3,29.3z M46,38c-0.1,0-0.6-0.1-1.2-0.1
			c0-0.2,0-0.4,0-0.5c0,0,0-0.1-0.1-0.1c-0.6-0.1-1.5,0-2,0.4c0,0,0,0.1,0,0.1c0.4-0.1,0.7-0.2,1.1-0.3c0.1,0,0.4,0,0.5,0
			c0.1,0,0.2,0,0.2,0.2c0,0.1,0,0.2,0,0.3c-1.4,0-3.5,0-3.8,0c-0.1,0-0.3,0-0.6,0c-0.2,0-0.4,0-0.6,0h0c-1.1,0-2.6,0.1-2.9,0
			c-0.4,0-0.6-0.2-1.5-0.4c-0.9-0.2-3,0.1-3.5,0s-0.4-0.7-0.4-1.5c0-0.5,0.1-0.8,0.2-1.2c0.1,0.1,0.3,0.2,0.5,0.2
			c0.2,0,0.4,0,0.6-0.1c0.1,0,0.2,0,0.3,0c0.5,0,1-0.1,1.4-0.1c0.7,0,1.3,0.1,2,0.2c0.1,0,0.1-0.1,0-0.1c-0.8-0.2-1.7-0.4-2.5-0.4
			c-0.7,0-1,0.2-1.7-0.3c-0.2-0.1-0.3-0.2-0.5-0.4c0-0.7-0.4-1.1-0.5-1.6c-0.1-0.4-0.3-0.8-0.2-1.2c-0.3,0.1-0.5,0.2-0.5,0.5l0,0.9
			c0,1.3,0.3,2.3,0,3.7l0,1.4c0,0.5,0.5,0.9,0.9,0.9l2.7,0c1.5,0.1,2.7,0.3,5.2,0c0.2,0,2.2,0,2.3,0l4.2-0.1l4.1,0.1v-0.2
			c-0.2,0-0.3-0.1-0.4-0.1C49.1,38,46.6,38.1,46,38L46,38z M31.7,34.4c0.2,0.2,0.5,0.5,0.8,0.6c-0.1,0-0.2,0-0.4,0
			c-0.2,0-0.3-0.1-0.5-0.3C31.6,34.6,31.6,34.5,31.7,34.4L31.7,34.4z M48.3,46.1c-0.2,0-0.4,0-0.5-0.1c-0.2,0-0.4-0.1-0.6-0.3
			c-0.1-0.1-0.2,0-0.1,0.1c0,0,0.1,0.1,0.2,0.1c-0.8,0-1.7,0.3-2.4,0.3c-0.4,0-0.8-0.1-1.2-0.4c0.1,0,0.1,0,0.2,0
			c0.1,0,0.1-0.1,0-0.1c-0.1,0-0.3,0-0.4,0c-0.3-0.3-0.5-0.6-0.6-0.9c-0.2-0.8-0.3-0.5-0.6-1.5s-0.1-1.1,0-2.3
			c0.1-0.9-0.1-1.1-0.3-1.3c-0.2,0.1-0.3,0.2-0.3,0.4l0,0.9c0,1.3-0.2,2.5,0,3.7l0,1.4c0,0.5,0.5,0.9,0.9,0.9l2.7,0
			c1.4,0.1,2.6,0.1,4.9-0.1v-0.4C49.3,46.3,48.7,46.3,48.3,46.1C48.3,46.1,48.3,46.1,48.3,46.1L48.3,46.1z M6.4,21.8
			c0.2,0,0.6,0,0.9-0.2c-0.4,0-1-0.2-1.5-0.2c0,0,0,0,0,0c-0.3-0.1-0.4-0.1-0.7-0.1c-0.6,0-1.1-0.3-1.6-0.5c-0.8-0.2-1.6,0-2.4,0
			c-0.1,0-0.1,0.1,0,0.2C1.8,21,2.7,20.6,3.5,21c0.1,0.1,0.2,0.1,0.4,0.2c-0.9,0-2.5,0.1-3.9,0.1v0.4l2.2-0.1L6.4,21.8L6.4,21.8z
			 M6.4,30.1c0.2,0,2.2,0,2.3,0L13,30l4.2,0.1c0.3,0,0.7,0,1-0.2c-0.4-0.1-0.8-0.2-1-0.3c-0.2,0-1.1-0.2-1.9-0.3
			c-0.3-0.2-0.6-0.3-1.1-0.3c-1,0-1.8-0.4-2.9-0.3c-0.1,0-0.1,0.1,0,0.1c0.4,0,0.9,0,1.3,0.2c0.2,0.1,0.6,0.2,0.8,0.3
			c0.3,0,0.5,0,0.8,0c0.1,0,0.3,0,0.4,0c-0.2,0-0.5,0.1-0.6,0.2c-0.6,0.4-1.2,0.1-2.2,0.1S8,29.3,8,29.3s-2.8,0.1-3.9,0.2
			c-0.3,0-0.7,0-1.2,0.1c0.1-0.1,0.1-0.1,0.2-0.2c0.6-0.6,1.1-0.6,1.9-0.5c1.2,0.1,2.2-0.4,3.5-0.5c0,0,0,0,0,0
			c-0.7,0-1.3,0.1-1.9,0.3c-0.8,0.2-1.5,0-2.4,0c-1.1,0-1,0.4-1.5,1c-0.8,0-1.8,0-2.6,0V30l1.1,0C2.6,30.3,3.9,30.4,6.4,30.1
			L6.4,30.1z M6.4,38.6c0.3,0,0.7,0,1-0.3c-0.4,0-1,0.1-1.4,0c-0.4-0.1-1.3-0.1-2.1,0c-0.5,0.1-2.4,0-4-0.2v0.5l2.2-0.1L6.4,38.6z
			 M12.1,46.3c-0.1,0-0.4,0-0.6,0c-0.1-0.4-0.2-0.8-0.5-0.9c-0.1,0-0.2,0-0.3,0c-0.2,0-0.5,0-0.7,0c-0.3-0.1-0.6-0.2-1-0.1
			c0,0,0,0.1,0,0.1c0.5,0.1,0.9,0.3,1.4,0.4c0.1,0,0.3,0,0.4,0c0.4,0.1,0.5,0.3,0.6,0.6C9.8,46.1,7.4,46,6.4,46
			c-1.3,0-5.2,0.1-6.3,0.1v0.8l1.1,0c1.5,0.1,2.7,0.3,5.2,0c0.2,0,2.2,0,2.4,0l4.2-0.1l4.2,0.1c0.3,0,0.7,0,1-0.2
			c-0.5,0-1.2,0-1.5,0C16.1,46.6,13.1,46.4,12.1,46.3L12.1,46.3z M6.4,5.4c0.3,0,0.8-0.1,1.1-0.3C7.2,5,6.7,4.9,6.4,4.8
			c-0.8-1.4-3.2-1-4.5-1.4c0,0,0,0,0,0c0.6,0.2,1.3,0.2,1.9,0.4C4.4,4,5.5,4.2,6,4.7c-0.6,0-1.6,0.1-2.4-0.1C3.1,4.5,1.3,4.5,0,4.5
			v0.9l2.2-0.1L6.4,5.4L6.4,5.4z M6.4,13.7c0.2,0,2.2,0,2.3,0l4.2-0.1l4.2,0.1c0.2,0,0.5,0,0.8-0.1c-0.5,0-1.1-0.1-1.5-0.2
			c-0.6-0.1-1.8-0.3-2.7-0.5c-0.1,0-0.2,0-0.4,0c0.3-0.1,0.5,0,0.8-0.1c0.1,0,0.1-0.1,0-0.2c-0.2-0.1-0.5-0.1-0.8,0
			c-0.1,0-0.2,0.1-0.4,0.1c-0.1,0-0.2,0.1-0.2,0.1c-1.6,0.1-4.5,0.4-5,0.5c-0.6,0.1-4.6-0.1-5.4-0.3c-0.3-0.1-0.9-0.1-1.6-0.2
			c1.1-0.5,2.4,0,3.6-0.1c1,0,2.1-0.2,3.1-0.5c0,0,0-0.1,0,0c-1.7,0.4-3.2,0.4-5,0.2c-0.8-0.1-1.3-0.1-2,0.4c-0.1,0-0.3,0-0.5,0v0.8
			l1.1,0C2.6,13.8,3.9,14,6.4,13.7L6.4,13.7z M38.9,4.6c0.9-0.2,1.7-0.4,2.6-0.2c0.6,0.1,1.1,0.2,1.6,0.1c0,0,0,0,0,0
			c-0.8,0.1-1.6-0.3-2.5-0.3C40,4.1,39.4,4.2,38.9,4.6C38.8,4.5,38.8,4.6,38.9,4.6z M13.8,0.3c0.2-0.1,0.4-0.2,0.7-0.2c0,0,0,0,0,0
			C14.3,0.1,14,0.2,13.8,0.3C13.8,0.3,13.8,0.3,13.8,0.3L13.8,0.3z M15.2,0.1c0.2,0,0.5,0,0.7-0.1c0,0,0,0,0,0
			C15.7,0,15.4,0.1,15.2,0.1C15.1,0.1,15.1,0.1,15.2,0.1z M23,10c0.1,0,0.1-0.2,0-0.2c-0.2,0-0.5,0-0.6,0.2c0,0,0,0.1,0.1,0.1
			C22.6,10.1,22.8,10,23,10L23,10z M21.3,11.3C21.2,11.3,21.2,11.3,21.3,11.3c-0.1,0-0.1,0.1-0.1,0.1c0,0,0,0,0.1,0
			C21.4,11.4,21.4,11.3,21.3,11.3L21.3,11.3z M30.3,11.7C30.3,11.7,30.3,11.7,30.3,11.7C30.3,11.6,30.3,11.6,30.3,11.7
			c0-0.1,0-0.1,0-0.1C30.1,11.4,30.1,11.8,30.3,11.7L30.3,11.7z M32.5,12C32.5,12,32.5,12,32.5,12c-0.1,0-0.1,0-0.2,0
			c-0.1,0-0.1,0.1-0.1,0.1C32.3,12.2,32.5,12.2,32.5,12L32.5,12z M39,10.3c0,0,0-0.1,0-0.1c0,0-0.1,0-0.1,0c-0.1,0-0.1,0.2,0,0.2
			C38.9,10.3,38.9,10.3,39,10.3L39,10.3z M46,12.2C46.1,12.2,46.1,12.1,46,12.2c-0.1-0.1-0.2-0.1-0.3-0.1c-0.1,0-0.1,0.1,0,0.1
			S46,12.2,46,12.2z M47.7,12.2C47.8,12.2,47.8,12.2,47.7,12.2c-0.2-0.1-0.3-0.1-0.5-0.1c-0.1,0-0.1,0.1,0,0.1
			C47.4,12.3,47.6,12.3,47.7,12.2z M5.6,3.3C6.2,3.6,6.7,3,7.3,2.8c0,0,0-0.1,0-0.1C6.7,2.9,6.2,3.4,5.6,3.3
			C5.5,3.2,5.5,3.3,5.6,3.3z M7,1.2c0.1,0,0.1-0.1,0-0.1C6.9,1.1,6.9,1.2,7,1.2z M10.5,12.2C10.6,12.2,10.6,12.1,10.5,12.2
			C10.5,12.1,10.5,12.2,10.5,12.2z M13.5,12.1c0.1,0,0.2-0.1,0.3-0.1c0,0,0,0,0,0C13.7,11.9,13.6,11.9,13.5,12.1
			C13.4,12,13.4,12.1,13.5,12.1z M9.8,9.7C8,9.6,6.3,9.6,4.5,9.4C3.2,9.2,2.6,9,1.4,9.6c0,0,0,0,0,0C2.6,9,4.1,9.6,5.4,9.6
			C6.8,9.6,8.3,9.7,9.8,9.7C9.8,9.7,9.8,9.7,9.8,9.7L9.8,9.7z M13.6,8.4c-0.1,0-0.3,0-0.5,0c-0.1,0-0.1,0.1,0,0.1
			C13.3,8.5,13.5,8.5,13.6,8.4C13.6,8.4,13.6,8.4,13.6,8.4L13.6,8.4z M15.6,9.1C15.7,9.1,15.7,9,15.6,9.1C15.6,9,15.6,9.1,15.6,9.1z
			 M11.3,10.2C11.3,10.2,11.3,10.2,11.3,10.2C11.2,10.2,11.2,10.2,11.3,10.2z M6.9,10.6C6.9,10.6,6.9,10.5,6.9,10.6
			C6.8,10.5,6.8,10.6,6.9,10.6z M13.9,17.9C13.9,17.9,13.9,17.8,13.9,17.9c-0.3-0.1-0.5-0.2-0.8-0.3c-0.1,0-0.1,0.1,0,0.1
			C13.3,17.8,13.6,17.9,13.9,17.9z M18.5,17.9C18.6,17.8,18.6,17.8,18.5,17.9c-0.2-0.1-0.5,0-0.7,0c0,0,0,0.1,0,0.1
			C18.1,18,18.3,18,18.5,17.9z M21.4,18.3C21.4,18.3,21.4,18.2,21.4,18.3c0-0.1-0.1-0.1-0.1-0.1c-0.1,0-0.1,0.1,0,0.1
			C21.3,18.3,21.3,18.3,21.4,18.3z M26.6,20c-0.1,0-0.1,0.1,0,0.1S26.7,20,26.6,20z M23.3,20.6c0.1,0,0.1-0.1,0-0.1
			c-0.1,0-0.3,0-0.4,0c0,0,0,0.1,0,0.1C23.1,20.6,23.2,20.6,23.3,20.6z M34.5,18C34.4,17.9,34.4,18.1,34.5,18
			c0.1,0.1,0.2,0.1,0.3,0.1c0,0,0-0.1,0-0.1C34.7,18,34.6,18,34.5,18z M32.3,20.8c-0.1,0-0.1,0.1,0,0.1c0.2,0,0.3,0,0.5,0
			c0,0,0-0.1,0-0.1C32.7,20.8,32.5,20.8,32.3,20.8z M38,20c-0.6,0-1.1,0-1.6,0.3c-0.1,0,0,0.2,0,0.1c1.2-0.5,2.6,0,3.8-0.1
			c0.1,0,0.1-0.1,0-0.2C39.6,20,38.8,20,38,20z M43.2,20.7c0.3,0,0.6,0.1,0.9,0.1c0,0,0.1,0,0-0.1c-0.3-0.1-0.6-0.2-0.9-0.2
			C43.1,20.5,43.1,20.7,43.2,20.7L43.2,20.7z M48.4,19C48.4,19,48.4,18.9,48.4,19c-0.3-0.1-0.6-0.1-0.9-0.1c0,0,0,0.1,0,0.1
			C47.8,19,48.1,19,48.4,19z M46,18.9h-0.3c0,0,0,0,0,0L46,18.9C46.1,18.9,46.1,18.9,46,18.9z M43.5,18.9c-1.3,0.1-2.5,0-3.8-0.1
			c-0.1,0-0.1,0.1,0,0.1c1.2,0.3,2.5,0.2,3.8,0.1C43.6,19,43.6,18.9,43.5,18.9L43.5,18.9z M4.2,19.6C4.2,19.6,4.2,19.7,4.2,19.6
			c0.2,0,0.4,0,0.7,0c0,0,0,0,0,0C4.7,19.4,4.4,19.5,4.2,19.6L4.2,19.6z M5.9,17C5.9,17,5.9,17,5.9,17c0.3,0,0.7,0,1,0
			c0,0,0-0.1,0-0.1C6.6,16.9,6.2,16.9,5.9,17L5.9,17z M1.4,26.1C1.3,26.1,1.3,26.2,1.4,26.1c0.3,0.1,0.6,0.1,0.8,0c0,0,0,0,0,0
			C2,26.1,1.7,26.1,1.4,26.1L1.4,26.1z M2.7,26.4c0.1,0.2,0.2,0.5,0.4,0.6c0,0,0,0,0,0C3,26.8,2.9,26.6,2.7,26.4
			C2.8,26.3,2.7,26.3,2.7,26.4z M3.7,26.9C3.6,26.9,3.7,27,3.7,26.9c1-0.3,1.8-0.5,2.8-0.6c0,0,0-0.1,0-0.1
			C5.6,26.1,4.5,26.4,3.7,26.9z M28.6,27C28.6,27,28.6,27,28.6,27l-0.1,0c0,0,0,0,0,0H28.6z M31.5,28.7c0.2-0.1,0.5,0,0.8,0
			c0,0,0.1-0.1,0-0.1C32,28.4,31.7,28.5,31.5,28.7C31.4,28.6,31.4,28.7,31.5,28.7L31.5,28.7z M33.7,28.9
			C33.8,28.9,33.8,28.8,33.7,28.9C33.6,28.8,33.6,28.9,33.7,28.9z M34.6,29C34.6,29,34.6,28.9,34.6,29C34.5,28.9,34.5,29,34.6,29z
			 M35.2,25.5c0.8,0.1,1.5,0.4,2.2,0.2c0.1,0,0.1-0.1,0-0.1c-0.7,0.1-1.4-0.1-2.1-0.2c-0.7,0-1.5,0.3-2.2,0.1
			c-0.1,0-0.1,0.1-0.1,0.1C33.8,26.1,34.5,25.4,35.2,25.5z M31.3,25.6c-0.7,0.1-1.3,0.2-2,0.2c0,0,0,0.1,0,0.1
			C30,26,30.7,25.9,31.3,25.6C31.4,25.7,31.4,25.6,31.3,25.6z M44.9,26.9C45,26.9,45,26.9,44.9,26.9C44.9,26.9,44.9,26.9,44.9,26.9z
			 M45.1,26c-0.1,0-0.1,0-0.2,0c0,0,0,0.1,0,0.1c0.1,0,0.1,0,0.2,0C45.1,26.1,45.1,26,45.1,26z M43.4,28.4c0.1,0,0.1-0.1,0-0.1
			S43.3,28.4,43.4,28.4z M42.9,27.1C42.8,27.1,42.8,27.2,42.9,27.1C42.9,27.2,42.9,27.1,42.9,27.1z M45.8,28.2
			C45.8,28.2,45.8,28.1,45.8,28.2c0-0.1-0.1-0.1-0.1-0.1c-0.1,0-0.1,0.1,0,0.1C45.7,28.2,45.7,28.2,45.8,28.2z M46.9,28.2
			C46.9,28.2,46.9,28.2,46.9,28.2C47,28.2,47,28.2,46.9,28.2z M49,28.6c-0.1,0-0.1,0.1,0,0.1C49.1,28.7,49.1,28.6,49,28.6z
			 M39.7,34.8c0.1,0,0.3,0,0.5,0c0,0,0-0.1,0-0.1C40,34.7,39.8,34.7,39.7,34.8C39.6,34.7,39.6,34.8,39.7,34.8L39.7,34.8z M41.6,35.1
			C41.6,35.1,41.6,35,41.6,35.1c-0.1,0-0.3,0-0.4,0c0,0,0,0.1,0,0.1C41.3,35.2,41.5,35.2,41.6,35.1z M42.6,35.1
			c-0.1,0-0.1,0.1,0,0.1S42.6,35.1,42.6,35.1z M16.6,35.6c0,0,0.1,0,0.1-0.1c0,0,0-0.1,0-0.1c0,0-0.1,0-0.1,0
			C16.5,35.5,16.6,35.6,16.6,35.6L16.6,35.6z M18.8,35.1c-0.1,0-0.1,0.1,0,0.1S18.9,35.1,18.8,35.1z M25.4,44.5
			c-0.1,0-0.1,0.1,0,0.1c0.2,0,0.5,0,0.8-0.1c0,0,0-0.1,0-0.1C26,44.4,25.7,44.5,25.4,44.5L25.4,44.5z M30.1,45.8
			C30,45.8,30,45.9,30.1,45.8c0,0.1,0.1,0.1,0.1,0.1c0.1,0,0.1-0.1,0-0.1C30.2,45.8,30.1,45.8,30.1,45.8z M31.6,45.8
			C31.6,45.8,31.6,45.7,31.6,45.8c-0.1-0.1-0.2-0.1-0.4-0.1c-0.1,0-0.1,0.1,0,0.1C31.3,45.8,31.5,45.8,31.6,45.8L31.6,45.8z
			 M33.7,45.7c-0.1,0-0.1,0.1,0,0.1C33.8,45.8,33.8,45.7,33.7,45.7z M45.4,46.1c0.2,0,0.4,0,0.6-0.2c0,0,0,0,0,0
			c-0.2,0-0.4,0-0.6,0.1C45.3,46,45.3,46.1,45.4,46.1L45.4,46.1z M5,44.8C5,44.8,5,44.8,5,44.8c0.7-0.1,1.5,0,2.2,0.3
			c0,0,0.1,0,0-0.1C6.6,44.6,5.8,44.5,5,44.8z M1.3,43.5c-0.1,0-0.1,0.1,0,0.1c0.7,0.2,1.5,0.2,2.2-0.1c0.1,0,0-0.1,0-0.1
			C2.7,43.5,2,43.6,1.3,43.5z M7.7,41.7c-0.1,0-0.3,0-0.4,0c0,0,0,0.1,0,0.1L7.7,41.7C7.7,41.8,7.7,41.7,7.7,41.7L7.7,41.7z
			 M10.9,42C10.9,42.1,10.9,42.1,10.9,42c0.5,0,0.9-0.1,1.3-0.3c0,0,0,0,0,0C11.8,41.8,11.4,41.9,10.9,42z M13.7,41.6
			c-0.2,0-0.4,0-0.7,0c-0.1,0-0.1,0.1,0,0.1C13.2,41.6,13.5,41.7,13.7,41.6C13.7,41.6,13.7,41.6,13.7,41.6L13.7,41.6z M14.9,41.5
			L14.9,41.5C15,41.5,15,41.5,14.9,41.5L14.9,41.5C14.9,41.5,14.9,41.5,14.9,41.5z M16,42.9C16,42.9,16,42.8,16,42.9
			C15.9,42.8,15.9,42.9,16,42.9z M13.5,44.6C13.5,44.6,13.5,44.5,13.5,44.6C13.5,44.5,13.5,44.6,13.5,44.6z M7.4,42.4
			c0.1,0,0.1-0.1,0-0.1S7.3,42.4,7.4,42.4z M4.1,36.2c0.1,0,0.1-0.1,0-0.1C4,36.1,4,36.2,4.1,36.2z M4.5,36.1c0.1,0,0.1-0.1,0-0.1
			C4.4,36,4.4,36.1,4.5,36.1z M2.6,37c0.1,0,0.1-0.1,0-0.1S2.5,37,2.6,37z M5.2,34.5C5.2,34.5,5.2,34.5,5.2,34.5
			C5.3,34.5,5.3,34.5,5.2,34.5c0-0.1,0-0.1,0-0.1C5.1,34.3,5.1,34.6,5.2,34.5L5.2,34.5z"/>
		<path id="SvgjsPath15562" class="st0" d="M16.4,15.3c-0.8-0.4-1.4-0.2-2.3-0.2c-1,0-2-0.2-3,0c0,0,0,0.1,0,0.1c0.5,0,1-0.1,1.5,0
			c0.5,0,0.9,0.3,1.4,0.3C14.8,15.5,15.5,15.1,16.4,15.3C16.4,15.3,16.4,15.3,16.4,15.3L16.4,15.3z M21.7,14.9
			c-1.4,0.1-2.8,0.3-4.2,0.3c0,0,0,0,0,0C18.9,15.3,20.3,15.2,21.7,14.9C21.7,15,21.7,14.9,21.7,14.9L21.7,14.9z M24.9,14.6
			c-0.4-0.1-0.8-0.1-1.2,0c0,0,0,0,0,0C24.1,14.6,24.4,14.6,24.9,14.6C24.9,14.7,24.9,14.7,24.9,14.6z M28.4,15
			c-0.3-0.2-0.8-0.2-1.2-0.2c0,0,0,0.1,0,0.1c0.3,0,0.6,0,0.9,0.1c0.3,0.1,0.4,0.3,0.5,0.6c0,0,0.1,0,0.1,0
			C28.9,15.4,28.7,15.1,28.4,15L28.4,15z M29.2,16.9C29.2,16.8,29.2,16.8,29.2,16.9l-0.1,0.3c0,0,0,0,0.1,0
			C29.3,17.1,29.2,17,29.2,16.9z M27.2,23.1c-1.4-0.1-2.8,0-4.1,0c-0.9,0-2-0.1-2.9,0.2c0,0,0,0.1,0,0.1c1-0.4,2.5-0.1,3.6-0.1
			c1.1,0,2.3,0,3.4,0C27.2,23.2,27.2,23.1,27.2,23.1L27.2,23.1z M39.7,23.4c-1.5-0.3-3.1-0.3-4.7-0.4c-1.8-0.1-3.6-0.2-5.4,0
			c0,0,0,0.1,0,0.1c1.7-0.1,3.4-0.2,5.1,0C36.4,23.2,38,23.5,39.7,23.4C39.8,23.5,39.8,23.4,39.7,23.4L39.7,23.4z M40.1,24.1
			C40.1,24.1,40.1,24.1,40.1,24.1C40.1,24.1,40.1,24.1,40.1,24.1z M40.1,24.1C40.1,24.1,40.1,24.1,40.1,24.1c0,1-0.1,2-0.1,3
			c0,0,0,0,0,0C40.2,26.1,40.2,25.1,40.1,24.1z M49,23.1c-0.6,0-1.3,0.1-1.9,0c-0.5,0-0.9-0.2-1.4-0.3c-1,0-1.8,0.1-2.8,0
			c-0.1,0-0.1,0.1,0,0.1c1.1,0.3,2.3,0.2,3.4,0.3C47.1,23.3,48.1,23.3,49,23.1C49.1,23.2,49.1,23.1,49,23.1L49,23.1z M40,14.8
			c-1.5,0-3.1,0.1-4.7,0c-1.2-0.1-2.5-0.6-3.7-0.2c0,0,0,0.1,0,0.1c1.2-0.4,2.9,0.3,4.2,0.4C37.2,15.2,38.6,15.1,40,14.8
			C40,14.9,40.1,14.8,40,14.8L40,14.8z M47.9,6.7c-0.8-0.5-1.8,0-2.6-0.1c-0.9-0.1-1.8-0.2-2.7,0c-0.1,0,0,0.1,0,0.1
			c0.9-0.1,1.8,0,2.7,0.1C46.1,6.9,47.1,6.5,47.9,6.7C48,6.8,48,6.7,47.9,6.7L47.9,6.7z M28.8,6.6c-2.7,0.3-5.5-0.1-8.2,0
			c-0.1,0-0.1,0.1,0,0.1C23.3,6.8,26.1,7.4,28.8,6.6C28.8,6.7,28.8,6.6,28.8,6.6z M38.8,6.6c-1.9,0.1-3.7-0.3-5.6,0c0,0,0,0.1,0,0.1
			c1.3-0.1,2.3,0,3.6,0.1c0.6,0.1,2.9-0.1,3,0.7c0,0.1,0.1,0.1,0.1,0C40.1,6.7,39.5,6.5,38.8,6.6L38.8,6.6z M28.8-1.4
			c-1-0.7-2.3,0.2-3.3,0c0,0-0.1,0,0,0.1c0.7,0.3,1.2,0.1,2,0c0.8-0.1,1.4,0,1.7,0.9c0.1,0.5,0.1,1.2,0.2,1.7c0,0.1,0.1,0.1,0.1,0
			C29.3,0.5,29.5-0.8,28.8-1.4L28.8-1.4z M23.3-1.6c-0.9,0-1.9,0-2.9,0c0,0,0,0,0,0C21.4-1.5,22.4-1.6,23.3-1.6
			C23.4-1.6,23.4-1.6,23.3-1.6z M14.4,4.1C13.8,4,13.2,4,12.6,4c-0.4,0-2.7,0.5-2.4-0.4c0,0-0.1-0.1-0.1,0C9.9,4,10.3,4.4,10.7,4.5
			c0.4,0,0.7-0.1,1.1-0.1C12.7,4.2,13.6,4.2,14.4,4.1C14.5,4.2,14.5,4.2,14.4,4.1L14.4,4.1z M15.1,4.2c-0.1,0-0.1,0.1,0,0.1
			C15.2,4.4,15.2,4.2,15.1,4.2z M17,4.6c-0.5-0.1-1-0.2-1.5-0.2c0,0,0,0,0,0C15.9,4.5,16.4,4.6,17,4.6C17,4.7,17,4.6,17,4.6z
			 M32.8,4.4c-0.3,0-0.6,0-0.8-0.2c-0.2-0.2-0.1-0.6-0.1-0.9c0.1-0.3,0.1-0.6,0-1c0,0-0.1,0-0.1,0c0.2,0.5-0.3,1.1-0.1,1.7
			c0.1,0.4,0.7,0.5,1.1,0.5C32.9,4.5,32.9,4.4,32.8,4.4z M36.1,2.3c-0.6-0.1-1.3-0.3-1.9-0.4c-0.7,0-1.8,0.6-2.4,0.1
			c0,0-0.1,0,0,0.1c0.4,0.3,0.8,0.2,1.2,0.1C34.1,1.8,35,2.3,36.1,2.3C36.1,2.3,36.1,2.3,36.1,2.3z M31.7-1.8
			C31.7-1.8,31.6-1.9,31.7-1.8c-0.2,0.6-0.2,1.2,0,1.9c0,0,0.1,0,0.1,0C31.6-0.5,31.6-1.1,31.7-1.8L31.7-1.8z M7.4-1.5
			C6.8-2,6.1-1.9,5.4-1.9C4.2-1.7,3-1.8,1.9-1.9c0,0,0,0,0,0.1c0.8,0.2,1.7,0.3,2.5,0.3c1,0,2-0.2,3,0.1C7.4-1.4,7.5-1.5,7.4-1.5z
			 M7.6,0c0-0.4,0-0.8-0.2-1c0,0-0.1,0,0,0c0.3,0.4,0.2,1.2,0.2,1.6c0,0.4,0,0.9,0.1,1.3c0,0,0,0,0,0C7.7,1.3,7.6,0.6,7.6,0z
			 M7.6,3.7C7.6,3.6,7.5,3.6,7.6,3.7C7.6,3.9,7.5,4.1,7.5,4.4c0,0,0,0,0,0C7.7,4.2,7.7,3.9,7.6,3.7z M18.4,7.7c0-0.5-0.2-1-0.8-0.9
			c0,0,0,0.1,0,0.1c1,0.3,0.5,2.3,0.5,3c0,0.7,0.2,1.3,0.4,1.9c0,0,0,0,0,0C18,10.4,18.4,9.1,18.4,7.7L18.4,7.7z M17.2,6.8
			c-0.5,0-1,0-1.6,0c0,0,0,0.1,0,0.1C16.1,6.9,16.7,6.9,17.2,6.8C17.2,6.8,17.2,6.8,17.2,6.8z M8.3,6.4c-0.8-0.2-1.7-0.1-2.6,0
			c-1,0.1-2.1,0.1-3.1,0.3c0,0,0,0.1,0,0.1C4.5,6.8,6.5,6.2,8.3,6.4C8.4,6.5,8.4,6.4,8.3,6.4z M4.4,9C3.7,9.3,3,8.7,2.3,8.9
			c0,0,0,0,0,0C3,8.8,3.8,9.5,4.4,9C4.5,9,4.5,9,4.4,9z M6.2,14.7c-1.7,0.1-3.1,0.3-4.7-0.3c0,0-0.1,0.1,0,0.1
			c0.7,0.3,1.4,0.5,2.2,0.6c0.7,0,3.3-0.4,3.6,0.4c0,0,0.1,0,0.1,0C7.3,14.8,6.8,14.7,6.2,14.7L6.2,14.7z M7.6,17.2
			C7.6,17.1,7.5,17.1,7.6,17.2c-0.1,0.2-0.1,0.5-0.1,0.8c0,0,0.1,0,0.1,0C7.7,17.7,7.6,17.4,7.6,17.2z M13.4,23.3
			c-1.6-0.4-3.3-0.3-5-0.3c0,0,0,0,0,0C10.1,23,11.7,23.1,13.4,23.3C13.4,23.4,13.4,23.4,13.4,23.3L13.4,23.3z M13.6,29.4
			c-1.9,0.1-3.9-0.3-5.8-0.3c0,0,0,0.1,0,0.1C9.6,29.4,11.8,29.8,13.6,29.4C13.6,29.4,13.6,29.4,13.6,29.4z M18.1,24.6
			c0-0.5,0.3-1.2-0.4-1.3c-0.1,0-0.1,0.1,0,0.1c0.6,0.4,0.2,2.2,0.3,2.9c0.1,0.8,0.2,1.7,0.4,2.5c0,0,0,0,0,0
			C18.2,27.3,18,25.9,18.1,24.6z M26.4,26.6c-0.9-0.8-1.9-0.8-3-0.4c-0.1,0,0,0.1,0,0.1c0.5-0.2,1.1-0.4,1.7-0.2
			C25.6,26.1,25.9,26.4,26.4,26.6C26.4,26.7,26.4,26.6,26.4,26.6L26.4,26.6z M30.2,27.6c-0.1-0.2-0.4-0.3-0.6-0.2
			c-0.2,0-0.3,0.1-0.5,0.2c-0.3,0.2-0.6,0.3-1,0.3C28,27.9,28,28,28,28c0.3,0,0.6,0,0.8-0.2C29.3,27.7,29.7,27.3,30.2,27.6
			C30.2,27.8,30.3,27.7,30.2,27.6L30.2,27.6z M39.6,31.6c-1.4-0.1-2.6,0.7-4,0.5c-1.3-0.2-2.6-0.5-4-0.6c-0.1,0-0.1,0.1,0,0.1
			c1.5,0.2,3,0.7,4.5,0.8c0.3,0,0.6,0,0.9-0.1c0.9-0.3,1.6-0.5,2.6-0.6C39.7,31.7,39.7,31.6,39.6,31.6L39.6,31.6z M47.2,31.2
			c-1.5,0-3.4-0.1-4.9,0.4c0,0,0,0.1,0,0.1C43.8,31.2,45.6,31.5,47.2,31.2C47.2,31.3,47.2,31.2,47.2,31.2L47.2,31.2z M31.9,37.4
			c-0.2,0-0.3-0.1-0.3-0.2c0-0.1,0-0.1,0-0.2c0-0.1,0-0.2,0-0.3c0-0.2,0-0.4,0-0.7c0,0-0.1,0-0.1,0c0,0.3,0,0.6,0,0.9
			c0,0.2,0,0.4,0.1,0.6C31.7,37.6,32,37.6,31.9,37.4C32,37.4,31.9,37.3,31.9,37.4z M41.1,37.2c-0.7,0.1-1.4,0.2-2.1,0.4
			c-0.9,0.2-1.6,0.1-2.5,0c0,0-0.1,0.1,0,0.1c0.6,0.1,1.3,0.3,1.9,0.2C39.2,37.7,40.2,37.5,41.1,37.2C41.2,37.2,41.2,37.2,41.1,37.2
			z M17.6,31.5c-1.4,0-2.7,0.4-4.1,0c-1.2-0.3-2.4-0.2-3.7-0.1c0,0,0,0,0,0c0.8,0,1.6-0.1,2.4,0c0.8,0,1.3,0.5,2,0.6
			C15.2,32.1,16.6,31.8,17.6,31.5C17.6,31.6,17.6,31.5,17.6,31.5L17.6,31.5z M29,31.5c-1.7-0.2-3.3-0.1-5-0.2
			c-1.5-0.1-2.9,0.2-4.4,0.2c0,0,0,0.1,0,0.1c1.5,0,2.9-0.3,4.4-0.2c1.7,0.1,3.3,0.3,5,0.3C29.1,31.7,29.1,31.5,29,31.5z M29.4,34
			c0,0-0.1-0.1-0.1-0.1c-0.1-0.2-0.1-0.3,0-0.6c0.1-0.4,0.1-0.8-0.1-1.2c0-0.1-0.1,0-0.1,0.1c0.1,0.3,0.2,0.6,0.1,0.9
			c0,0.2-0.2,0.3-0.2,0.5c0,0.3,0.3,0.4,0.3,0.7c0,0.1,0.1,0.1,0.1,0C29.4,34.2,29.4,34.1,29.4,34L29.4,34z M29.4,35.1
			C29.4,35,29.3,35,29.4,35.1c-0.1,0.3-0.1,0.6-0.1,0.8c0,0,0.1,0,0.1,0C29.5,35.7,29.4,35.4,29.4,35.1z M15.3,35.7
			c-0.7-0.1-0.6-0.2-1.2-0.7c0,0-0.1-0.2-0.2-0.3C13,34,10.6,35.3,10,34.3c0,0-0.1,0-0.1,0c0.6,1.2,2.5,0,3.5,0.5
			c0.5,0.3,0.2,0.6,0.7,0.9C14.4,35.9,15,35.8,15.3,35.7C15.3,35.8,15.3,35.7,15.3,35.7z M17.8,36.1c-0.4,0-0.8,0-1.2,0
			c-0.1,0-0.1,0.1,0,0.1C17,36.2,17.4,36.2,17.8,36.1C17.8,36.1,17.8,36.1,17.8,36.1z M23.1,33.9c-0.4,0-0.8,0-1.2,0
			c-0.1,0-0.1,0.1,0,0.1C22.3,34,22.7,34,23.1,33.9C23.2,34,23.2,33.9,23.1,33.9L23.1,33.9z M5.7,31.7c-0.8-0.3-1.5-0.1-2.4-0.1
			c-1,0-1.9-0.1-2.9-0.4c0,0-0.1,0.1,0,0.1C2.1,32.1,3.8,31.7,5.7,31.7C5.7,31.8,5.7,31.7,5.7,31.7z M6.8,31.7
			C6.7,31.7,6.7,31.8,6.8,31.7c0.3,0.1,0.5,0.4,0.6,0.8c0,0,0,0,0,0C7.5,32.1,7.1,31.7,6.8,31.7z M7.6,33.4
			C7.6,33.3,7.5,33.3,7.6,33.4c-0.1,0.4-0.2,0.8-0.1,1.1c0,0,0.1,0,0.1,0C7.7,34.2,7.6,33.8,7.6,33.4z M18,40.6c0-0.1-0.1-0.1-0.1,0
			c-0.1,1.1,0,2.2,0,3.3c0,0.4,0.2,1.2,0,1.6c-0.3,0.8-1.1,0.6-1.7,0.7c0,0,0,0.1,0,0.1c1,0,1.9,0.3,1.9-0.8
			C18.2,43.9,18.2,42.1,18,40.6z M17.8,39.7c-0.6-0.2-1.3,0-1.9,0c-0.7,0.1-1.4,0.1-2.1,0.3c0,0,0,0.1,0,0.1
			C15.1,40.1,16.4,39.7,17.8,39.7C17.8,39.8,17.8,39.7,17.8,39.7z M11.7,39.7c-1.3-0.2-2.7-0.3-4.1-0.2c-1.5,0.1-2.9,0.6-4.5,0.6
			c0,0,0,0,0,0.1c1.2,0.1,2.4-0.1,3.6-0.3C8.4,39.6,10,39.6,11.7,39.7C11.8,39.8,11.8,39.7,11.7,39.7L11.7,39.7z M13.4,42.3
			c-0.5,0-0.9,0.1-1.4,0.2c0,0,0,0.1,0,0.1C12.5,42.6,12.9,42.5,13.4,42.3C13.4,42.4,13.4,42.3,13.4,42.3L13.4,42.3z M23.2,44.7
			c-0.4-0.6-1.2-0.9-2-0.7c-0.1,0,0,0.1,0,0.1C22,44.1,22.6,44.3,23.2,44.7C23.2,44.8,23.2,44.8,23.2,44.7z M26.1,45.2
			c-0.3,0-0.7,0.1-1.1,0.1c-0.1,0,0,0.1,0,0.1C25.3,45.4,25.7,45.4,26.1,45.2C26.1,45.2,26.1,45.2,26.1,45.2z M27.9,45.1
			c0,0-0.1,0-0.2,0c0,0,0,0.1,0,0.1C27.8,45.2,27.8,45.2,27.9,45.1C27.9,45.1,27.9,45.1,27.9,45.1z M32.1,44.1
			c-0.3-0.2-0.7-0.2-1.1-0.2c-0.1,0,0,0.1,0,0.1C31.4,44,31.8,44,32.1,44.1C32.1,44.2,32.2,44.1,32.1,44.1z M34,44.5
			c-0.2,0-0.3,0-0.5,0c0,0,0,0.1,0,0.1C33.6,44.5,33.8,44.5,34,44.5C34,44.5,34,44.5,34,44.5L34,44.5z M36,44.6c-0.1,0-0.2,0-0.4,0
			c-0.1,0-0.1,0.1,0,0.1C35.7,44.8,35.9,44.8,36,44.6C36,44.6,36,44.6,36,44.6L36,44.6z M37.2,42.6c-0.1,0-0.1,0.1,0,0.1
			S37.3,42.6,37.2,42.6z M21.1,39.9c-0.3-0.2-0.6-0.2-0.9-0.2c-0.1,0,0,0.1,0,0.1C20.5,39.7,20.8,39.8,21.1,39.9
			C21.1,39.9,21.2,39.9,21.1,39.9L21.1,39.9z M33.1,39.8c-0.7-0.2-1.3-0.1-2,0C30,40.1,29,40,27.9,40c-0.8,0-1.6,0.3-2.4,0.3
			c-0.8,0-1.5-0.2-2.4-0.1c0,0,0,0.1,0,0.1c0.8,0,1.5,0.1,2.3,0.2c0.8,0,1.4-0.2,2.2-0.3c0.9-0.1,1.8,0.1,2.7,0
			c0.9-0.1,1.7-0.4,2.7-0.2C33.2,40.1,33.3,39.9,33.1,39.8z M39.5,39.8c-0.9-0.2-1.7-0.1-2.6,0c-0.8,0.1-1.6-0.2-2.3,0.1
			c0,0,0,0.1,0,0.1c0.8-0.2,1.6,0,2.4,0c0.8,0,1.6,0,2.5,0C39.6,40,39.6,39.8,39.5,39.8z M39.7,40.2C39.7,40.1,39.6,40.2,39.7,40.2
			c0,0.2,0,0.3,0.1,0.4c0,0.1,0,0.2,0.1,0.4c0,0,0.1,0,0.1,0C40.1,40.7,39.9,40.4,39.7,40.2L39.7,40.2z M42.4,40.1
			c-0.1,0.7-0.2,1.3,0,2c0,0,0.1,0,0.1,0c0-0.7,0-1.3,0.1-2C42.6,40,42.5,40,42.4,40.1L42.4,40.1z M42.6,43
			C42.6,42.9,42.5,42.9,42.6,43c-0.1,0.2,0,0.5,0.1,0.7c0.2,0.3,0.3,0.5,0.3,0.8c0,0,0,0,0.1,0C43.4,44,42.6,43.5,42.6,43L42.6,43z
			 M47.6,39.9c-0.8-0.1-1.7,0-2.6-0.1c-0.1,0-0.1,0.1,0,0.1c0.8,0.1,1.8,0.3,2.6,0.2C47.7,40.1,47.6,40,47.6,39.9L47.6,39.9z"/>
	</g>
	<g id="svga-group-humanwrap-move" transform="matrix(1,0,0,1,0,0)">
		<g id="svga-group-humanwrap">
			<g id="svga-group-humanbody-back">
				<path id="SvgjsPath15197" class="st3" d="M41.6,42.6c-2.7-1.6-6.9-2.1-8.7-3c-1.2-0.6-2.3-1.2-2.2-4.4c0-3.3,0.5-10.6,0.5-10.6
					H18.9c0,0,0.4,7.3,0.5,10.6c0.1,3.2-1,3.9-2.2,4.4c-1.8,0.9-6,1.3-8.7,3c-2.7,1.6-2.5,4.7-2.5,4.7v4.9h38.3v-4.9
					C44.2,47.3,44.4,44.2,41.6,42.6L41.6,42.6z"/>
			</g>
			<g id="svga-group-chinshadow-single">
				<path id="SvgjsPath15193" class="st4" d="M19.3,36.3c1.7,2.1,3.3,3.8,4.3,3.7c0,0,1.1-0.2,1.4-0.2c0.3,0,1.4,0.2,1.4,0.2
					c1,0.1,2.5-1.6,4.3-3.7c0-0.3,0-0.7,0-1.2c0-3.3,0.5-10.6,0.5-10.6H18.9c0,0,0.4,7.3,0.5,10.6C19.3,35.5,19.3,35.9,19.3,36.3
					L19.3,36.3z"/>
			</g>
			<g id="svga-group-humanbody-front">
				<path id="SvgjsPath15198" class="st5" d="M19.7,36.5c0.1,1.2,0.4,2.3,0.8,3.5c0.2,0.6,0.4,1.1,0.6,1.7c0.2,0.5,0.4,1,0.8,1.5
					c0.1,0.1,0.2,0,0.2-0.1c-0.1-0.5-0.4-1.1-0.6-1.6c-0.2-0.5-0.4-1.1-0.6-1.6c-0.4-1.1-0.7-2.2-1-3.3
					C19.8,36.4,19.7,36.4,19.7,36.5L19.7,36.5z M30,36.3c-0.3,2-1,4-1.3,6c0,0.1,0.1,0.1,0.1,0C29.6,40.4,29.8,38.3,30,36.3
					C30.1,36.2,30,36.2,30,36.3L30,36.3z M23.6,39.2c-0.2,0.9,0.5,2.1,1.5,1.9c0.1,0,0.1-0.2,0-0.2c-0.3-0.1-0.7-0.2-1-0.5
					c-0.3-0.3-0.4-0.7-0.3-1.1C23.8,39.1,23.6,39.1,23.6,39.2L23.6,39.2z"/>
				<path id="SvgjsPath15199" class="st6" d="M44.3,52.2c0-1.6-0.1-3.3-0.1-4.9l-0.1-0.1c0,0,0,0,0,0c0,0,0,0,0,0v-0.3
					c0-0.1,0-0.2,0-0.3c0-0.2-0.1-0.5-0.1-0.7c-0.1-0.4-0.3-0.9-0.5-1.3c-0.4-0.8-1.1-1.5-1.9-2c-0.9-0.5-1.9-0.9-2.9-1.3
					c-1-0.3-2-0.6-3-0.9c-1-0.3-2-0.5-2.9-1c-0.5-0.2-0.9-0.5-1.2-0.9c-0.3-0.4-0.5-0.9-0.6-1.4c-0.2-1-0.1-2-0.1-3.1l0.2-3.1
					l0.4-6.3l0-0.3h-0.3c-2,0-4.1,0-6.1,0l-6.1,0.1h-0.2l0,0.2c0.2,3,0.4,5.9,0.5,8.9c0,0.7,0.1,1.5,0,2.2s-0.1,1.5-0.4,2.1
					c-0.1,0.3-0.3,0.6-0.6,0.9c-0.2,0.2-0.6,0.4-0.9,0.6c-0.6,0.3-1.3,0.5-2.1,0.7c-1.4,0.4-2.9,0.7-4.3,1.2
					c-0.7,0.2-1.4,0.5-2.1,0.8c-0.3,0.2-0.7,0.3-1,0.6c-0.3,0.2-0.6,0.5-0.9,0.8c-0.5,0.6-0.9,1.3-1.1,2c-0.1,0.4-0.2,0.7-0.2,1.1
					c0,0.2,0,0.4,0,0.6v0.6l0,4.5v0.3h0.3l9.6,0c3.2,0,6.4,0,9.6,0c3.2,0,6.4,0,9.6-0.1c3.2,0,6.4-0.1,9.6-0.2h0.1L44.3,52.2
					L44.3,52.2z M25,51.8h-9.6l-9.2,0l0-4.1v-0.5c0-0.2,0-0.3,0-0.5c0-0.3,0.1-0.7,0.2-1c0.2-0.7,0.5-1.3,1-1.9
					c0.2-0.3,0.5-0.5,0.8-0.7c0.3-0.2,0.6-0.4,0.9-0.6c0.6-0.3,1.3-0.6,2-0.9c1.4-0.5,2.8-0.8,4.3-1.3c0.7-0.2,1.4-0.4,2.1-0.8
					c0.3-0.2,0.7-0.4,0.9-0.6c0.3-0.3,0.5-0.6,0.6-1c0.3-0.7,0.4-1.5,0.4-2.2c0-0.7,0-1.5,0-2.2l-0.3-8.7l5.9,0.1c1.9,0,3.8,0,5.8,0
					c-0.1,2-0.2,4-0.3,5.9c0,1,0,2.1-0.1,3.1c0,1,0,2.1,0.2,3.2c0.1,0.5,0.3,1,0.7,1.5c0.3,0.4,0.8,0.7,1.3,0.9c1,0.5,2,0.7,3,0.9
					c1,0.2,2,0.5,3,0.8c1,0.3,2,0.7,2.9,1.2c0.8,0.5,1.4,1.2,1.9,2c0.2,0.4,0.4,0.8,0.5,1.3c0,0.2,0.1,0.4,0.1,0.7
					c0,0.1,0,0.2,0,0.3v0.4L44,52.1c-3.1,0-6.3-0.1-9.4-0.2C31.4,51.9,28.2,51.9,25,51.8L25,51.8z"/>
			</g>
			<g id="svga-group-clothes-single">
				<path id="SvgjsPath15678" class="st7" d="M25.2,43.4c-0.3-0.7-2-1.9-3.3-2.6c-1.2-0.7-1.7-1.2-2.5-2.2c-0.4-0.9-0.2-2.2-0.2-2.2
					c0-1.2-0.1-2.4-0.2-3.7c-2-0.3-3.3,0.9-3.5,1.1c-1.6,1.6-0.8,2.1-1.4,2.9c-2.3,0.5-1.8,3.5-2.7,3.7c-2.2,0.5-5.3,1.7-6,5.2
					c0,0-0.4,2.3-0.4,6.7h40.2c0-4.4-0.4-6.7-0.4-6.7c-0.8-3.8-4.4-4.7-6.5-5.3c-0.3-0.1,0-1.3-0.6-2.6c-0.3-0.7-1-1.6-2.3-1.9
					c0,0-0.3-1.6-1.3-2.5c-1-0.8-2.8-0.6-2.8-0.6s-0.1,3.5-0.1,4c0,0.8,0,1.2-0.4,1.6s-1.1,1-1.7,1.9s-2.5,1.9-2.9,2.2
					C25.6,42.8,25.2,43.4,25.2,43.4L25.2,43.4z"/>
				<path id="SvgjsPath15679" class="st8" d="M26.4,44.2C26.3,44.3,26,45,26,45.6c0,0.6,0.4,2.9,0.5,3.3c0.1,0.5-0.2,1.8-0.2,2.1
					s0.7,0.7,0.8,0.4c0.1-0.3,0.3-2.1,0-2.7c-0.2-0.6-0.5-2.5-0.5-2.9s0.3-1.4,0.4-1.6c0,0,0-0.2-0.1-0.2
					C26.6,44,26.4,44.2,26.4,44.2L26.4,44.2z"/>
				<path id="SvgjsPath15680" class="st8" d="M23.9,44L23.9,44c0,0,0.5-0.4,0.5,0.2c0,0-0.3,0.7-0.3,1.2c0,0.5,0.5,3,0.6,3.5
					c0.1,0.5-0.7,2.6-0.8,2.6c-0.1,0-0.5-0.2-0.6-0.3c-0.1-0.1,0.6-1.7,0.7-2.5c0.1-0.7-0.1-2.2-0.3-3C23.5,44.8,23.8,44.2,23.9,44
					L23.9,44L23.9,44z"/>
				<path id="SvgjsPath15681" class="st9" d="M45.4,48.4c0-0.6-0.1-1.3-0.2-2l0-0.5l0-0.2v-0.1c0,0,0,0,0-0.1l0-0.1
					c-0.1-0.3-0.2-0.7-0.3-1c-0.3-0.6-0.6-1.2-1.1-1.8c-0.5-0.5-1-0.9-1.6-1.3c-1.1-0.7-2.4-1-3.6-1.4v0c0-0.1,0-0.2,0-0.3
					c0-0.2,0-0.5-0.1-0.8c-0.1-0.5-0.3-1-0.5-1.5s-0.6-0.9-1-1.2c-0.4-0.3-0.8-0.5-1.2-0.6c-0.1-0.3-0.2-0.7-0.3-1
					c-0.2-0.4-0.4-0.8-0.7-1.1c-0.3-0.3-0.8-0.6-1.2-0.7c-1.3-0.3-2.1-0.1-2.1-0.1s-0.3,2.4-0.7,5.6c0,0-1,1.2-1.3,1.7
					c-0.1,0.1-0.2,0.2-0.3,0.3c0,0-0.1,0.1-0.1,0.1l-0.1,0.1c-0.2,0.2-0.4,0.4-0.6,0.5c-0.4,0.3-0.9,0.7-1.4,1
					c-0.1,0.1-0.2,0.2-0.3,0.3c-0.1,0.1-0.2,0.2-0.3,0.3c-0.1,0.1-0.2,0.2-0.2,0.3l-0.1,0.2l0,0.1l0,0l0-0.1L25.1,43
					c0-0.1-0.1-0.2-0.2-0.2l-0.4-0.4c-0.3-0.3-0.6-0.5-1-0.8s-0.7-0.5-1-0.7c-0.3-0.2-0.7-0.4-1-0.7c-0.7-0.5-1.1-1.1-1.6-1.8
					c-0.3-0.3-0.4-0.9-0.5-1.2c0-0.2,0.1-2.7,0-4.5c0-0.1-0.2-0.2-1.4-0.3c-1.2,0-2.2,0.8-2.6,1.2c-0.4,0.4-0.8,0.8-1,1.4
					c-0.1,0.3-0.1,0.6-0.2,0.8c0,0.2-0.1,0.3-0.2,0.5c-0.4,0.1-0.8,0.3-1.1,0.6c-0.3,0.3-0.6,0.7-0.7,1.2c-0.2,0.4-0.3,0.8-0.4,1.2
					c0,0.2-0.1,0.4-0.2,0.5c0,0.1-0.1,0.1-0.1,0.1c0,0,0,0,0,0l-0.1,0c-0.8,0.2-1.6,0.5-2.4,0.8c-0.8,0.4-1.5,0.9-2.1,1.5
					c-0.6,0.6-1,1.4-1.3,2.2c-0.1,0.2-0.1,0.4-0.2,0.6l0,0.2c0,0,0,0,0,0.1v0.1L5,46c0,0.4-0.1,0.8-0.1,1.2c-0.1,1.7-0.1,3.3-0.1,5
					c0,0.1,0,0.3,0.1,0.3c3.3,0,40.2,0,40.2,0c0.2,0,0.4-0.2,0.4-0.4C45.5,51,45.5,49.7,45.4,48.4L45.4,48.4z M31.2,33.5
					c0.2,0.1,1.2,0.6,1.5,1.3c0,0.2,0,0.4,0,0.6c0,0.2-0.1,0.4-0.3,0.6c-0.5,0.6-1.5,1.6-1.6,1.7C32.1,35.5,31.2,33.5,31.2,33.5
					L31.2,33.5z M18.6,37.9c0.2,0.3,1,1.1,1.2,1.4c-0.1-0.1-1-0.7-1.1-0.8c-0.3-0.2-0.4-0.4-0.7-0.7c-0.4-0.5-0.7-1.3-0.8-2
					c-0.1-0.3-0.1-0.7,0.1-0.9c0.5-0.4,1.5-0.5,1.5-0.5c0,0.7-0.8,1.4-0.8,2.1c0,0.1,0,0.1,0,0.2v0.2c0,0.1,0,0.2,0.1,0.3
					C18.2,37.3,18.5,37.7,18.6,37.9L18.6,37.9z M12,40.3c0.1-0.2,0.2-0.4,0.2-0.6c0.1-0.4,0.2-0.8,0.3-1.2c0.1-0.4,0.3-0.7,0.6-0.9
					s0.6-0.4,0.9-0.5c0,0,0.1,0,0.1,0c0,0.3,0,0.5,0.1,0.8c0.1,0.4,0.2,0.8,0.3,1.2c0.1,0.2,0.2,0.4,0.3,0.6
					c0.1,0.2,0.2,0.4,0.4,0.5c0.6,0.7,1.3,1.2,2,1.6c0.8,0.4,1.6,0.7,2.4,0.8c-0.8-0.3-1.5-0.7-2.2-1.2c-0.3-0.2-0.7-0.4-1-0.7
					c-0.3-0.3-0.6-0.5-0.8-0.8c-0.1-0.1-0.2-0.3-0.3-0.5c-0.1-0.2-0.2-0.3-0.3-0.5c-0.2-0.3-0.3-0.8-0.4-1.1
					c-0.1-0.3-0.2-0.7-0.2-1.1c0,0-0.2-1.3,1.1-2.5c0.3-0.4,0.7-0.7,1.1-0.9c1-0.6,1.7-0.3,2-0.3c0,0.5,0,0.8,0.1,1.3
					c-0.1,0-1,0.2-1.1,0.3c-0.2,0.1-0.4,0.1-0.5,0.3c-0.2,0.1-0.3,0.4-0.3,0.6c0,0.2,0,0.4,0,0.6c0.1,0.8,0.3,1.6,0.8,2.2
					c0.2,0.3,0.6,0.6,0.9,0.8l1,0.6c0.3,0.2,0.6,0.4,1,0.5c0.2,0.1,0.4,0.3,0.6,0.4c0.3,0.2,0.7,0.4,1.1,0.6
					c0.3,0.2,0.7,0.4,1.1,0.6c0.3,0.2,0.7,0.5,1,0.7c0.2,0.1,0.3,0.3,0.5,0.4c0.1,0.1,0.1,0.1,0.2,0.2c0,0,0,0.1,0.1,0.1l0,0.1
					c0,0,0,0.1,0.1,0.1c0,0,0,0,0,0v0l0,0l0,0l0-0.1l0.1-0.2c0.1-0.1,0.2-0.2,0.3-0.3c0.1-0.1,0.2-0.2,0.3-0.3
					c0.1-0.1,0.2-0.2,0.3-0.2c0.5-0.3,1-0.6,1.5-0.9c0.2-0.2,0.5-0.3,0.7-0.5c0,0,0.1-0.1,0.2-0.1c0,0,0.1-0.1,0.1-0.2
					c0.1-0.1,0.2-0.2,0.3-0.3c0.4-0.4,0.8-0.8,1.2-1.2l0.6-0.6c0.2-0.2,0.8-0.7,0.9-0.8c0.4-0.3,0.7-0.7,0.9-1.1s0.2-1,0-1.5
					c-0.3-0.6-1.4-1.2-1.7-1.4l0-0.6c0,0,1.1-0.2,2,0.3c0.6,0.4,1.1,1.3,1.3,1.7c0.1,0.3,0.3,0.7,0.3,1.1c0,0.1,0.1,0.2,0.2,0.3
					c0,0,0,0,0,0c0,0.5-0.1,1-0.3,1.4c-0.1,0.4-0.3,0.7-0.6,1c-0.2,0.3-0.5,0.6-0.8,0.8c-0.1,0.1-0.3,0.2-0.4,0.4l-0.5,0.4
					c-0.3,0.2-0.6,0.5-1,0.7c-0.6,0.5-1.3,0.9-2,1.4c0.8-0.3,1.5-0.7,2.2-1.1c0.7-0.4,1.4-0.9,2-1.4c0.1-0.1,0.3-0.3,0.4-0.4
					l0.2-0.2l0.2-0.2c0.3-0.3,0.4-0.7,0.6-1.2c0.1-0.5,0.2-1,0.2-1.5c0.3,0.1,0.6,0.3,0.9,0.5c0.3,0.3,0.6,0.6,0.8,1
					s0.4,0.8,0.4,1.3c0,0.2,0,0.4,0,0.7c0,0.1,0,0.2,0,0.4c0,0.1,0,0.1,0,0.3c0,0,0,0.1,0.1,0.2l0,0l-0.3,0.3
					c-0.2,0.2-0.5,0.4-0.7,0.6c-0.5,0.4-1,0.8-1.5,1.1c-0.5,0.3-1,0.7-1.5,1c-0.3,0.1-0.5,0.3-0.8,0.4c-0.3,0.1-0.6,0.2-0.9,0.3
					c-0.6,0.2-1.2,0.3-1.8,0.4c-0.6,0.1-1.2,0.3-1.8,0.4l-0.9,0.1c-0.1,0-0.3,0-0.4,0c-0.1,0-0.3,0-0.4-0.1l0,0
					c0.1-0.3,0.1-0.6,0.2-0.8c0,0,0-0.1,0-0.2c0,0-0.1-0.1-0.2-0.1c-0.1,0-0.2,0.1-0.3,0.1c0.1-0.1,0.2-0.1,0.3-0.1
					c0,0,0.1,0,0.1,0.1c0,0,0,0.1,0,0.2c-0.1,0.3-0.2,0.6-0.3,0.9c-0.1,0.3-0.1,0.6-0.1,1c0,0.6,0.1,1.3,0.3,1.9
					c0,0.1,0.1,0.3,0.1,0.5l0.1,0.2c0,0.1,0,0.1,0,0.2c0,0.3,0,0.6,0,0.9c0,0.3,0,0.6-0.1,0.9c0,0.1,0,0.3-0.1,0.5c0,0,0,0.1,0,0.1
					c0,0-0.1,0-0.1,0c-0.1,0-0.2-0.1-0.3-0.2c0,0,0,0,0-0.1v-0.1c0-0.1,0-0.1,0-0.2c0-0.3,0.1-0.6,0.1-0.9c0-0.1,0-0.3,0-0.5
					c0-0.1,0-0.3,0-0.5L26.4,48c-0.1-0.6-0.3-1.3-0.3-1.9c0-0.1,0-0.3,0-0.5c0-0.1,0-0.2,0-0.3c0,0,0-0.1,0-0.1
					c0-0.1,0.1-0.3,0.1-0.5c0,0.1-0.1,0.3-0.1,0.5c0,0,0,0.1,0,0.1c-0.2-0.1-0.5-0.2-0.8-0.3c-0.3,0-0.6-0.1-0.9-0.1
					c0-0.2,0.1-0.4,0.2-0.5c0,0,0-0.1,0-0.2c0,0,0-0.1-0.1-0.1c-0.1,0-0.2,0-0.3,0.1c0.1,0,0.2-0.1,0.3,0c0.1,0,0.1,0.2,0.1,0.3
					c-0.1,0.3-0.2,0.6-0.3,0.9c0,0.1,0,0.3,0,0.5c0,0.2,0,0.3,0.1,0.5c0.1,0.6,0.2,1.3,0.3,1.9l0.1,0.5c0,0.1,0,0.3,0,0.5
					c0,0.3-0.1,0.6-0.2,0.9s-0.2,0.6-0.3,0.9c0,0.1-0.1,0.3-0.2,0.4c0,0,0,0,0,0.1c0,0-0.1,0-0.2-0.1c-0.1,0-0.1-0.1-0.2-0.1
					c0,0,0,0-0.1-0.1l0,0c0,0,0-0.1,0-0.2l0.1-0.2l0.3-0.9c0.1-0.3,0.2-0.6,0.2-1c0-0.3,0-0.7,0-1c0-0.6-0.2-1.3-0.3-1.9
					c-0.1-0.4-0.1-1,0-1.4h0c0,0,0,0,0,0c0-0.1,0.1-0.3,0.2-0.4c-0.1,0.1-0.1,0.3-0.2,0.4c-0.1-0.1-0.2-0.3-0.1-0.5
					c0-0.1,0.2-0.2,0.4-0.2c0.2,0,0.3,0.1,0.5,0.2c0.1,0.1,0.1,0.1,0.1,0.2c0,0.1,0,0.2-0.1,0.2c0,0,0.1,0,0.2-0.1s0.1-0.1,0.1-0.2
					c0-0.1,0-0.2-0.1-0.3c-0.1-0.2-0.4-0.3-0.6-0.4c-0.1,0-0.3,0-0.4,0.1s-0.2,0.2-0.2,0.3c0,0.3,0.1,0.4,0.3,0.5
					c0,0.1,0,0.2-0.1,0.3l-1.4-0.2c-0.6-0.1-1.3-0.1-1.9-0.2c-0.6-0.1-1.3-0.2-1.9-0.3c-0.3,0-0.6-0.1-0.9-0.2
					c-0.3-0.1-0.6-0.2-0.9-0.3c-0.6-0.2-1.2-0.6-1.7-0.9c-0.6-0.3-1.1-0.6-1.7-1c-0.3-0.2-0.5-0.3-0.8-0.5l-0.4-0.3l-0.1-0.1
					C11.9,40.4,12,40.3,12,40.3L12,40.3z M25,52.1l-5,0l-5,0c-3.3,0-6.6,0-9.9,0c0-1.6,0.1-3.2,0.3-4.8c0-0.4,0.1-0.8,0.1-1.2l0-0.3
					v-0.1c0,0,0,0,0-0.1l0-0.1c0-0.2,0.1-0.4,0.2-0.6c0.3-0.7,0.7-1.4,1.2-2s1.2-1,1.9-1.4c0.7-0.3,1.5-0.6,2.3-0.8l0.1,0
					c0.1,0,0.2,0,0.2-0.1c0,0,0.1,0,0.1-0.1c0.1,0.2,0.3,0.3,0.5,0.5c0.2,0.2,0.5,0.4,0.7,0.6c0.5,0.4,1,0.8,1.6,1.1
					c0.5,0.3,1.1,0.7,1.7,1c0.3,0.1,0.6,0.3,0.9,0.4c0.3,0.1,0.6,0.2,1,0.2c1.3,0.2,2.6,0.4,3.9,0.5c0.5,0,0.8,0,1.4,0
					c0,0.3,0,0.6,0,0.9c0.1,0.6,0.2,1.3,0.2,1.9c0,0.3,0,0.6,0,1c0,0.3-0.1,0.6-0.2,0.9l-0.3,0.9c0,0.1,0,0.1-0.1,0.2
					c0,0.1,0,0.1,0,0.3v0.1c0,0,0,0,0,0l0,0c0,0,0,0,0,0c0,0,0.1,0,0.1,0.1c0.1,0,0.1,0.1,0.2,0.1c0.1,0,0.1,0.1,0.3,0.1h0.1
					c0,0,0,0,0.1,0c0,0,0,0,0-0.1c0,0,0-0.1,0-0.1c0.1-0.1,0.1-0.3,0.2-0.5c0.1-0.3,0.2-0.6,0.3-0.9c0.1-0.3,0.2-0.6,0.2-1
					c0-0.2,0-0.3-0.1-0.5c0-0.1,0-0.3-0.1-0.5c-0.1-0.6-0.3-1.3-0.4-1.9c0-0.1,0-0.3-0.1-0.5c0-0.1,0-0.3,0-0.5c0,0,0-0.1,0-0.1
					c0.6,0,1.2,0,1.8,0.2c0,0.1,0,0.2,0,0.3c0,0.1,0,0.3,0,0.5c0.1,0.6,0.2,1.3,0.3,1.9l0.1,0.9c0,0.3,0,0.6-0.1,0.9l-0.2,0.9
					c0,0.1,0,0.1,0,0.2c0,0,0,0.1,0,0.2c0,0,0,0.1,0.1,0.1c0.1,0.1,0.3,0.2,0.4,0.3c0.1,0,0.2,0.1,0.3,0c0.1,0,0.1-0.1,0.2-0.1
					c0,0,0-0.1,0-0.1c0-0.2,0-0.3,0.1-0.5c0-0.3,0-0.6,0.1-1c0-0.3,0-0.6-0.1-1c0-0.1,0-0.2-0.1-0.2L27,48.5c0-0.1-0.1-0.3-0.1-0.5
					c-0.1-0.6-0.3-1.2-0.4-1.9c0-0.2,0-0.5,0-0.8c0.1,0.1,0.3,0.1,0.5,0.1c0.1,0,0.2,0,0.2,0h0.2c0.3,0,0.6,0,0.9-0.1
					c1.2-0.1,2.5-0.4,3.7-0.7c0.3-0.1,0.6-0.2,0.9-0.3c0.3-0.1,0.6-0.2,0.9-0.4c0.5-0.3,1-0.7,1.5-1.1c0.5-0.4,0.9-0.8,1.4-1.2
					c0.2-0.2,0.4-0.4,0.6-0.7c0.1-0.1,0.2-0.2,0.3-0.4c0,0,0.1,0.1,0.1,0.1c0,0,0,0,0,0c1.2,0.3,2.5,0.7,3.5,1.4
					c1.1,0.6,1.9,1.5,2.4,2.7c0.1,0.3,0.2,0.6,0.3,0.9l0,0.1v0.1l0,0.2l0,0.5c0.1,0.6,0.1,1.3,0.2,1.9c0.1,1.2,0.1,2.3,0.1,3.5
					L35,52C31.7,52,28.4,52.1,25,52.1L25,52.1z M26.2,44.5c-0.1-0.1-0.1-0.2-0.1-0.3c0-0.1,0-0.2,0.1-0.2c0.1-0.1,0.3-0.2,0.5-0.1
					c0.2,0,0.4,0.1,0.4,0.3c0,0.1,0,0.1,0,0.2c0,0.1-0.1,0.2-0.2,0.3c0.1,0,0.2-0.1,0.3-0.2c0.1-0.1,0.1-0.3,0-0.4
					c-0.1-0.2-0.3-0.4-0.6-0.4c-0.1,0-0.2,0-0.4,0c-0.1,0-0.2,0.1-0.3,0.2c0,0.1-0.1,0.2,0,0.4C26,44.4,26.1,44.5,26.2,44.5
					L26.2,44.5z M10.3,49.6c-0.2-0.7-0.4-1.3-0.7-1.9c-0.3-0.6-0.7-1.2-1.1-1.7c-0.4-0.5-0.9-1-1.5-1.3c0.3,0.2,0.5,0.4,0.7,0.7
					c0.2,0.2,0.4,0.5,0.6,0.8c0.4,0.5,0.7,1.1,1,1.7c0.1,0.3,0.3,0.6,0.4,0.9c0.1,0.3,0.2,0.6,0.3,0.9c0.1,0.3,0.2,0.6,0.3,1
					c0.1,0.3,0.1,0.7,0.2,1c0-0.3-0.1-0.7-0.1-1C10.4,50.3,10.4,50,10.3,49.6z M41.7,46.1c-0.4,0.5-0.8,1-1.1,1.6
					c-0.3,0.6-0.5,1.2-0.7,1.8c-0.1,0.3-0.1,0.6-0.2,0.9l-0.1,1c0.1-0.3,0.2-0.6,0.3-0.9c0.1-0.3,0.2-0.6,0.3-0.9
					c0-0.1,0.1-0.3,0.2-0.4c0-0.1,0.1-0.3,0.2-0.4c0.1-0.3,0.3-0.6,0.4-0.9c0.3-0.5,0.6-1.1,1-1.6c0.2-0.2,0.4-0.5,0.6-0.7
					c0.2-0.2,0.5-0.4,0.7-0.6C42.6,45.2,42.1,45.7,41.7,46.1L41.7,46.1z"/>
			</g>
			<g id="svga-group-head" transform="matrix(1,2.856368900253737e-18,-2.856368900253737e-18,1,0,0)">
				<g id="svga-group-ears-left-move" transform="matrix(1,0,0,1,0,0)">
					<g id="svga-group-ears-left">
						<path id="SvgjsPath15214" class="st3" d="M15.5,20.6c0-0.1-0.8-1.1-1.5-1.7c-0.6-0.6-0.8-0.6-1.1-0.2
							c-0.3,0.4-0.7,2.3-0.6,3.1c0.1,0.8,0.9,2.2,1.3,2.9c0.4,0.7,0.8,1.7,1.3,1.6c0.5-0.1,1.1-1.1,1.4-1.9
							C16.6,23.6,16.4,21.6,15.5,20.6L15.5,20.6z"/>
						<path id="SvgjsPath15215" class="st10" d="M16.5,22.8c0,0.2,0,0.4,0,0.6s0,0.4,0,0.6c0,0.1,0,0.2-0.1,0.3
							c0,0.1-0.1,0.2-0.1,0.3c-0.1,0.2-0.1,0.3-0.2,0.5c-0.2,0.3-0.4,0.6-0.6,0.9c-0.1,0.1-0.3,0.2-0.4,0.3c-0.1,0-0.2,0-0.3,0
							c-0.1,0-0.2-0.1-0.3-0.2c-0.3-0.3-0.5-0.7-0.7-1.1c-0.2-0.4-0.4-0.7-0.5-1.1c-0.2-0.4-0.4-0.7-0.5-1.1
							c-0.1-0.2-0.2-0.4-0.2-0.6c-0.1-0.2-0.1-0.4-0.1-0.6c0-0.4,0-0.8,0-1.2c0-0.4,0.1-0.8,0.2-1.2c0-0.2,0.1-0.4,0.2-0.6l0.1-0.1
							c0,0,0.1-0.1,0.1-0.1c0-0.1,0.1-0.1,0.2-0.2c0.1,0,0.2-0.1,0.3-0.1c0.1,0,0.2,0.1,0.3,0.1c0.2,0.1,0.3,0.2,0.4,0.4
							c0.5,0.5,1,1.2,1.5,1.8C16,21.2,16.3,22,16.5,22.8L16.5,22.8z M13.9,18.9c-0.3-0.2-0.6-0.5-0.8-0.3c0,0-0.1,0.1-0.1,0.1
							l-0.1,0.1c0,0,0,0.1,0,0.1c-0.1,0.1-0.1,0.3-0.2,0.5c-0.1,0.3-0.2,0.7-0.3,1.1c-0.1,0.4-0.1,0.8-0.1,1.2
							c0,0.2,0.1,0.4,0.1,0.6c0.1,0.2,0.1,0.4,0.2,0.5c0.2,0.4,0.4,0.7,0.6,1c0.2,0.3,0.4,0.7,0.6,1c0.1,0.2,0.2,0.3,0.3,0.5
							c0.1,0.1,0.2,0.3,0.3,0.4c0.1,0.1,0.2,0.1,0.3,0.1c0.1,0,0.2-0.1,0.3-0.3c0.2-0.2,0.4-0.5,0.6-0.8c0.1-0.1,0.2-0.3,0.2-0.5
							c0-0.1,0.1-0.2,0.1-0.2l0-0.1c0,0,0-0.1,0-0.1c0.1-0.3,0.1-0.7,0.1-1.1c0-0.4-0.1-0.8-0.2-1.2s-0.3-0.7-0.5-1
							C15,20,14.5,19.4,13.9,18.9L13.9,18.9z"/>
						<path id="SvgjsPath15216" class="st5" d="M12.8,22.2c-0.1-0.6-0.1-1.9,0.2-2.4c0.5-0.7,1.5,1.6,1.7,2.3c0,0,0,0,0,0.1
							c0,0.1,0,0.2-0.1,0.1c-0.1,0-0.2-0.1-0.3-0.2c-0.3-0.1-0.4,0.1-0.3,0.4c0.1,0.4,0.3,0.7,0.5,1.1c0,0,0,0.1,0,0.1
							c-0.4-0.2-0.9-1.1-0.8-1.6c0.1-0.5,0.5-0.4,0.8-0.2c-0.2-0.4-0.4-0.8-0.6-1.2c-0.1-0.2-0.3-0.5-0.5-0.5
							c-0.3,0-0.2,0.1-0.3,0.4c-0.2,1.2-0.1,2.6,0.6,3.6c0,0,0,0,0,0C13.2,23.7,12.9,23,12.8,22.2L12.8,22.2z"/>
					</g>
				</g>
				<g id="svga-group-ears-right-move" transform="matrix(1,0,0,1,0,0)">
					<g id="svga-group-ears-right">
						<path id="SvgjsPath15217" class="st3" d="M34.5,20.6c0-0.1,0.8-1.1,1.5-1.7c0.6-0.6,0.8-0.6,1.1-0.2c0.3,0.4,0.7,2.3,0.6,3.1
							c-0.1,0.8-0.9,2.2-1.3,2.9c-0.4,0.7-0.8,1.7-1.3,1.6c-0.5-0.1-1.1-1.1-1.4-1.9C33.4,23.6,33.6,21.6,34.5,20.6L34.5,20.6z"/>
						<path id="SvgjsPath15218" class="st10" d="M34.5,20.6c0.5-0.6,0.9-1.2,1.5-1.8c0.1-0.1,0.3-0.3,0.4-0.4c0.1,0,0.2-0.1,0.3-0.1
							c0.1,0,0.2,0,0.3,0.1c0.1,0,0.1,0.1,0.2,0.2c0,0,0,0.1,0.1,0.1l0.1,0.1c0.1,0.2,0.1,0.4,0.2,0.6c0.1,0.4,0.2,0.8,0.2,1.2
							c0,0.4,0.1,0.8,0,1.2c0,0.2-0.1,0.4-0.1,0.6c-0.1,0.2-0.1,0.4-0.2,0.6c-0.2,0.4-0.3,0.7-0.5,1.1c-0.2,0.4-0.4,0.7-0.5,1.1
							c-0.2,0.3-0.3,0.7-0.7,1.1c-0.1,0.1-0.2,0.1-0.3,0.2c-0.1,0-0.2,0-0.3,0c-0.2-0.1-0.3-0.2-0.4-0.3c-0.2-0.3-0.4-0.6-0.6-0.9
							c-0.1-0.2-0.2-0.3-0.2-0.5c0-0.1-0.1-0.2-0.1-0.3s-0.1-0.2-0.1-0.3c0-0.2,0-0.4,0-0.6s0-0.4,0-0.6C33.7,22,34,21.2,34.5,20.6
							L34.5,20.6z M34.5,20.6c-0.2,0.3-0.4,0.7-0.5,1c-0.1,0.4-0.2,0.8-0.2,1.2c0,0.4,0,0.8,0.1,1.1c0,0,0,0.1,0,0.1l0,0.1
							c0,0.1,0.1,0.2,0.1,0.2c0.1,0.2,0.1,0.3,0.2,0.5c0.2,0.3,0.4,0.6,0.6,0.8c0.1,0.1,0.2,0.2,0.3,0.3c0.1,0,0.2,0,0.3-0.1
							c0.1-0.1,0.2-0.2,0.3-0.4c0.1-0.1,0.2-0.3,0.3-0.5c0.2-0.3,0.4-0.7,0.6-1c0.2-0.3,0.4-0.7,0.6-1c0.1-0.2,0.2-0.4,0.2-0.5
							c0.1-0.2,0.1-0.4,0.1-0.6c0-0.4,0-0.8-0.1-1.2c-0.1-0.4-0.2-0.7-0.3-1.1c0-0.2-0.1-0.3-0.2-0.5c0,0,0-0.1,0-0.1
							c0,0,0,0-0.1-0.1c0,0-0.1-0.1-0.1-0.1c-0.2-0.1-0.5,0.1-0.8,0.3C35.5,19.4,35,20,34.5,20.6z"/>
						<path id="SvgjsPath15219" class="st5" d="M37.2,22.2c0.1-0.6,0.1-1.9-0.2-2.4c-0.5-0.7-1.5,1.6-1.7,2.3c0,0,0,0,0,0.1
							c0,0.1,0,0.2,0.1,0.1c0.1,0,0.2-0.1,0.3-0.2c0.3-0.1,0.4,0.1,0.3,0.4c-0.1,0.4-0.3,0.7-0.5,1.1c0,0,0,0.1,0,0.1
							c0.4-0.2,0.9-1.1,0.8-1.6c-0.1-0.5-0.5-0.4-0.8-0.2c0.2-0.4,0.4-0.8,0.6-1.2c0.1-0.2,0.3-0.5,0.5-0.5c0.3,0,0.2,0.1,0.3,0.4
							c0.2,1.2,0.1,2.6-0.6,3.6c0,0,0,0,0,0C36.8,23.7,37.1,23,37.2,22.2L37.2,22.2z"/>
					</g>
				</g>
				<g id="svga-group-faceshape-wrap">
					<g id="svga-group-faceshape-single">
						<path id="SvgjsPath15178" class="st3" d="M35.8,17.8L35.8,17.8C35.5,10.3,30.6,6.2,25,6.2s-10.5,4.1-10.8,11.6v0.1
							c0,0.5,0,4.4,0.4,7.1c0.4,2.9,1.4,3.9,3.6,6.5s4.2,4.9,5.4,4.8c0,0,1.1-0.2,1.4-0.2c0.3,0,1.4,0.2,1.4,0.2
							c1.2,0.2,3.3-2.2,5.4-4.8s3.1-3.6,3.6-6.5C35.8,22.2,35.8,18.3,35.8,17.8z"/>
						<path id="SvgjsPath15179" class="st6" d="M26.4,36.2c1.2,0.2,3.3-2.2,5.4-4.8s3.1-3.6,3.6-6.5c0.4-2.7,0.4-6.6,0.4-7.1v-0.1
							C35.5,10.3,30.6,6.2,25,6.2s-10.5,4.1-10.8,11.6v0.1c0,0.5,0,4.4,0.4,7.1c0.4,2.9,1.4,3.9,3.6,6.5s4.2,4.9,5.4,4.8
							c0,0,1.1-0.2,1.4-0.2C25.3,36,26.4,36.2,26.4,36.2z M23.8,35.5c-0.3,0-0.5,0-0.8-0.1c-0.7-0.4-1.4-1.3-1.8-1.6
							c-0.8-0.8-1.6-1.5-2.3-2.4c-0.8-0.9-1.6-1.8-2.3-2.7c-0.7-0.9-1.2-1.9-1.4-3.1c-0.3-1.1-0.4-2.3-0.5-3.5
							c-0.1-1.2-0.2-2.4-0.2-3.6c0-2.4,0.4-4.8,1.7-6.8c1.2-2,3.1-3.5,5.3-4.3c3.3-1,5.6-0.4,6.7-0.1c2.2,0.6,4.2,2,5.5,3.9
							c1.3,1.9,2,4.3,2.1,6.7c0,2.1-0.1,4.2-0.5,6.2c-0.1,0.5-0.2,1-0.3,1.5c-0.1,0.5-0.3,1-0.5,1.4c-0.4,0.9-1,1.7-1.7,2.5
							c-0.3,0.4-2,2.4-2,2.4c-0.7,0.8-1.3,1.3-2,2.1c-0.3,0.4-1.4,1.4-1.6,1.5c-0.5,0.2-1,0.1-1,0.1C25.8,35.5,25,35.3,23.8,35.5
							L23.8,35.5z"/>
					</g>
				</g>
				<g id="svga-group-mouth-single-move" transform="matrix(1,0,0,1,0,0)">
					<g id="svga-group-mouth-single">
						<path id="SvgjsPath15468" class="st5" d="M22.4,30.1c1.8,1.1,3.9,0.9,5.4,0.2c0.1,0,0-0.2-0.1-0.1c-0.9,0.1-1.7,0.3-2.6,0.3
							C24.2,30.5,23.2,30.3,22.4,30.1C22.3,30,22.4,30.1,22.4,30.1L22.4,30.1z"/>
						<path id="SvgjsPath15469" class="st11" d="M27.2,29.9c-0.6,0.1-1.1,0.3-1.7,0.3c-0.6,0-1.1,0-1.7-0.1c-0.1,0-0.1,0.1,0,0.1
							c1.1,0.3,2.5,0.3,3.5-0.2C27.3,30,27.3,29.9,27.2,29.9L27.2,29.9z"/>
						<path id="SvgjsPath15470" class="st12" d="M24.9,28.5c-0.9,0-1.9,0.1-2.4,0.1c-0.8,0.1-1.2-0.1-1.2,0.1c0,0.1,1.4,0.3,1.8,0.4
							c0.4,0,1.2,0.4,1.8,0.5c0.6,0.1,1-0.2,1.5-0.3c0.5-0.1,1.6-0.2,2-0.2c0.5-0.1,0.9-0.3,0.1-0.3c-0.1,0-0.2,0-0.3,0
							C27.4,28.6,26,28.5,24.9,28.5z"/>
					</g>
				</g>
				<g id="svga-group-eyes-left-move" transform="matrix(1,0,0,1,0,0)">
					<g id="svga-group-eyes-left">
						<g id="svga-group-eyesback-left">
							<path id="SvgjsPath15254" class="st13" d="M22.4,21.4c0,0-0.3-0.8-0.8-1.2c-0.5-0.4-1.3-1-2.4-0.5c-1.1,0.5-1.6,1.4-1.6,1.4
								s0.2,0.7,0.5,1c0.3,0.3,1,0.7,2.1,0.5c1.1-0.1,1.6-0.5,1.8-0.7C22.2,21.8,22.4,21.4,22.4,21.4L22.4,21.4z"/>
						</g>
						<g id="svga-group-eyesiriswrapper-left" transform="matrix(1,0,0,1,0,0)">
							<g id="svga-group-eyesiriscontrol-left" transform="matrix(1,0,0,1,0,0)">
								<g id="svga-group-eyesiris-left">
									<path id="SvgjsPath15302" class="st14" d="M20,19.4c0.7,0,1.4,0.6,1.4,1.4s-0.6,1.3-1.4,1.3c-0.7,0-1.4-0.6-1.4-1.4
										S19.3,19.4,20,19.4z"/>
									<path id="SvgjsPath15303" class="st15" d="M20,19.3c-0.8,0-1.4,0.6-1.4,1.4c0,0.8,0.6,1.4,1.4,1.4c0.8,0,1.4-0.6,1.4-1.4
										S20.8,19.3,20,19.3z M21.2,21.2c-0.1-0.1-0.3-0.1-0.5-0.2c0,0,0-0.1,0-0.2c0.2,0,0.3,0,0.5,0C21.3,21,21.3,21.1,21.2,21.2
										L21.2,21.2z M21.1,21.4c-0.1-0.1-0.3-0.2-0.4-0.3c0,0,0,0,0,0L21.1,21.4C21.2,21.3,21.2,21.3,21.1,21.4L21.1,21.4z
										 M21.2,20.1c-0.1,0-0.3,0.1-0.4,0.2c0,0,0,0,0,0c0,0,0.1-0.1,0.2-0.1c0.1,0,0.1-0.1,0.2-0.2C21.1,20,21.1,20,21.2,20.1
										L21.2,20.1z M21.2,20.3c-0.2,0-0.3,0.1-0.5,0.1c0,0,0,0,0-0.1c0.1,0,0.1-0.1,0.2-0.1c0.1,0,0.2,0,0.2-0.1
										C21.2,20.2,21.2,20.3,21.2,20.3L21.2,20.3z M20.8,20.7c0-0.1,0-0.1,0-0.2c0.2,0,0.3-0.1,0.5-0.1c0,0.1,0,0.2,0,0.3
										C21.2,20.7,21,20.7,20.8,20.7z M21,19.9c-0.1,0-0.1,0.1-0.2,0.2c0,0-0.1,0.1-0.2,0.1l-0.1-0.1c0.1-0.1,0.2-0.3,0.3-0.4
										C20.9,19.8,21,19.8,21,19.9z M20.1,21.5c0,0,0.1,0,0.2,0c0,0.1,0.1,0.2,0.1,0.2c0,0.1,0,0.1,0.1,0.2
										c-0.1,0-0.2,0.1-0.3,0.1C20.1,21.8,20.1,21.7,20.1,21.5L20.1,21.5z M20.5,19.5c0.1,0,0.2,0.1,0.3,0.2
										c-0.1,0.1-0.2,0.3-0.3,0.4c0,0,0,0-0.1,0C20.4,19.9,20.5,19.7,20.5,19.5z M20.1,19.4c0.1,0,0.2,0,0.3,0c0,0.1,0,0.2,0,0.4
										c0,0,0,0.1,0,0.1c0,0-0.1,0-0.1,0C20.1,19.8,20.1,19.6,20.1,19.4L20.1,19.4z M20.5,21.7c0-0.1-0.1-0.2-0.1-0.2c0,0,0,0,0,0
										C20.4,21.5,20.5,21.6,20.5,21.7c0.1,0,0.1,0.1,0.2,0.2c0,0,0,0-0.1,0C20.6,21.8,20.5,21.8,20.5,21.7L20.5,21.7z M20.6,21.6
										c0-0.1-0.1-0.1-0.1-0.2c0,0,0,0,0.1,0c0.1,0.1,0.2,0.3,0.3,0.4c0,0-0.1,0-0.1,0.1C20.7,21.7,20.6,21.7,20.6,21.6z
										 M20.1,19.4c0,0.1,0,0.3,0,0.5h-0.1c0,0,0-0.1,0-0.1c0-0.1,0-0.2,0-0.3C19.9,19.4,20,19.4,20.1,19.4
										C20,19.4,20,19.4,20.1,19.4z M19.4,19.6c0.1,0.1,0.2,0.3,0.3,0.4c0,0,0,0,0,0c0,0,0-0.1-0.1-0.1c-0.1-0.1-0.1-0.2-0.2-0.3
										C19.3,19.7,19.3,19.6,19.4,19.6L19.4,19.6z M19.9,19.9C19.8,19.9,19.8,19.9,19.9,19.9c-0.1-0.1-0.1-0.3-0.2-0.4
										c0,0,0.1,0,0.2,0C19.8,19.6,19.8,19.8,19.9,19.9z M19.7,20C19.7,20,19.7,20,19.7,20c-0.1-0.1-0.2-0.3-0.3-0.4
										c0,0,0.1,0,0.2-0.1C19.6,19.7,19.7,19.8,19.7,20z M19.6,21.4C19.6,21.4,19.6,21.4,19.6,21.4c0,0.1,0,0.1,0,0.1
										c0,0.1-0.1,0.2-0.1,0.3l-0.1-0.1c0.1-0.1,0.1-0.2,0.2-0.2C19.5,21.5,19.6,21.4,19.6,21.4L19.6,21.4z M19.7,21.6
										C19.7,21.5,19.7,21.5,19.7,21.6L19.7,21.6c0,0,0,0.2-0.1,0.4c0,0-0.1,0-0.1,0C19.6,21.8,19.6,21.7,19.7,21.6z M19.9,21.5
										C19.9,21.5,19.9,21.5,19.9,21.5c0,0.2,0,0.3,0,0.5c0,0-0.1,0-0.2,0C19.8,21.8,19.8,21.6,19.9,21.5z M19.2,19.7
										c0,0.1,0.1,0.2,0.2,0.2c0,0,0.1,0.1,0.1,0.1c0,0-0.1,0-0.1,0.1C19.3,20.1,19.1,20,19,20C19.1,19.9,19.1,19.8,19.2,19.7
										L19.2,19.7z M18.9,21.4l0.4-0.2c0,0,0,0,0,0c0,0,0,0.1,0.1,0.1c-0.1,0.1-0.2,0.2-0.3,0.3C19,21.5,19,21.4,18.9,21.4z
										 M18.8,21.1c0.1,0,0.2-0.1,0.3-0.1c0,0,0.1,0,0.2-0.1c0,0,0,0.1,0,0.1c0,0,0,0-0.1,0c-0.1,0.1-0.2,0.1-0.3,0.2
										C18.8,21.2,18.8,21.2,18.8,21.1L18.8,21.1z M18.7,20.7c0,0,0-0.1,0-0.1c0.1,0,0.3,0.1,0.5,0.1v0.1c-0.1,0-0.1,0-0.2,0.1
										c-0.1,0-0.2,0-0.2,0.1C18.7,20.9,18.7,20.8,18.7,20.7L18.7,20.7z M18.8,20.3c0.1,0,0.2,0.1,0.3,0.1c0,0,0.1,0,0.1,0
										c0,0,0,0,0,0.1c0,0-0.1,0-0.1,0c-0.1,0-0.2,0-0.4,0L18.8,20.3L18.8,20.3z M19,20c0.1,0.1,0.2,0.2,0.4,0.3
										c0,0,0,0.1-0.1,0.1c0,0,0,0-0.1,0c-0.1,0-0.3-0.1-0.4-0.1C18.9,20.1,18.9,20.1,19,20L19,20z M19.1,21.6
										c0.1-0.1,0.3-0.2,0.4-0.3l0.1,0.1c0,0-0.1,0.1-0.1,0.1c-0.1,0.1-0.1,0.2-0.2,0.2C19.2,21.7,19.1,21.7,19.1,21.6z M20,22
										c0-0.2,0-0.3,0-0.5h0C20,21.7,20,21.9,20,22L20,22L20,22z M20.9,21.7c-0.1-0.1-0.2-0.2-0.3-0.4c0,0,0.1-0.1,0.1-0.1
										c0.1,0.1,0.3,0.2,0.4,0.3C21,21.5,21,21.6,20.9,21.7L20.9,21.7z"/>
									<path id="SvgjsPath15304" d="M20,20c0.4,0,0.7,0.3,0.7,0.7s-0.3,0.7-0.7,0.7s-0.7-0.3-0.7-0.7S19.6,20,20,20z"/>
									<path id="SvgjsPath15305" class="st13" d="M19.6,20.1c0.1,0,0.3,0.1,0.3,0.3c0,0.1-0.1,0.3-0.3,0.3c-0.1,0-0.3-0.1-0.3-0.3
										C19.3,20.2,19.5,20.1,19.6,20.1z M20.5,21.1c0.1,0,0.1,0.1,0.1,0.1c0,0.1-0.1,0.1-0.1,0.1c-0.1,0-0.1-0.1-0.1-0.1
										C20.4,21.2,20.4,21.1,20.5,21.1z"/>
								</g>
							</g>
						</g>
						<g id="svga-group-eyesfront-left">
							<path id="SvgjsPath15262" class="st3" d="M17.4,21c0,1.6,1.2,2.9,2.6,2.9c1.5,0,2.6-1.3,2.6-2.9c0-1.6-1.2-2.9-2.6-2.9
								C18.5,18.1,17.4,19.4,17.4,21z M18.1,22.1c-0.3-0.3-0.5-1-0.5-1s0.5-0.9,1.6-1.4c1.1-0.5,1.9,0.1,2.4,0.5
								c0.5,0.4,0.8,1.2,0.8,1.2S22.2,21.8,22,22c-0.2,0.1-0.7,0.5-1.8,0.7C19.1,22.8,18.4,22.4,18.1,22.1z"/>
							<path id="SvgjsPath15263" class="st10" d="M22.6,21.7c-0.3-1.3-1-2.6-2.4-2.8c-1.5-0.2-2.2,1.1-2.7,2.3c0,0-0.1,0-0.1,0
								c0.2-1.3,1.4-2.6,2.8-2.4C21.7,18.9,22.4,20.3,22.6,21.7C22.7,21.7,22.6,21.7,22.6,21.7L22.6,21.7z"/>
							<path id="SvgjsPath15264" d="M22.6,21.9c-0.5-1.2-1.3-2.3-2.7-2.2c-1.4,0.1-2,1.3-2.7,2.3c0,0.1-0.2,0-0.2-0.1
								c0.4-1.2,1.6-2.5,3-2.5C21.3,19.4,22.5,20.6,22.6,21.9C22.7,21.9,22.6,22,22.6,21.9z"/>
							<path id="SvgjsPath15265" d="M22.4,21.5c-0.3,1-2,1.3-2.9,1.2c-0.9,0-2-0.7-2-1.7c0-0.1,0.1-0.1,0.1,0c0.2,1,1,1.5,2.1,1.5
								C20.6,22.5,21.8,22.3,22.4,21.5C22.3,21.4,22.4,21.5,22.4,21.5L22.4,21.5z"/>
						</g>
					</g>
				</g>
				<g id="svga-group-eyes-right-move" transform="matrix(1,0,0,1,0,0)">
					<g id="svga-group-eyes-right">
						<g id="svga-group-eyesback-right">
							<path id="SvgjsPath15255" class="st13" d="M27.6,21.4c0,0,0.3-0.8,0.8-1.2c0.5-0.4,1.3-1,2.4-0.5c1.1,0.5,1.6,1.4,1.6,1.4
								s-0.2,0.7-0.5,1c-0.3,0.3-1,0.7-2.1,0.5c-1.1-0.1-1.6-0.5-1.8-0.7C27.8,21.8,27.6,21.4,27.6,21.4L27.6,21.4z"/>
						</g>
						<g id="svga-group-eyesiriswrapper-right" transform="matrix(1,0,0,1,0,0)">
							<g id="svga-group-eyesiriscontrol-right" transform="matrix(1,0,0,1,0,0)">
								<g id="svga-group-eyesiris-right">
									<path id="SvgjsPath15306" class="st14" d="M30,19.4c0.7,0,1.4,0.6,1.4,1.4s-0.6,1.3-1.4,1.3c-0.8,0-1.4-0.6-1.4-1.4
										S29.2,19.4,30,19.4z"/>
									<path id="SvgjsPath15307" class="st15" d="M30,19.3c-0.8,0-1.4,0.6-1.4,1.4c0,0.8,0.6,1.4,1.4,1.4c0.8,0,1.4-0.6,1.4-1.4
										C31.4,19.9,30.8,19.3,30,19.3z M31.2,21.2c-0.1-0.1-0.3-0.1-0.5-0.2c0,0,0-0.1,0-0.2c0.2,0,0.3,0,0.5,0
										C31.3,21,31.2,21.1,31.2,21.2L31.2,21.2z M31.1,21.4c-0.1-0.1-0.3-0.2-0.4-0.3c0,0,0,0,0,0L31.1,21.4
										C31.2,21.3,31.1,21.3,31.1,21.4L31.1,21.4z M31.1,20.1c-0.1,0-0.3,0.1-0.4,0.2c0,0,0,0,0,0c0,0,0.1-0.1,0.2-0.1
										c0.1,0,0.1-0.1,0.2-0.2C31.1,20,31.1,20,31.1,20.1L31.1,20.1z M31.2,20.3c-0.2,0-0.3,0.1-0.5,0.1c0,0,0,0,0-0.1
										c0.1,0,0.1-0.1,0.2-0.1c0.1,0,0.2,0,0.2-0.1C31.2,20.2,31.2,20.3,31.2,20.3L31.2,20.3z M30.8,20.7c0-0.1,0-0.1,0-0.2
										c0.2,0,0.3-0.1,0.5-0.1c0,0.1,0,0.2,0,0.3C31.1,20.7,31,20.7,30.8,20.7z M31,19.9c-0.1,0-0.1,0.1-0.2,0.2
										c0,0-0.1,0.1-0.2,0.1l-0.1-0.1c0.1-0.1,0.2-0.3,0.3-0.4C30.9,19.8,30.9,19.8,31,19.9z M30.1,21.5c0,0,0.1,0,0.2,0
										c0,0.1,0.1,0.2,0.1,0.2c0,0.1,0,0.1,0.1,0.2c-0.1,0-0.2,0.1-0.3,0.1C30.1,21.8,30.1,21.7,30.1,21.5L30.1,21.5z M30.4,19.5
										c0.1,0,0.2,0.1,0.3,0.2c-0.1,0.1-0.2,0.3-0.3,0.4c0,0,0,0-0.1,0C30.4,19.9,30.4,19.7,30.4,19.5z M30.1,19.4
										c0.1,0,0.2,0,0.3,0c0,0.1,0,0.2,0,0.4c0,0,0,0.1,0,0.1c0,0-0.1,0-0.1,0C30.1,19.8,30.1,19.6,30.1,19.4L30.1,19.4z
										 M30.5,21.7c0-0.1-0.1-0.2-0.1-0.2c0,0,0,0,0,0C30.4,21.5,30.5,21.6,30.5,21.7c0.1,0,0.1,0.1,0.2,0.2c0,0,0,0-0.1,0
										C30.5,21.8,30.5,21.8,30.5,21.7L30.5,21.7z M30.6,21.6c0-0.1-0.1-0.1-0.1-0.2c0,0,0,0,0.1,0c0.1,0.1,0.2,0.3,0.3,0.4
										c0,0-0.1,0-0.1,0.1C30.7,21.7,30.6,21.7,30.6,21.6z M30,19.4c0,0.1,0,0.3,0,0.5h-0.1c0,0,0-0.1,0-0.1c0-0.1,0-0.2,0-0.3
										C29.9,19.4,29.9,19.4,30,19.4C30,19.4,30,19.4,30,19.4z M29.3,19.6c0.1,0.1,0.2,0.3,0.3,0.4c0,0,0,0,0,0c0,0,0-0.1-0.1-0.1
										c-0.1-0.1-0.1-0.2-0.2-0.3C29.3,19.7,29.3,19.6,29.3,19.6L29.3,19.6z M29.8,19.9C29.8,19.9,29.8,19.9,29.8,19.9
										c-0.1-0.1-0.1-0.3-0.2-0.4c0,0,0.1,0,0.2,0C29.8,19.6,29.8,19.8,29.8,19.9z M29.7,20C29.7,20,29.7,20,29.7,20
										c-0.1-0.1-0.2-0.3-0.3-0.4c0,0,0.1,0,0.2-0.1C29.6,19.7,29.6,19.8,29.7,20z M29.6,21.4C29.6,21.4,29.6,21.4,29.6,21.4
										c0,0.1,0,0.1,0,0.1c0,0.1-0.1,0.2-0.1,0.3l-0.1-0.1c0.1-0.1,0.1-0.2,0.2-0.2C29.5,21.5,29.6,21.4,29.6,21.4L29.6,21.4z
										 M29.7,21.6C29.7,21.5,29.7,21.5,29.7,21.6L29.7,21.6c0,0,0,0.2-0.1,0.4c0,0-0.1,0-0.1,0C29.6,21.8,29.6,21.7,29.7,21.6z
										 M29.8,21.5C29.9,21.5,29.9,21.5,29.8,21.5c0,0.2,0,0.3,0,0.5c0,0-0.1,0-0.2,0C29.7,21.8,29.8,21.6,29.8,21.5z M29.2,19.7
										c0,0.1,0.1,0.2,0.2,0.2c0,0,0.1,0.1,0.1,0.1c0,0-0.1,0-0.1,0.1c-0.1-0.1-0.3-0.2-0.4-0.3C29,19.9,29.1,19.8,29.2,19.7
										L29.2,19.7z M28.9,21.4l0.4-0.2c0,0,0,0,0,0c0,0,0,0.1,0.1,0.1c-0.1,0.1-0.2,0.2-0.3,0.3C29,21.5,28.9,21.4,28.9,21.4z
										 M28.8,21.1c0.1,0,0.2-0.1,0.3-0.1c0,0,0.1,0,0.2-0.1c0,0,0,0.1,0,0.1c0,0,0,0-0.1,0c-0.1,0.1-0.2,0.1-0.3,0.2
										C28.8,21.2,28.8,21.2,28.8,21.1L28.8,21.1z M28.7,20.7c0,0,0-0.1,0-0.1c0.1,0,0.3,0.1,0.5,0.1v0.1c-0.1,0-0.1,0-0.2,0.1
										c-0.1,0-0.2,0-0.2,0.1C28.7,20.9,28.7,20.8,28.7,20.7L28.7,20.7z M28.8,20.3c0.1,0,0.2,0.1,0.3,0.1c0,0,0.1,0,0.1,0
										c0,0,0,0,0,0.1c0,0-0.1,0-0.1,0c-0.1,0-0.2,0-0.4,0C28.7,20.5,28.7,20.4,28.8,20.3L28.8,20.3z M28.9,20
										c0.1,0.1,0.2,0.2,0.4,0.3c0,0,0,0.1-0.1,0.1c0,0,0,0-0.1,0c-0.1,0-0.3-0.1-0.4-0.1C28.8,20.1,28.9,20.1,28.9,20L28.9,20z
										 M29.1,21.6c0.1-0.1,0.3-0.2,0.4-0.3l0.1,0.1c0,0-0.1,0.1-0.1,0.1c-0.1,0.1-0.1,0.2-0.2,0.2C29.2,21.7,29.1,21.7,29.1,21.6
										z M29.9,22c0-0.2,0-0.3,0-0.5h0C30,21.7,30,21.9,29.9,22L29.9,22L29.9,22z M30.9,21.7c-0.1-0.1-0.2-0.2-0.3-0.4
										c0,0,0.1-0.1,0.1-0.1c0.1,0.1,0.3,0.2,0.4,0.3C31,21.5,30.9,21.6,30.9,21.7L30.9,21.7z"/>
									<path id="SvgjsPath15308" d="M30,20c0.4,0,0.7,0.3,0.7,0.7s-0.3,0.7-0.7,0.7c-0.4,0-0.7-0.3-0.7-0.7S29.6,20,30,20z"/>
									<path id="SvgjsPath15309" class="st13" d="M29.6,20.1c0.1,0,0.3,0.1,0.3,0.3c0,0.1-0.1,0.3-0.3,0.3c-0.1,0-0.3-0.1-0.3-0.3
										C29.3,20.2,29.4,20.1,29.6,20.1z M30.5,21.1c0.1,0,0.1,0.1,0.1,0.1c0,0.1-0.1,0.1-0.1,0.1c-0.1,0-0.1-0.1-0.1-0.1
										C30.3,21.2,30.4,21.1,30.5,21.1z"/>
								</g>
							</g>
						</g>
						<g id="svga-group-eyesfront-right">
							<path id="SvgjsPath15266" class="st3" d="M30,18.1c-1.5,0-2.6,1.3-2.6,2.9c0,1.6,1.2,2.9,2.6,2.9c1.5,0,2.6-1.3,2.6-2.9
								C32.7,19.4,31.5,18.1,30,18.1L30,18.1z M29.8,22.6c-1.1-0.1-1.6-0.5-1.8-0.7c-0.2-0.1-0.4-0.6-0.4-0.6s0.3-0.8,0.8-1.2
								c0.5-0.4,1.3-1,2.4-0.5c1.1,0.5,1.6,1.4,1.6,1.4s-0.2,0.7-0.5,1C31.6,22.4,31,22.8,29.8,22.6z"/>
							<path id="SvgjsPath15269" class="st10" d="M27.4,21.7c0.3-1.3,1-2.6,2.4-2.8c1.5-0.2,2.2,1.1,2.7,2.3c0,0,0.1,0,0.1,0
								c-0.2-1.3-1.4-2.6-2.8-2.4C28.4,18.9,27.6,20.3,27.4,21.7C27.3,21.7,27.4,21.7,27.4,21.7L27.4,21.7z"/>
							<path id="SvgjsPath15270" d="M27.4,21.9c0.5-1.2,1.3-2.3,2.7-2.2c1.4,0.1,2,1.3,2.7,2.3c0,0.1,0.2,0,0.2-0.1
								c-0.4-1.2-1.6-2.5-3-2.5C28.7,19.4,27.5,20.6,27.4,21.9C27.3,21.9,27.4,22,27.4,21.9L27.4,21.9z"/>
							<path id="SvgjsPath15271" d="M27.6,21.5c0.3,1,2,1.3,2.9,1.2c0.9,0,2-0.7,2-1.7c0-0.1-0.1-0.1-0.1,0c-0.2,1-1,1.5-2.1,1.5
								C29.4,22.5,28.2,22.3,27.6,21.5C27.7,21.4,27.6,21.5,27.6,21.5L27.6,21.5z"/>
						</g>
					</g>
				</g>
				<g id="svga-group-eyebrows-left-move" transform="matrix(1,0,0,1,0,0)">
					<g id="svga-group-eyebrows-left-rotate" transform="matrix(1,0,0,1,0,0)">
						<g id="svga-group-eyebrows-left">
							<path id="SvgjsPath15444" class="st16" d="M16.5,18.6c0.1-0.3,0.4-0.5,0.6-0.8c0.2-0.2,0.4-0.5,0.6-0.7
								c0.1-0.2,0.3-0.4,0.5-0.5l0,0c0,0,0-0.1,0.1-0.1c0.1-0.1,0.2-0.2,0.3-0.3h0l0,0c0,0,0,0,0,0c0,0,0,0,0.1,0c0,0,0,0,0.1,0h0
								c0.1,0,0.1,0,0.1,0.1h0c0.1,0,0.2,0.1,0.3,0.1c0.1,0,0.1,0.1,0.1,0.1l0.4,0.1c0.1,0,0.2,0.1,0.3,0.1c0.1,0.1,0.3,0.1,0.4,0.2
								c0,0,0.1,0,0.1,0.1c0,0,0,0,0,0c0,0,0,0,0,0c0,0,0,0,0.1,0c0.3,0.1,0.6,0.2,0.9,0.4c0,0,0,0,0.1,0.1s0,0,0.1,0
								c0.1,0,0.1,0,0.2,0.1c0.2,0.1,0.5,0.2,0.7,0.3c0,0,0,0,0,0.1c0,0,0.1,0,0.1,0.1c0.1,0,0,0.2-0.1,0.2c0,0,0,0-0.1,0
								c0,0.1-0.1,0.3-0.2,0.4v0c0,0,0,0.1,0,0.1c0,0.1-0.1,0.2-0.2,0.1l-0.9-0.6c-0.3-0.2-0.6-0.4-0.9-0.6c-0.3-0.2-0.7-0.4-1-0.6
								c-0.2-0.1-0.4-0.2-0.5-0.3c0,0-0.1,0.1-0.2,0.1c-0.1,0.1-0.3,0.2-0.4,0.3c-0.2,0.1-0.4,0.3-0.6,0.4c-0.1,0.1-0.2,0.2-0.3,0.3
								c-0.1,0.1-0.3,0.3-0.4,0.4c0,0-0.1,0.1-0.1,0.1c-0.1,0.1-0.2,0.2-0.4,0.3C16.6,18.7,16.5,18.6,16.5,18.6L16.5,18.6z"/>
							<path id="SvgjsPath15445" class="st17" d="M22.4,18.9C22.4,18.9,22.4,18.9,22.4,18.9c0-0.1,0-0.1,0-0.1
								c0-0.2,0.1-0.3,0.1-0.5c0-0.2,0-0.4-0.1-0.6c0,0,0-0.1,0.1-0.1c0.3,0.2,0.2,0.7,0.1,1.1c0,0,0.1-0.1,0.1-0.1
								c0.1-0.1,0.2-0.3,0.2-0.5c0-0.1,0.1,0,0.1,0c0,0.2-0.1,0.3-0.2,0.5c-0.1,0.1-0.2,0.3-0.4,0.4C22.4,19,22.4,19,22.4,18.9
								L22.4,18.9z M19.1,16c0.6,0.4,1,1,1.6,1.4c0.3,0.2,0.6,0.4,0.9,0.6c-0.1-0.2-0.3-0.4-0.5-0.6c-0.3-0.3-0.6-0.6-0.9-0.9
								c0,0,0-0.2,0.1-0.1c0.7,0.3,1.3,1.1,1.6,1.8l0.3,0.2c-0.1-0.2-0.2-0.4-0.3-0.6c-0.1-0.2-0.3-0.4-0.4-0.6c0,0,0-0.1,0.1-0.1
								c0.5,0.3,0.7,0.9,0.8,1.5l0,0c0,0,0,0.1,0,0.1c0,0-0.1,0-0.1,0c0,0,0,0,0,0c-0.6-0.3-1.1-0.7-1.7-1.1
								c-0.5-0.4-1.2-0.9-1.5-1.5C18.9,16,19,16,19.1,16L19.1,16z M18,16.8c0.1-0.1,0.3-0.1,0.4-0.1c0.2,0,0.4,0,0.5,0
								c0,0,0,0.1,0,0.1c-0.2,0-0.3,0-0.5,0C18.3,16.8,18.2,16.9,18,16.8C18,16.9,18,16.9,18,16.8z M17.5,17.5
								c0.2-0.1,0.4-0.2,0.6-0.3c0.2-0.1,0.5-0.2,0.8-0.3c0,0,0.1,0,0,0.1c-0.2,0.1-0.5,0.2-0.7,0.3C18,17.4,17.8,17.5,17.5,17.5
								C17.4,17.6,17.4,17.5,17.5,17.5L17.5,17.5z"/>
							<path id="SvgjsPath15446" class="st18" d="M19,16.9c0.5,0.4,1.1,0.7,1.7,1.1c0.6,0.4,1.2,0.7,1.8,1.1v0c0,0,0,0.1,0.1,0.1
								c0,0,0,0,0.1,0c0.2-0.1,0.4-0.3,0.5-0.5c0.1-0.2,0.3-0.4,0.3-0.6c0-0.1-0.1-0.1-0.1,0c-0.1,0.1-0.1,0.2-0.2,0.3
								c0-0.2,0.1-0.4,0.1-0.6c0,0,0,0,0,0c0,0-0.1-0.1-0.1,0c0,0-0.1,0.1-0.1,0.1c-1.3-0.7-2.7-1.3-4-1.9h-0.1
								c-0.5,0.5-1,1-1.5,1.5c-0.5,0.5-1,1-1.3,1.6v0c0,0,0,0.1-0.1,0.1c0,0,0,0.1,0,0.1c0.5-0.2,1-0.7,1.5-1.1
								C18,17.7,18.5,17.3,19,16.9z M19,16.8c-0.5,0.3-1.1,0.8-1.6,1.2c-0.2,0.1-0.4,0.3-0.6,0.4c0.2-0.3,0.4-0.6,0.7-0.8
								c0.5-0.5,0.9-1,1.4-1.5c1.3,0.6,2.6,1.3,4,1.9c0,0.1-0.1,0.1-0.1,0.2c0,0,0,0.1,0.1,0.1c0.1,0,0.1,0,0.2-0.1
								c0,0.1-0.1,0.2-0.1,0.3c-0.1,0.2-0.2,0.3-0.3,0.5c-0.6-0.4-1.1-0.8-1.7-1.1C20.2,17.5,19.7,17,19,16.8
								C19,16.7,19,16.7,19,16.8L19,16.8z"/>
						</g>
					</g>
				</g>
				<g id="svga-group-eyebrows-right-move" transform="matrix(1,0,0,1,0,0)">
					<g id="svga-group-eyebrows-right-rotate" transform="matrix(1,0,0,1,0,0)">
						<g id="svga-group-eyebrows-right">
							<path id="SvgjsPath15447" class="st16" d="M33.5,18.6c-0.1-0.3-0.4-0.5-0.6-0.8c-0.2-0.2-0.4-0.5-0.6-0.7
								c-0.1-0.2-0.3-0.4-0.5-0.5l0,0c0,0,0-0.1-0.1-0.1c-0.1-0.1-0.2-0.2-0.3-0.3c0,0,0,0,0,0l0,0c0,0,0,0,0,0c0,0,0,0-0.1,0
								c0,0,0,0-0.1,0h0c-0.1,0-0.1,0-0.1,0.1h0c-0.1,0-0.2,0.1-0.3,0.1c-0.1,0-0.1,0.1-0.1,0.1l-0.4,0.1c-0.1,0-0.2,0.1-0.3,0.1
								c-0.1,0.1-0.3,0.1-0.4,0.2c0,0-0.1,0-0.1,0.1c0,0,0,0,0,0c0,0,0,0,0,0c0,0,0,0-0.1,0c-0.3,0.1-0.6,0.2-0.9,0.4
								c0,0,0,0-0.1,0.1c0,0,0,0-0.1,0c-0.1,0-0.1,0-0.2,0.1c-0.2,0.1-0.5,0.2-0.7,0.3c0,0,0,0,0,0.1c0,0-0.1,0-0.1,0.1
								c-0.1,0,0,0.2,0.1,0.2c0,0,0,0,0.1,0c0,0.1,0.1,0.3,0.2,0.4v0c0,0,0,0.1,0,0.1c0,0.1,0.1,0.2,0.2,0.1l0.9-0.6
								c0.3-0.2,0.6-0.4,0.9-0.6c0.3-0.2,0.7-0.4,1-0.6c0.2-0.1,0.4-0.2,0.5-0.3c0,0,0.1,0.1,0.2,0.1c0.1,0.1,0.3,0.2,0.4,0.3
								c0.2,0.1,0.4,0.3,0.6,0.4c0.1,0.1,0.1,0.2,0.3,0.3c0.1,0.1,0.3,0.3,0.4,0.4c0,0,0.1,0.1,0.1,0.1c0.1,0.1,0.2,0.2,0.4,0.3
								C33.5,18.7,33.5,18.6,33.5,18.6L33.5,18.6z"/>
							<path id="SvgjsPath15448" class="st17" d="M27.6,18.9C27.6,18.9,27.6,18.9,27.6,18.9c0-0.1,0-0.1,0-0.1
								c0-0.2-0.1-0.3-0.1-0.5c0-0.2,0-0.4,0.1-0.6c0,0,0-0.1-0.1-0.1c-0.3,0.2-0.2,0.7-0.1,1.1c0,0-0.1-0.1-0.1-0.1
								c-0.1-0.1-0.2-0.3-0.2-0.5c0-0.1-0.1,0-0.1,0c0,0.2,0.1,0.3,0.2,0.5c0.1,0.1,0.2,0.3,0.4,0.4C27.6,19,27.7,19,27.6,18.9
								L27.6,18.9z M31,16c-0.6,0.4-1,1-1.6,1.4c-0.3,0.2-0.6,0.4-0.9,0.7c0.1-0.2,0.3-0.4,0.5-0.6c0.3-0.3,0.6-0.6,0.9-0.9
								c0,0,0-0.2-0.1-0.1c-0.7,0.3-1.3,1.1-1.6,1.8l-0.3,0.2c0.1-0.2,0.1-0.4,0.3-0.6c0.1-0.2,0.3-0.4,0.4-0.6c0,0,0-0.1-0.1-0.1
								c-0.5,0.3-0.7,0.9-0.8,1.5l0,0c0,0,0,0.1,0,0.1c0,0,0.1,0,0.1,0c0,0,0,0,0,0c0.6-0.3,1.1-0.7,1.7-1.1
								c0.5-0.4,1.2-0.9,1.5-1.5C31.1,16,31,16,31,16L31,16z M32,16.8c-0.1-0.1-0.3-0.1-0.4-0.1c-0.2,0-0.4,0-0.5,0c0,0,0,0.1,0,0.1
								c0.2,0,0.3,0,0.5,0C31.7,16.8,31.8,16.9,32,16.8C32,16.9,32,16.9,32,16.8z M32.6,17.5c-0.2-0.1-0.4-0.2-0.6-0.3
								c-0.2-0.1-0.5-0.2-0.8-0.3c0,0-0.1,0,0,0.1c0.2,0.1,0.5,0.2,0.7,0.3C32,17.4,32.3,17.5,32.6,17.5
								C32.6,17.6,32.6,17.5,32.6,17.5L32.6,17.5z"/>
							<path id="SvgjsPath15449" class="st18" d="M32.5,18.1c0.5,0.4,0.9,0.8,1.5,1.1c0,0,0.1,0,0-0.1c0,0,0-0.1-0.1-0.1v0
								c-0.3-0.6-0.9-1.1-1.3-1.6c-0.5-0.5-0.9-1-1.5-1.5c0,0,0,0,0,0h0c-1.3,0.6-2.7,1.2-4,1.9c0,0-0.1-0.1-0.1-0.1
								c0,0-0.1,0-0.1,0c0,0,0,0,0,0c0,0.2,0,0.4,0.1,0.6c-0.1-0.1-0.1-0.2-0.2-0.3c0,0-0.1,0-0.1,0c0.1,0.2,0.2,0.4,0.3,0.6
								c0.1,0.2,0.3,0.4,0.5,0.5c0,0,0,0,0.1,0c0,0,0.1,0,0.1-0.1v0c0.6-0.3,1.2-0.7,1.8-1.1c0.5-0.3,1.1-0.7,1.7-1.1
								C31.5,17.3,32,17.7,32.5,18.1L32.5,18.1z M30.9,16.7c-0.6,0.3-1.1,0.7-1.7,1.1c-0.6,0.4-1.2,0.7-1.7,1.1
								c-0.1-0.2-0.2-0.3-0.3-0.5c0-0.1-0.1-0.2-0.1-0.3c0,0,0.1,0.1,0.2,0.1c0,0,0.1,0,0.1-0.1c0-0.1-0.1-0.1-0.1-0.2
								c1.3-0.5,2.7-1.3,4-1.9c0.4,0.5,0.9,1,1.4,1.5c0.2,0.3,0.5,0.5,0.7,0.8c-0.2-0.1-0.4-0.3-0.6-0.4
								C32.1,17.6,31.6,17.2,30.9,16.7C31,16.7,31,16.7,30.9,16.7z"/>
						</g>
					</g>
				</g>
				<g id="svga-group-beardwrap">
					<g id="svga-group-beard-single-move" transform="matrix(1,0,0,1,0,1)">
						
							<g id="svga-group-beard-single" transform="matrix(0.8499994000000002,0,0,0.8499994000000002,14.91270575348966,20.651389711246466)">
							<path id="SvgjsPath15512" class="st16" d="M18.6,7.9l0.1,0.1c0,0-0.1-1-1.1-1.6s-2.5-0.2-3.3,0c-0.8,0.2-1.6,0.7-2.3,0.7
								c-2,0-3-1.2-5.6-0.8s-1.7,5.1-0.8,6.8l0.1-0.2c0,0,0.8,2.1,1.9,3l0-0.2c0,0,1.3,1.5,3.5,2.1s3.7-0.8,3.7-0.8v0.2
								c0,0,1.8-1.2,2.3-2.3c0,0,1-1.5,1.4-3.3C19,9.8,18.6,7.9,18.6,7.9L18.6,7.9z M16.3,11.7c-0.8,1.8-2,2-2.7,1.8
								c-0.7-0.2-0.4-1.3-0.4-1.3c-0.7,0.1-2.4,0-2.4,0s0.6,1.4-1.2,1.3c-1.9-0.1-3.2-3.1-3.4-3.9c-0.1-0.8,0-2.1,1.1-2.4
								s3.4,0.6,4.5,0.6c1.9-0.1,3.2-0.8,4.4-0.6C17.4,7.3,17.1,9.9,16.3,11.7L16.3,11.7z"/>
							<path id="SvgjsPath15513" class="st18" d="M6.8,11.4c-0.5-1.3-1.1-3,0.4-3.9c1.1-0.6,2.3,0,3.4,0.2C12.6,8.1,14.2,7,16,7
								c0,0,0-0.1,0-0.1c-1.4-0.2-2.7,0.6-4.2,0.6c-1.3,0-2.6-0.8-3.9-0.6c-2.3,0.3-2.2,2.9-1.3,4.5C6.7,11.5,6.8,11.5,6.8,11.4
								L6.8,11.4z M5.4,7C5.4,6.9,5.4,6.9,5.4,7c-1.2,1.8-0.9,4.2,0,6c0,0.1,0.2,0,0.1-0.1C4.9,10.9,4.4,9,5.4,7z M5.5,12.1
								C5.5,12.1,5.4,12.1,5.5,12.1c0.2,1.4,0.9,3,2,4c0,0,0.1,0,0.1-0.1C6.8,14.8,6,13.7,5.5,12.1z M12,17.9c-1.2,0-2-0.7-2.8-1.5
								c0,0-0.1,0-0.1,0.1c0.2,0.3,0.5,0.7,0.9,1c-0.5-0.3-1-0.6-1.4-1c-0.5-0.5-0.8-1-1.1-1.6c0,0-0.1,0-0.1,0
								c0.4,1.2,1.5,2.5,2.8,2.9c0.1,0,0.1,0,0.1-0.1c0.5,0.4,1.1,0.6,1.8,0.4C12.1,18,12.1,17.9,12,17.9L12,17.9z M12.4,17.7
								c-0.7-0.1-1.3-0.2-1.9-0.7c-0.1,0-0.1,0-0.1,0.1c0.5,0.5,1.3,0.9,2,0.8C12.6,17.8,12.5,17.7,12.4,17.7L12.4,17.7z M13.1,17.6
								c-0.2,0-0.4-0.1-0.6-0.2c0,0-0.1,0,0,0.1C12.6,17.6,12.8,17.6,13.1,17.6C13.1,17.6,13.1,17.6,13.1,17.6z M7.4,14.2
								C7.5,14.2,7.5,14.2,7.4,14.2c-0.8-0.9-1.5-1.8-1.9-2.9c0,0-0.1,0-0.1,0C5.8,12.4,6.5,13.5,7.4,14.2L7.4,14.2z M11,12.3
								c0-0.1-0.2-0.1-0.2,0c0,0.3,0,0.5-0.1,0.8s-0.2,0.4-0.4,0.6c0,0,0,0.2,0,0.1C11,13.7,11.1,12.8,11,12.3L11,12.3z M8,14.5
								C8,14.5,7.9,14.5,8,14.5c0.1,0.3,0.4,0.6,0.7,0.8c0,0,0,0,0.1,0c0.4,0.5,1,0.8,1.5,1c0,0,0.1,0,0.1,0c0.3,0.2,0.6,0.4,1,0.5
								c0,0,0.1-0.1,0-0.1c-0.6-0.4-1.2-0.7-1.7-1.3c0,0-0.1,0-0.1,0.1c0.1,0.1,0.3,0.3,0.4,0.5c-0.7-0.4-1.3-0.9-1.8-1.6
								c0,0-0.1,0-0.1,0c0.1,0.2,0.2,0.4,0.3,0.6c0,0-0.1-0.1-0.2-0.1C8.2,14.8,8.1,14.6,8,14.5L8,14.5z M14.6,16.9
								c-0.3,0.3-0.6,0.5-0.9,0.7c-0.1,0,0,0.1,0,0.1C14.1,17.5,14.4,17.3,14.6,16.9C14.7,16.9,14.6,16.8,14.6,16.9L14.6,16.9z
								 M16.1,15.5c-0.4,0.6-0.7,1.2-1.3,1.7c0,0,0,0.1,0.1,0.1C15.5,16.9,16.1,16.2,16.1,15.5C16.3,15.5,16.2,15.4,16.1,15.5z
								 M18.3,11.8c-0.1,0.6-0.2,1.2-0.4,1.7c0,0-0.1,0-0.1,0c-0.2,0.5-0.3,0.9-0.6,1.4c-0.3,0.4-0.6,0.8-1,1.1c0,0,0,0.1,0.1,0.1
								c0.8-0.5,1.5-1.4,1.6-2.4C18.2,13.2,18.4,12.5,18.3,11.8C18.4,11.7,18.3,11.7,18.3,11.8z M16.9,10.8
								c-0.3,1.4-1.1,2.9-2.7,3.1c-0.1,0-0.1,0.1,0,0.1c2.8,0.7,4.8-6.3,2-7c0,0-0.1,0,0,0.1C17.5,7.7,17.2,9.6,16.9,10.8z
								 M18.7,9.2C18.7,9.1,18.6,9.1,18.7,9.2c0,0.5,0,1.1,0,1.6c0,0,0.1,0,0.1,0C18.9,10.3,18.8,9.7,18.7,9.2z M18.5,10.1
								c0.1,0.8,0,1.5-0.1,2.2c0,0.1,0.1,0.1,0.1,0C18.8,11.7,18.7,10.9,18.5,10.1C18.6,10.1,18.5,10.1,18.5,10.1L18.5,10.1z M14,16
								c-0.3,0.5-0.6,1-1,1.4c0,0.1,0,0.1,0.1,0.1C13.5,17.1,13.9,16.6,14,16C14.1,16,14,15.9,14,16z M14.5,15.9l-0.3,0.4
								c-0.1,0.1-0.2,0.3-0.4,0.4c0,0,0,0.1,0.1,0.1C14.1,16.7,14.4,16.4,14.5,15.9C14.6,15.9,14.5,15.9,14.5,15.9L14.5,15.9z
								 M15,15.5c-0.1,0.2-0.2,0.4-0.3,0.6c0,0,0,0.1,0.1,0C14.9,16,15,15.8,15,15.5C15,15.5,15,15.5,15,15.5L15,15.5z M10.1,14.7
								C10,14.7,10,14.8,10.1,14.7c0.1,0.3,0.3,0.6,0.6,0.8c0,0,0.1,0,0.1,0C10.6,15.2,10.3,15,10.1,14.7L10.1,14.7z M11.6,16.3
								c-0.1-0.1-0.2-0.2-0.3-0.3c-0.1-0.1-0.2-0.3-0.3-0.4c0,0-0.1,0-0.1,0C11.1,15.9,11.3,16.2,11.6,16.3
								C11.6,16.3,11.6,16.3,11.6,16.3L11.6,16.3z M11.6,16.1c0,0.1,0.1,0.3,0.2,0.5c0,0,0.1,0,0.1,0C11.8,16.4,11.7,16.3,11.6,16.1
								C11.7,16.1,11.6,16.1,11.6,16.1z"/>
						</g>
					</g>
				</g>
				<g id="svga-group-nose-single-move" transform="matrix(1,0,0,1,0,0)">
					<g id="svga-group-nose-single">
						<path id="SvgjsPath15484" class="st3" d="M25.2,27.3c-0.3,0-0.9-0.3-1-0.3c-0.1,0-0.3,0.2-0.6,0.2c-0.4,0-0.7-0.1-0.7-0.4
							c0-0.3,0.3-1,0.3-1.3c0.1-0.4,0.1-0.7,0.4-0.7c0,0,0.1-0.2,0.1-0.4s0.3-2.3,0.4-2.5c0.1-0.2,1.3-0.5,1.8,0.1
							c0,0,0.4,2.6,0.5,2.8c0,0,0.2,0,0.3,0.4c0.1,0.4,0.3,0.8,0.4,1.1c0.1,0.2,0.2,0.6,0.1,0.8c-0.1,0.2-0.3,0.2-0.3,0.2
							s-0.3,0-0.5-0.1s-0.3-0.2-0.3-0.2s-0.3,0.3-0.5,0.4C25.3,27.3,25.2,27.3,25.2,27.3L25.2,27.3z"/>
						<path id="SvgjsPath15485" class="st6" d="M23.7,27.1c-0.2,0.1-0.3,0-0.4-0.1c-0.3,0-0.4-0.2-0.3-0.4c0-0.2,0.1-0.4,0.1-0.6
							c0-0.2,0.1-0.4,0.1-0.6l0-0.2c0-0.2,0.1-0.4,0.4-0.4c0,0.1,0.1,0.1,0.1,0c0-0.1-0.1-0.2-0.2-0.2c0.2-0.7,0.3-1.5,0.4-2.3
							c0.1-0.7,0.2-1.5,0.3-2.3c0,0,0,0,0,0c-0.2,0.8-0.3,1.6-0.4,2.4c-0.1,0.7-0.3,1.4-0.4,2.1c0,0-0.1,0-0.1,0
							c-0.3,0.2-0.4,0.9-0.4,1.2c-0.1,0.3-0.4,1-0.1,1.3C23.1,27.4,23.5,27.3,23.7,27.1C23.8,27.2,23.8,27.1,23.7,27.1z"/>
						<path id="SvgjsPath15486" class="st6" d="M26,26.7c-0.1,0.1-0.1,0.1-0.2,0.2c-0.3,0.3-0.6,0.4-1,0.2c-0.5-0.2-1-0.7-1.5-0.3
							c0,0,0,0.1,0,0.1c0.8-0.2,1.1,0.5,1.8,0.5c0.6,0,0.8-0.6,1.4-0.7c0.1,0,0.1-0.1,0-0.1C26.3,26.5,26.2,26.6,26,26.7L26,26.7z"
							/>
						<path id="SvgjsPath15487" class="st6" d="M26.4,24.4c0-0.6-0.2-1.2-0.3-1.8c-0.1-0.7-0.2-1.3-0.3-2c0,0,0,0,0,0
							C25.8,21.8,25.9,23.1,26.4,24.4C26.3,24.4,26.4,24.4,26.4,24.4L26.4,24.4z"/>
						<path id="SvgjsPath15488" class="st6" d="M27,25.7c-0.1-0.3-0.2-0.8-0.5-1c-0.2-0.1-0.3-0.1-0.4,0.1c0,0,0,0.1,0.1,0
							c0.2-0.3,0.4,0.4,0.4,0.5c0.1,0.2,0.1,0.4,0.2,0.6c0.1,0.3,0.5,1.1-0.1,1.2c0,0-0.1,0.1,0,0.1c0.2,0.1,0.4,0,0.5-0.2
							C27.5,26.5,27.2,26,27,25.7L27,25.7z"/>
						<path id="SvgjsPath15489" class="st11" d="M25.6,24.6c-0.1-0.6-0.2-1.3-0.3-1.9c-0.1-0.6,0-1.2-0.3-1.8c0-0.1-0.2-0.1-0.2,0
							c-0.2,0.4-0.1,0.9-0.1,1.4c0,0.5,0,1,0.1,1.4c0,0.4,0.1,0.9,0.2,1.3c0.1,0.4,0.4,1.1,0,1.4c-0.1,0.1-0.1,0.3,0,0.3
							C26.3,27,25.7,25.2,25.6,24.6z"/>
						<path id="SvgjsPath15490" class="st11" d="M27,26.2c-0.1-0.3-0.2-0.5-0.3-0.8c-0.1-0.2-0.1-0.4-0.3-0.6c0,0-0.1,0-0.1,0
							c-0.1,0.3,0.1,0.6,0.2,0.9c0.1,0.3,0.4,0.7,0.1,1c-0.1,0.1,0,0.3,0.2,0.2C27.1,26.9,27,26.5,27,26.2z"/>
					</g>
				</g>
				<g id="svga-group-hair-front">
					<path id="SvgjsPath15524" class="st19" d="M34,13.9c-0.2,0.8-0.2,1.3-0.2,1.9c0,0.6-0.2,1.3,0.3,1.2c0.5-0.1,1.1-0.2,1.4-1
						c0.3-0.9,0.7-2,0.7-2.5c0-0.4-0.9-2.2-0.9-2.2l-0.8,1.9L34,13.9z"/>
					<path id="SvgjsPath15525" class="st18" d="M36,15.8c0.1-0.9,0.2-2.1,0-2.3c-0.2-0.2-1.4,0.5-1.5,1.2s-0.1,1.9-0.1,1.9
						c-0.2,0.7-0.2,1-0.2,1.4s-0.2,1,0.2,0.9c0,0,0,0,0,0c-0.1,0.6,0,0.9,0,1.3c0.1,0.5-0.2,1.1,0.2,1.1c0.4,0,0.7-0.1,0.9-0.9
						c0.2-0.8,0.3-1.6,0.3-2.4c0-0.6,0-1.6,0-2.1C36,15.9,36,15.9,36,15.8z M15.6,17.5c-0.1-0.4-0.1-1-0.2-1.3s-0.9-1.6-0.9-1.6
						c-0.2,0.4-0.6,1-0.6,1.8c0,0.7-0.1,1.1,0,1.5c0,0.3,0,0.6,0,0.8c0,0.3,0.4,2,0.8,2.3c0.3,0.2,0.6-0.7,0.5-1.5
						C15.7,18.7,15.7,17.9,15.6,17.5L15.6,17.5z"/>
					<path id="SvgjsPath15526" class="st19" d="M14.8,12.6c-0.2,0.2-0.6,0.8-0.7,1.4c-0.1,0.6-0.1,1.2,0,1.5
						c0.1,0.3,0.9,1.8,1.4,1.6c0.5-0.2,0.3-0.7,0.3-1.5c0-0.8,0-0.9-0.2-1.6C15.5,13.3,14.8,12.6,14.8,12.6L14.8,12.6z M17.1,3.3
						c-0.2-0.6,0.7,0.3,0.7,1.9c0,1.5,0.2,2.6,0.9,3.2C19.4,9,22,11.2,22,11.2s-0.6,0.2-1.8-0.2c-1.2-0.3-2.7-0.9-3.5-1.9
						c-0.8-1-0.6-2.5-0.2-3.3C16.8,5.1,17.3,4.1,17.1,3.3L17.1,3.3z M29.9,11.3c0.5-0.1,1.4-0.4,1.9-0.1c0.4,0.3,0.4,1.2,1.3,1.1
						c0.9,0,1.7-1.6,1.6-2.3c0-0.7-0.6-1.9-1.5-2.3c-0.9-0.3-0.8,0.6-0.9,1c-0.1,0.4,0,0.6-0.9,1.3C30.6,10.7,29.9,11.3,29.9,11.3
						L29.9,11.3z"/>
					<path id="SvgjsPath15527" class="st16" d="M32.8,11.9c0,0.3-0.1,1.1,0.3,1.6s0.1,1.1,0.9,0.8c0.8-0.3,1.7-1.3,1.6-2.1
						c0-0.8-0.7-2.6-1.3-3c-0.7-0.3-0.7,1.1-0.7,1.1L32.8,11.9L32.8,11.9z M16.6,7.3c-0.4,0.5-1.2,0.7-1,1.6
						c0.2,0.9,1.3,1.9,2.4,2.1c1.1,0.1,1.9,0,2.1-0.1c0.1-0.1-2.4-1.5-2.4-1.5L16.6,7.3z"/>
					<path id="SvgjsPath15528" class="st19" d="M15.7,8.7C15.4,9,15.1,9.1,15,9.8s-0.1,0.8,0.3,1.7c0.4,0.8,0.5,1.3,1.1,1.2
						c0.6-0.1,1.4-0.7,1.3-1.6c-0.1-0.9-0.7-0.3-1-1.1c-0.3-0.8-0.5-1-0.5-1L15.7,8.7z"/>
					<path id="SvgjsPath15529" class="st18" d="M15.2,10.4c-0.3,0.4-0.6,0.5-0.7,1.2c-0.1,0.7-0.3,0.7,0.2,1.6s1,1.9,1.5,1.4
						c0.5-0.5,0.4-0.7,0.5-1.3c0.1-0.6-0.1-1.2-0.4-1.7C15.9,11,15.2,10.4,15.2,10.4L15.2,10.4z M23.9,11.6c0,0-1.6,0-2.5-0.4
						C20.4,10.7,18.4,9,18,7.8s0.1-3.6-0.2-4.7c0,0,0.4,0.9,0.7,1.4C18.9,5,19.7,5,20.9,5.7c1.2,0.7,2.3,2.1,2.4,3.2
						C23.5,10,23.9,11.6,23.9,11.6L23.9,11.6z"/>
					<path id="SvgjsPath15530" class="st19" d="M18.4,1.9c0-0.1-0.5,1.7,0.5,2.6s2.5,2.1,2.9,3.4s0.2,1.5,0.6,2.3
						c0.3,0.8,0.8,1.6,1.4,1.9c0.6,0.3,1.8,0,1.8-0.2s1,0.9,1.7,0.5c0.7-0.3,2.6-2.6,2.8-4.3s-0.6-3.4-1.7-3.7
						c-1.1-0.3-5.4-0.6-6.3-1.1s-1.3-0.9-1.4-1.3c0,0-0.1,0.8,0.7,1.8c0.8,1,2.4,1.6,2.4,1.6s1.2,0.3,1.3,1.2c0,0-2-1.6-3.7-2.2
						C19.9,4,19.1,4.4,18.4,1.9L18.4,1.9z"/>
					<path id="SvgjsPath15531" class="st16" d="M26.1,12.4c0,0-1,0.1-1.4-1.1c-0.4-1.2-0.2-3.5-0.9-4.7S20.3,4.8,19.6,4
						c-0.7-0.7-0.9-2.3-0.9-2.3s0.7,2,1.7,2.1c1,0.1,4.3,1.2,5.4,1.7c1.1,0.5,2.3,2.6,2,3.9S27.2,12.6,26.1,12.4L26.1,12.4z"/>
					<path id="SvgjsPath15532" class="st18" d="M27.7,4c0.1,0,2.7,0.7,4,1.1s4.2,2.6,1.1,4.4c-3.1,1.9-2,2.2-5.1,2.7
						c-0.8,0.1,0.9-1.4,1.6-2.7c0.7-1.3,0.6-3.6,0.2-4.1C29.1,4.9,27.7,4,27.7,4L27.7,4z"/>
					<path id="SvgjsPath15533" class="st17" d="M24.1,12.1c-0.9-0.7-1.4-1.7-1.6-2.8c-0.1-0.8-0.1-1.7-0.4-2.4
						c-0.2-0.4-0.5-0.7-0.9-1c-1.1-0.8-2-1.2-2.4-2.6c0,0-0.1,0-0.1,0c0.2,0.7,0.5,1.4,1.1,1.9c1,0.9,2.1,1.2,2.4,2.8
						C22.3,9.5,22.5,11.3,24.1,12.1C24.1,12.1,24.1,12.1,24.1,12.1L24.1,12.1z M24.7,11.9c-1.5-0.7-2-2.1-2.2-3.6c0,0-0.1,0-0.1,0
						C22.4,9.8,23.1,11.5,24.7,11.9C24.7,12,24.8,11.9,24.7,11.9L24.7,11.9z M25.6,12c-0.9-1-1.1-2.1-1.1-3.4c0-0.7,0.1-1.5-0.3-2.1
						c-0.3-0.5-0.9-0.8-1.5-1C21.8,5,20.9,4.6,20,4.2c0,0,0,0,0,0c0.9,0.5,1.8,0.9,2.7,1.4C23.4,6,24,6.2,24.2,7.1
						c0.1,0.5,0,1,0,1.5C24.2,10,24.6,11.1,25.6,12C25.6,12.1,25.6,12.1,25.6,12z M26.5,12c-0.9-0.8-0.4-1.7-0.4-2.7
						c0-0.6-0.2-1.2-0.5-1.8c0,0-0.1,0,0,0C25.8,8.1,26,8.7,26,9.3c0,0.4-0.2,0.9-0.2,1.3C25.7,11.2,26,11.7,26.5,12
						C26.5,12,26.5,12,26.5,12z M31.1,5.6C31,5.5,31,5.6,31.1,5.6c0.2,0.1,0.4,0.2,0.6,0.3v0c1.9,1.6-0.7,3.6-1.9,4.5
						c0,0,0,0.1,0,0.1c1.3-0.7,4-3.1,2-4.6c0.8,0.3,0.9,0.5,1.2,1.4c0.2,0.8,0.1,1.2-0.5,1.8c-0.3,0.3-0.8,0.6-1.2,0.8
						c-1,0.6-2,1.4-3,2c0,0,0,0,0,0c1.1-0.5,2-1.4,3.1-2c0.7-0.4,1.4-0.9,1.8-1.6C33.8,6.8,32.4,5.9,31.1,5.6L31.1,5.6z M28.4,4.7
						C28.4,4.7,28.4,4.8,28.4,4.7c1.1,0.3,2.4,0.6,2.6,2c0.1,1-0.5,1.9-1.2,2.6c-0.9,0.8-1.8,1.5-2,2.7c0,0.1,0.1,0.1,0.1,0
						c0.4-2.1,3.2-2.7,3.3-5.1C31.4,5.3,29.9,4.8,28.4,4.7L28.4,4.7z M28.2,6.8c-1-2.4-4.3-2.1-6.2-3.6c0,0-0.1,0,0,0
						c1.8,1.7,4.7,1.4,6.1,3.6C28.1,6.9,28.2,6.9,28.2,6.8L28.2,6.8z M34.6,10.4C34.6,10.3,34.5,10.3,34.6,10.4
						c-0.1,1.3-1.7,2.1-1.2,3.5c0,0,0.1,0,0.1,0C33.1,12.5,34.9,11.7,34.6,10.4L34.6,10.4z M35.4,12.2
						C35.4,12.2,35.3,12.2,35.4,12.2c-0.2,0.4-0.3,0.9-0.6,1.3c-0.2,0.3-0.5,0.6-0.6,1c-0.2,0.5-0.3,1-0.1,1.5c0,0,0.1,0,0.1,0
						c-0.1-1,0.3-1.5,0.8-2.3C35.2,13.3,35.3,12.7,35.4,12.2L35.4,12.2z M35.6,12.7c0-0.1-0.1,0-0.1,0c0,0.5-0.1,1-0.3,1.5
						c0,0,0,0.1,0.1,0C35.5,13.8,35.6,13.3,35.6,12.7L35.6,12.7z M35.6,15.6C35.6,15.6,35.5,15.6,35.6,15.6
						c-0.2,0.7-0.5,1.4-0.7,2.1c-0.1,0.5-0.2,0.9,0,1.3c0,0.1,0.1,0,0.1,0c-0.2-0.7,0.1-1.3,0.3-1.9C35.5,16.7,35.6,16.2,35.6,15.6
						L35.6,15.6z M35.5,17.6c-0.1,0.3-0.1,0.6-0.1,0.9c0,0,0.1,0,0.1,0C35.5,18.3,35.5,18,35.5,17.6C35.6,17.6,35.5,17.6,35.5,17.6
						L35.5,17.6z M21.7,10.6c-1.1-0.4-2-1-2.6-2c-0.6-1.1-0.5-2.2-0.6-3.5c0-0.1-0.1-0.1-0.1,0C18.2,7.5,19.1,10.1,21.7,10.6
						C21.8,10.7,21.8,10.6,21.7,10.6z M19.6,10.1c-0.7-0.4-1.4-1.2-1.7-1.9c-0.5-0.8-0.4-1.8-0.4-2.8c0-0.1-0.1-0.1-0.1,0
						C17.2,7.4,17.7,9.2,19.6,10.1C19.6,10.2,19.6,10.1,19.6,10.1L19.6,10.1z M18.7,10.1C17.7,9.7,17,9,16.6,8c0,0-0.1,0-0.1,0
						C16.8,9.1,17.6,10,18.7,10.1C18.7,10.3,18.7,10.2,18.7,10.1L18.7,10.1z M17.6,10.5c-0.4-0.2-0.8-0.4-1.2-0.6c0,0,0,0,0,0
						C16.7,10.2,17.1,10.4,17.6,10.5C17.6,10.6,17.6,10.5,17.6,10.5z M16.5,11.7c-0.4-0.4-0.8-0.7-1.1-1.1c0,0-0.1,0-0.1,0
						C15.6,11.1,16,11.5,16.5,11.7C16.5,11.8,16.5,11.8,16.5,11.7L16.5,11.7z M30.4,6.6c-0.1-0.9-0.8-1.5-1.6-1.7c0,0,0,0,0,0
						c1,0.3,1.8,1.3,1.4,2.4C30,8,29.4,8.5,29,9c0,0,0,0,0,0C29.7,8.3,30.5,7.6,30.4,6.6z M27.9,5.7C27.8,5.7,27.8,5.8,27.9,5.7
						c1.3,1.7,0.1,3.6-0.4,5.3c0,0,0,0.1,0.1,0C28.2,9.5,29.4,7.2,27.9,5.7L27.9,5.7z M23.7,5.5C23.6,5.5,23.6,5.6,23.7,5.5
						c2.2,0.7,0.9,3.7,1.6,5.2c0,0,0.1,0,0.1,0C25,9.1,26,6,23.7,5.5z"/>
				</g>
				<g id="svga-group-glasses-single-move" transform="matrix(1,0,0,1,0,0)">
					<g id="svga-group-glasses-single">
						
							<linearGradient id="SvgjsPath15340_00000149383576142698579360000005274722438550706852_" gradientUnits="userSpaceOnUse" x1="-9.9243" y1="60.6638" x2="-9.9243" y2="58.5971" gradientTransform="matrix(3 0 0 -3 50 200)">
							<stop  offset="2.100000e-02" style="stop-color:#3D2D1C"/>
							<stop  offset="0.383" style="stop-color:#402E1C;stop-opacity:0.629"/>
							<stop  offset="0.616" style="stop-color:#48321D;stop-opacity:0.39"/>
							<stop  offset="0.812" style="stop-color:#57381F;stop-opacity:0.188"/>
							<stop  offset="0.988" style="stop-color:#6C4221;stop-opacity:8.000000e-03"/>
							<stop  offset="0.996" style="stop-color:#6D4221;stop-opacity:0"/>
						</linearGradient>
						<path id="SvgjsPath15340" style="fill:url(#SvgjsPath15340_00000149383576142698579360000005274722438550706852_);" d="
							M20.2,18c-1.4-0.1-3.2,0-3.7,0.7c-0.5,0.7-0.6,3.3,0,4.4c0.6,1.1,3.2,1.4,5.2,0.8c2-0.6,2.7-4.6,2.6-5
							C24.2,18.4,22.2,18.1,20.2,18L20.2,18z"/>
						
							<linearGradient id="SvgjsPath15348_00000003804652326185709440000011838453207312881316_" gradientUnits="userSpaceOnUse" x1="57.0287" y1="60.6638" x2="57.0287" y2="58.5972" gradientTransform="matrix(-3 0 0 -3 200.8841 200)">
							<stop  offset="2.100000e-02" style="stop-color:#3D2D1C"/>
							<stop  offset="0.383" style="stop-color:#402E1C;stop-opacity:0.629"/>
							<stop  offset="0.616" style="stop-color:#48321D;stop-opacity:0.39"/>
							<stop  offset="0.812" style="stop-color:#57381F;stop-opacity:0.188"/>
							<stop  offset="0.988" style="stop-color:#6C4221;stop-opacity:8.000000e-03"/>
							<stop  offset="0.996" style="stop-color:#6D4221;stop-opacity:0"/>
						</linearGradient>
						<path id="SvgjsPath15348" style="fill:url(#SvgjsPath15348_00000003804652326185709440000011838453207312881316_);" d="
							M29.8,18c1.4-0.1,3.2,0,3.7,0.7c0.5,0.7,0.6,3.3,0,4.4s-3.2,1.4-5.2,0.8c-2-0.6-2.7-4.6-2.6-5C25.9,18.4,27.8,18.1,29.8,18
							L29.8,18z"/>
						<path id="SvgjsPath15356" class="st22" d="M34,18.1c-0.6-0.3-2.6-0.4-4.2-0.4c-2.1,0.1-3.9,0.2-4.8,0.2
							c-0.9,0-2.7-0.1-4.8-0.2c-1.5,0-3.6,0.1-4.2,0.4c-0.6,0.3-0.5,0.9-0.2,2.7s0.3,3.4,2.3,3.6c2,0.2,3.5,0.1,4.4-0.6
							c0.9-0.7,1.8-2.9,2-3.2c0.2-0.3,0.4-0.4,0.5-0.4c0.1,0,0.3,0.1,0.5,0.4c0.2,0.4,1.1,2.5,2,3.2c0.9,0.7,2.4,0.8,4.4,0.6
							c2-0.2,2.1-1.8,2.3-3.6C34.5,18.9,34.6,18.3,34,18.1L34,18.1z M23.2,21.9c-1,1.9-1.6,2-4,2.1c-2.4,0.1-2.7-1.3-2.7-2.3
							c-0.1-1-0.2-2,0.4-2.7c0.5-0.6,2.4-0.6,3.7-0.5c1,0.1,2,0.2,2.6,0.5C23.9,19.3,24.2,20.1,23.2,21.9L23.2,21.9z M33.5,21.7
							c-0.1,1-0.3,2.4-2.7,2.3c-2.4-0.1-3-0.2-4-2.1c-1-1.9-0.7-2.6,0-3c0.6-0.3,1.6-0.4,2.6-0.5c1.3-0.1,3.1-0.1,3.7,0.5
							C33.7,19.6,33.5,20.7,33.5,21.7L33.5,21.7z"/>
						<path id="SvgjsPath15357" class="st23" d="M34,18.1c-0.3-0.1-0.7-0.2-1.1-0.2c-0.4,0-0.7-0.1-1.1-0.1c-0.7,0-1.4,0-2.2,0
							c-1.4,0-2.9,0.1-4.3,0.2c-0.7,0-1.4,0-2.2-0.1L21,17.8c-0.7,0-1.4-0.1-2.2,0c-0.7,0-1.4,0.1-2.2,0.2c-0.2,0-0.4,0.1-0.5,0.1
							c-0.2,0.1-0.3,0.1-0.4,0.3c-0.1,0.1-0.1,0.3-0.1,0.5c0,0.2,0,0.4,0,0.5c0.1,0.7,0.2,1.4,0.2,2.2c0,0.4,0.1,0.7,0.2,1.1
							c0.1,0.3,0.2,0.7,0.4,1c0.2,0.3,0.5,0.5,0.9,0.6c0.3,0.1,0.7,0.1,1.1,0.2c0.7,0.1,1.4,0.1,2.2,0c0.7-0.1,1.4-0.3,2-0.8
							c0.5-0.5,0.9-1.1,1.2-1.8c0.2-0.3,0.3-0.6,0.5-1c0.1-0.2,0.2-0.3,0.3-0.5c0.1-0.1,0.3-0.3,0.5-0.3l0,0l0,0
							c0.2,0,0.3,0.2,0.5,0.3c0.1,0.1,0.2,0.3,0.3,0.5c0.2,0.3,0.3,0.6,0.5,0.9c0.3,0.6,0.7,1.2,1.1,1.7c0.5,0.5,1.1,0.7,1.8,0.8
							c0.7,0.1,1.4,0.1,2.1,0c0.3,0,0.7,0,1-0.1c0.3-0.1,0.7-0.2,0.9-0.4c0.3-0.2,0.5-0.5,0.6-0.8c0.1-0.3,0.2-0.7,0.3-1
							c0.1-0.7,0.2-1.4,0.3-2.1c0-0.3,0.1-0.7,0.1-1c0-0.2,0-0.3-0.1-0.5C34.3,18.3,34.2,18.1,34,18.1L34,18.1z M34,18
							c0.2,0.1,0.3,0.2,0.3,0.4c0.1,0.2,0.1,0.3,0.1,0.5c0,0.3,0,0.7-0.1,1c-0.1,0.7-0.1,1.4-0.2,2.1c-0.1,0.3-0.1,0.7-0.3,1
							c-0.1,0.3-0.3,0.6-0.6,0.8c-0.3,0.2-0.6,0.4-1,0.4c-0.3,0.1-0.7,0.1-1,0.1c-0.7,0.1-1.4,0.1-2.1,0c-0.3,0-0.7-0.1-1-0.3
							c-0.3-0.1-0.6-0.3-0.9-0.6c-0.5-0.5-0.8-1.1-1.1-1.8c-0.2-0.3-0.3-0.6-0.5-0.9c-0.1-0.2-0.1-0.3-0.3-0.4
							c-0.1-0.1-0.2-0.2-0.4-0.3h0c-0.2,0-0.3,0.1-0.4,0.3c-0.1,0.1-0.2,0.3-0.3,0.5c-0.2,0.3-0.3,0.6-0.5,1
							c-0.2,0.3-0.3,0.6-0.5,0.9c-0.2,0.3-0.4,0.6-0.7,0.9c-0.6,0.5-1.3,0.7-2,0.8c-0.7,0.1-1.5,0-2.2,0c-0.4,0-0.7-0.1-1.1-0.2
							c-0.3-0.1-0.7-0.3-0.9-0.6c-0.2-0.3-0.4-0.6-0.5-1c-0.1-0.4-0.1-0.7-0.2-1.1l-0.1-1.1c0-0.4-0.1-0.7-0.1-1.1
							c0-0.2,0-0.4,0-0.5c0-0.2,0-0.4,0.1-0.5c0.1-0.2,0.3-0.3,0.4-0.3c0.2-0.1,0.4-0.1,0.5-0.1c1.4-0.2,2.9-0.2,4.3-0.2l2.2,0.1
							c0.7,0,1.4,0.1,2.2,0.1c1.4,0,2.9-0.1,4.3-0.2c0.7,0,1.4,0,2.2,0c0.4,0,0.7,0.1,1.1,0.1C33.3,17.8,33.7,17.9,34,18L34,18z"/>
						<path id="SvgjsPath15358" class="st23" d="M23.2,21.9c-0.2,0.4-0.4,0.8-0.7,1.1c-0.1,0.2-0.3,0.3-0.5,0.5
							c-0.2,0.1-0.4,0.2-0.6,0.3C20.9,24,20.5,24,20,24c-0.4,0-0.9,0-1.4,0c-0.5,0-0.9-0.2-1.3-0.4c-0.4-0.3-0.6-0.7-0.8-1.1
							c-0.1-0.4-0.1-0.9-0.2-1.3c0-0.4,0-0.9,0-1.4c0-0.2,0.1-0.4,0.2-0.6c0.1-0.2,0.3-0.4,0.5-0.5c0.4-0.2,0.9-0.3,1.3-0.3
							c0.9-0.1,1.8,0,2.7,0.1c0.4,0,0.9,0.1,1.3,0.2c0.2,0.1,0.4,0.1,0.6,0.2c0.2,0.1,0.4,0.3,0.5,0.5c0.1,0.2,0.2,0.4,0.2,0.7
							c0,0.2-0.1,0.5-0.1,0.7C23.6,21.1,23.4,21.5,23.2,21.9L23.2,21.9z M23.2,21.9c0.2-0.4,0.4-0.8,0.5-1.2
							c0.1-0.4,0.2-0.9-0.1-1.3c-0.2-0.4-0.7-0.5-1.1-0.6c-0.4-0.1-0.9-0.2-1.3-0.2c-0.9-0.1-1.8-0.2-2.7-0.1
							c-0.4,0-0.9,0.1-1.3,0.3c-0.2,0.1-0.3,0.3-0.5,0.5c-0.1,0.2-0.2,0.4-0.2,0.6c-0.1,0.4-0.1,0.9,0,1.3c0,0.4,0,0.9,0.2,1.3
							c0.1,0.4,0.4,0.8,0.7,1.1c0.4,0.2,0.8,0.3,1.3,0.4c0.4,0,0.9,0,1.3,0c0.4,0,0.9,0,1.3-0.2c0.2,0,0.4-0.1,0.6-0.3
							c0.2-0.1,0.4-0.3,0.5-0.4C22.8,22.7,23,22.3,23.2,21.9L23.2,21.9z"/>
						<path id="SvgjsPath15359" class="st23" d="M33.5,21.7c0,0.4-0.1,0.9-0.3,1.3c-0.2,0.4-0.6,0.7-1,0.9c-0.4,0.2-0.9,0.2-1.3,0.2
							c-0.5,0-0.9,0-1.4-0.1c-0.4-0.1-0.9-0.1-1.3-0.4c-0.4-0.2-0.7-0.6-1-1c-0.2-0.4-0.5-0.8-0.7-1.2c-0.2-0.4-0.4-0.8-0.4-1.3
							c0-0.2,0-0.5,0.1-0.7c0.1-0.2,0.2-0.4,0.4-0.5c0.4-0.2,0.8-0.4,1.3-0.4c0.4-0.1,0.9-0.1,1.3-0.2c0.4,0,0.9-0.1,1.4-0.1
							c0.5,0,0.9,0,1.4,0.1c0.2,0,0.4,0.1,0.7,0.2c0.2,0.1,0.4,0.2,0.5,0.4c0.3,0.4,0.3,0.9,0.4,1.3C33.6,20.8,33.5,21.2,33.5,21.7
							L33.5,21.7z M33.5,21.7c0-0.4,0.1-0.9,0-1.3c0-0.4-0.1-0.9-0.4-1.3c-0.2-0.4-0.7-0.5-1.2-0.5c-0.4-0.1-0.9-0.1-1.3-0.1
							c-0.4,0-0.9,0-1.3,0.1c-0.4,0-0.9,0.1-1.3,0.2c-0.4,0.1-0.9,0.2-1.3,0.4c-0.2,0.1-0.3,0.3-0.4,0.5c-0.1,0.2-0.1,0.4-0.1,0.6
							c0,0.4,0.2,0.9,0.4,1.3c0.2,0.4,0.4,0.8,0.6,1.2c0.2,0.4,0.6,0.7,0.9,0.9c0.4,0.2,0.8,0.3,1.3,0.3c0.4,0,0.9,0,1.3,0.1
							c0.4,0,0.9,0,1.3-0.2c0.4-0.1,0.8-0.4,1-0.8C33.4,22.6,33.5,22.1,33.5,21.7L33.5,21.7z"/>
					</g>
				</g>
			</g>
		</g>
	</g>
	<rect id="svga-credit-rect" x="0" y="43.6" class="st24" width="50" height="3.7"/>
	<text transform="matrix(1 0 0 1 8.1163 46.2152)" class="st25 st26 st27">Created on AvatarMaker.com</text>
</g>
</svg>
